%TF.GenerationSoftware,KiCad,Pcbnew,(6.0.8-1)-1*%
%TF.CreationDate,2023-01-21T16:38:30+01:00*%
%TF.ProjectId,hog-f1-stupdown-psu,686f672d-6631-42d7-9374-7570646f776e,rev?*%
%TF.SameCoordinates,Original*%
%TF.FileFunction,Drillmap*%
%TF.FilePolarity,Positive*%
%FSLAX45Y45*%
G04 Gerber Fmt 4.5, Leading zero omitted, Abs format (unit mm)*
G04 Created by KiCad (PCBNEW (6.0.8-1)-1) date 2023-01-21 16:38:30*
%MOMM*%
%LPD*%
G01*
G04 APERTURE LIST*
%ADD10C,0.100000*%
%ADD11C,0.200000*%
%ADD12C,0.080000*%
%ADD13C,0.090000*%
%ADD14C,0.132000*%
%ADD15C,0.150800*%
%ADD16C,0.300000*%
G04 APERTURE END LIST*
D10*
X12500000Y-14250000D02*
X17000000Y-14250000D01*
X12250000Y-6500000D02*
X12250000Y-14000000D01*
X12250000Y-14000000D02*
G75*
G03*
X12500000Y-14250000I250000J0D01*
G01*
X17000000Y-14250000D02*
G75*
G03*
X17250000Y-14000000I0J250000D01*
G01*
X17250000Y-6500000D02*
G75*
G03*
X17000000Y-6250000I-250000J0D01*
G01*
X12500000Y-6250000D02*
X17000000Y-6250000D01*
X17250000Y-14000000D02*
X17250000Y-6500000D01*
X12500000Y-6250000D02*
G75*
G03*
X12250000Y-6500000I0J-250000D01*
G01*
D11*
D12*
X12792400Y-7443800D02*
X12872400Y-7523800D01*
X12872400Y-7443800D02*
X12792400Y-7523800D01*
X13554400Y-7443800D02*
X13634400Y-7523800D01*
X13634400Y-7443800D02*
X13554400Y-7523800D01*
X15860400Y-7440300D02*
X15940400Y-7520300D01*
X15940400Y-7440300D02*
X15860400Y-7520300D01*
X16622400Y-7440300D02*
X16702400Y-7520300D01*
X16702400Y-7440300D02*
X16622400Y-7520300D01*
D13*
X13291100Y-6950400D02*
G75*
G03*
X13291100Y-6950400I-45000J0D01*
G01*
X13545100Y-6950400D02*
G75*
G03*
X13545100Y-6950400I-45000J0D01*
G01*
X16033800Y-6950400D02*
G75*
G03*
X16033800Y-6950400I-45000J0D01*
G01*
X16287800Y-6950400D02*
G75*
G03*
X16287800Y-6950400I-45000J0D01*
G01*
D10*
X12730800Y-13148800D02*
X12730800Y-13248800D01*
X12680800Y-13198800D02*
X12780800Y-13198800D01*
X12959400Y-8106459D02*
X12959400Y-8206459D01*
X12909400Y-8156459D02*
X13009400Y-8156459D01*
X12959400Y-8360459D02*
X12959400Y-8460459D01*
X12909400Y-8410459D02*
X13009400Y-8410459D01*
X12959400Y-9452659D02*
X12959400Y-9552659D01*
X12909400Y-9502659D02*
X13009400Y-9502659D01*
X12959400Y-9706659D02*
X12959400Y-9806659D01*
X12909400Y-9756659D02*
X13009400Y-9756659D01*
X13213400Y-8106459D02*
X13213400Y-8206459D01*
X13163400Y-8156459D02*
X13263400Y-8156459D01*
X13213400Y-8360459D02*
X13213400Y-8460459D01*
X13163400Y-8410459D02*
X13263400Y-8410459D01*
X13213400Y-9452659D02*
X13213400Y-9552659D01*
X13163400Y-9502659D02*
X13263400Y-9502659D01*
X13213400Y-9706659D02*
X13213400Y-9806659D01*
X13163400Y-9756659D02*
X13263400Y-9756659D01*
X13289600Y-13148800D02*
X13289600Y-13248800D01*
X13239600Y-13198800D02*
X13339600Y-13198800D01*
X13385800Y-13767600D02*
X13385800Y-13867600D01*
X13335800Y-13817600D02*
X13435800Y-13817600D01*
X13467400Y-8106459D02*
X13467400Y-8206459D01*
X13417400Y-8156459D02*
X13517400Y-8156459D01*
X13467400Y-8360459D02*
X13467400Y-8460459D01*
X13417400Y-8410459D02*
X13517400Y-8410459D01*
X13467400Y-9452659D02*
X13467400Y-9552659D01*
X13417400Y-9502659D02*
X13517400Y-9502659D01*
X13467400Y-9706659D02*
X13467400Y-9806659D01*
X13417400Y-9756659D02*
X13517400Y-9756659D01*
X13543600Y-13148800D02*
X13543600Y-13248800D01*
X13493600Y-13198800D02*
X13593600Y-13198800D01*
X13721400Y-8106459D02*
X13721400Y-8206459D01*
X13671400Y-8156459D02*
X13771400Y-8156459D01*
X13721400Y-8360459D02*
X13721400Y-8460459D01*
X13671400Y-8410459D02*
X13771400Y-8410459D01*
X13721400Y-9452659D02*
X13721400Y-9552659D01*
X13671400Y-9502659D02*
X13771400Y-9502659D01*
X13721400Y-9706659D02*
X13721400Y-9806659D01*
X13671400Y-9756659D02*
X13771400Y-9756659D01*
X13975400Y-8106459D02*
X13975400Y-8206459D01*
X13925400Y-8156459D02*
X14025400Y-8156459D01*
X13975400Y-8360459D02*
X13975400Y-8460459D01*
X13925400Y-8410459D02*
X14025400Y-8410459D01*
X13975400Y-9452659D02*
X13975400Y-9552659D01*
X13925400Y-9502659D02*
X14025400Y-9502659D01*
X13975400Y-9706659D02*
X13975400Y-9806659D01*
X13925400Y-9756659D02*
X14025400Y-9756659D01*
X14559600Y-10545809D02*
X14559600Y-10645809D01*
X14509600Y-10595809D02*
X14609600Y-10595809D01*
X14559600Y-10799809D02*
X14559600Y-10899809D01*
X14509600Y-10849809D02*
X14609600Y-10849809D01*
X14559600Y-11053809D02*
X14559600Y-11153809D01*
X14509600Y-11103809D02*
X14609600Y-11103809D01*
X14559600Y-11307809D02*
X14559600Y-11407809D01*
X14509600Y-11357809D02*
X14609600Y-11357809D01*
X14559600Y-11790409D02*
X14559600Y-11890409D01*
X14509600Y-11840409D02*
X14609600Y-11840409D01*
X14559600Y-12044409D02*
X14559600Y-12144409D01*
X14509600Y-12094409D02*
X14609600Y-12094409D01*
X14559600Y-12298409D02*
X14559600Y-12398409D01*
X14509600Y-12348409D02*
X14609600Y-12348409D01*
X14559600Y-12552409D02*
X14559600Y-12652409D01*
X14509600Y-12602409D02*
X14609600Y-12602409D01*
X15575600Y-9452659D02*
X15575600Y-9552659D01*
X15525600Y-9502659D02*
X15625600Y-9502659D01*
X15575600Y-9706659D02*
X15575600Y-9806659D01*
X15525600Y-9756659D02*
X15625600Y-9756659D01*
X15582022Y-8106459D02*
X15582022Y-8206459D01*
X15532022Y-8156459D02*
X15632022Y-8156459D01*
X15582022Y-8360459D02*
X15582022Y-8460459D01*
X15532022Y-8410459D02*
X15632022Y-8410459D01*
X15677200Y-13148800D02*
X15677200Y-13248800D01*
X15627200Y-13198800D02*
X15727200Y-13198800D01*
X15677200Y-13529800D02*
X15677200Y-13629800D01*
X15627200Y-13579800D02*
X15727200Y-13579800D01*
X15677200Y-13910800D02*
X15677200Y-14010800D01*
X15627200Y-13960800D02*
X15727200Y-13960800D01*
X15829600Y-9452659D02*
X15829600Y-9552659D01*
X15779600Y-9502659D02*
X15879600Y-9502659D01*
X15829600Y-9706659D02*
X15829600Y-9806659D01*
X15779600Y-9756659D02*
X15879600Y-9756659D01*
X15836022Y-8106459D02*
X15836022Y-8206459D01*
X15786022Y-8156459D02*
X15886022Y-8156459D01*
X15836022Y-8360459D02*
X15836022Y-8460459D01*
X15786022Y-8410459D02*
X15886022Y-8410459D01*
X16083600Y-9452659D02*
X16083600Y-9552659D01*
X16033600Y-9502659D02*
X16133600Y-9502659D01*
X16083600Y-9706659D02*
X16083600Y-9806659D01*
X16033600Y-9756659D02*
X16133600Y-9756659D01*
X16090022Y-8106459D02*
X16090022Y-8206459D01*
X16040022Y-8156459D02*
X16140022Y-8156459D01*
X16090022Y-8360459D02*
X16090022Y-8460459D01*
X16040022Y-8410459D02*
X16140022Y-8410459D01*
X16337600Y-9452659D02*
X16337600Y-9552659D01*
X16287600Y-9502659D02*
X16387600Y-9502659D01*
X16337600Y-9706659D02*
X16337600Y-9806659D01*
X16287600Y-9756659D02*
X16387600Y-9756659D01*
X16344022Y-8106459D02*
X16344022Y-8206459D01*
X16294022Y-8156459D02*
X16394022Y-8156459D01*
X16344022Y-8360459D02*
X16344022Y-8460459D01*
X16294022Y-8410459D02*
X16394022Y-8410459D01*
X16591600Y-9452659D02*
X16591600Y-9552659D01*
X16541600Y-9502659D02*
X16641600Y-9502659D01*
X16591600Y-9706659D02*
X16591600Y-9806659D01*
X16541600Y-9756659D02*
X16641600Y-9756659D01*
X16598022Y-8106459D02*
X16598022Y-8206459D01*
X16548022Y-8156459D02*
X16648022Y-8156459D01*
X16598022Y-8360459D02*
X16598022Y-8460459D01*
X16548022Y-8410459D02*
X16648022Y-8410459D01*
D14*
X14317469Y-7073269D02*
X14317469Y-6979930D01*
X14224130Y-6979930D01*
X14224130Y-7073269D01*
X14317469Y-7073269D01*
X14428469Y-13575669D02*
X14428469Y-13482330D01*
X14335130Y-13482330D01*
X14335130Y-13575669D01*
X14428469Y-13575669D01*
X14817469Y-7073269D02*
X14817469Y-6979930D01*
X14724130Y-6979930D01*
X14724130Y-7073269D01*
X14817469Y-7073269D01*
X14928469Y-13575669D02*
X14928469Y-13482330D01*
X14835130Y-13482330D01*
X14835130Y-13575669D01*
X14928469Y-13575669D01*
X15317469Y-7073269D02*
X15317469Y-6979930D01*
X15224130Y-6979930D01*
X15224130Y-7073269D01*
X15317469Y-7073269D01*
D15*
X12804480Y-10761809D02*
X12879880Y-10686409D01*
X12804480Y-10611009D01*
X12729080Y-10686409D01*
X12804480Y-10761809D01*
X12804480Y-12561809D02*
X12879880Y-12486409D01*
X12804480Y-12411009D01*
X12729080Y-12486409D01*
X12804480Y-12561809D01*
X13901760Y-10761809D02*
X13977160Y-10686409D01*
X13901760Y-10611009D01*
X13826360Y-10686409D01*
X13901760Y-10761809D01*
X13901760Y-12561809D02*
X13977160Y-12486409D01*
X13901760Y-12411009D01*
X13826360Y-12486409D01*
X13901760Y-12561809D01*
D16*
X12530000Y-6533700D02*
X12830000Y-6833700D01*
X12830000Y-6533700D02*
X12530000Y-6833700D01*
X12830000Y-6683700D02*
G75*
G03*
X12830000Y-6683700I-150000J0D01*
G01*
X12530000Y-13671100D02*
X12830000Y-13971100D01*
X12830000Y-13671100D02*
X12530000Y-13971100D01*
X12830000Y-13821100D02*
G75*
G03*
X12830000Y-13821100I-150000J0D01*
G01*
X16670200Y-6533700D02*
X16970200Y-6833700D01*
X16970200Y-6533700D02*
X16670200Y-6833700D01*
X16970200Y-6683700D02*
G75*
G03*
X16970200Y-6683700I-150000J0D01*
G01*
X16670200Y-13671100D02*
X16970200Y-13971100D01*
X16970200Y-13671100D02*
X16670200Y-13971100D01*
X16970200Y-13821100D02*
G75*
G03*
X16970200Y-13821100I-150000J0D01*
G01*
D11*
X12502619Y-14565476D02*
X12502619Y-14365476D01*
X12550238Y-14365476D01*
X12578809Y-14375000D01*
X12597857Y-14394048D01*
X12607381Y-14413095D01*
X12616905Y-14451190D01*
X12616905Y-14479762D01*
X12607381Y-14517857D01*
X12597857Y-14536905D01*
X12578809Y-14555952D01*
X12550238Y-14565476D01*
X12502619Y-14565476D01*
X12702619Y-14565476D02*
X12702619Y-14432143D01*
X12702619Y-14470238D02*
X12712143Y-14451190D01*
X12721667Y-14441667D01*
X12740714Y-14432143D01*
X12759762Y-14432143D01*
X12826428Y-14565476D02*
X12826428Y-14432143D01*
X12826428Y-14365476D02*
X12816905Y-14375000D01*
X12826428Y-14384524D01*
X12835952Y-14375000D01*
X12826428Y-14365476D01*
X12826428Y-14384524D01*
X12950238Y-14565476D02*
X12931190Y-14555952D01*
X12921667Y-14536905D01*
X12921667Y-14365476D01*
X13055000Y-14565476D02*
X13035952Y-14555952D01*
X13026428Y-14536905D01*
X13026428Y-14365476D01*
X13283571Y-14565476D02*
X13283571Y-14365476D01*
X13350238Y-14508333D01*
X13416905Y-14365476D01*
X13416905Y-14565476D01*
X13597857Y-14565476D02*
X13597857Y-14460714D01*
X13588333Y-14441667D01*
X13569286Y-14432143D01*
X13531190Y-14432143D01*
X13512143Y-14441667D01*
X13597857Y-14555952D02*
X13578809Y-14565476D01*
X13531190Y-14565476D01*
X13512143Y-14555952D01*
X13502619Y-14536905D01*
X13502619Y-14517857D01*
X13512143Y-14498809D01*
X13531190Y-14489286D01*
X13578809Y-14489286D01*
X13597857Y-14479762D01*
X13693095Y-14432143D02*
X13693095Y-14632143D01*
X13693095Y-14441667D02*
X13712143Y-14432143D01*
X13750238Y-14432143D01*
X13769286Y-14441667D01*
X13778809Y-14451190D01*
X13788333Y-14470238D01*
X13788333Y-14527381D01*
X13778809Y-14546428D01*
X13769286Y-14555952D01*
X13750238Y-14565476D01*
X13712143Y-14565476D01*
X13693095Y-14555952D01*
X13874048Y-14546428D02*
X13883571Y-14555952D01*
X13874048Y-14565476D01*
X13864524Y-14555952D01*
X13874048Y-14546428D01*
X13874048Y-14565476D01*
X13874048Y-14441667D02*
X13883571Y-14451190D01*
X13874048Y-14460714D01*
X13864524Y-14451190D01*
X13874048Y-14441667D01*
X13874048Y-14460714D01*
D12*
X12165000Y-14855000D02*
X12245000Y-14935000D01*
X12245000Y-14855000D02*
X12165000Y-14935000D01*
D11*
X12540714Y-14785476D02*
X12559762Y-14785476D01*
X12578809Y-14795000D01*
X12588333Y-14804524D01*
X12597857Y-14823571D01*
X12607381Y-14861667D01*
X12607381Y-14909286D01*
X12597857Y-14947381D01*
X12588333Y-14966428D01*
X12578809Y-14975952D01*
X12559762Y-14985476D01*
X12540714Y-14985476D01*
X12521667Y-14975952D01*
X12512143Y-14966428D01*
X12502619Y-14947381D01*
X12493095Y-14909286D01*
X12493095Y-14861667D01*
X12502619Y-14823571D01*
X12512143Y-14804524D01*
X12521667Y-14795000D01*
X12540714Y-14785476D01*
X12693095Y-14966428D02*
X12702619Y-14975952D01*
X12693095Y-14985476D01*
X12683571Y-14975952D01*
X12693095Y-14966428D01*
X12693095Y-14985476D01*
X12816905Y-14871190D02*
X12797857Y-14861667D01*
X12788333Y-14852143D01*
X12778809Y-14833095D01*
X12778809Y-14823571D01*
X12788333Y-14804524D01*
X12797857Y-14795000D01*
X12816905Y-14785476D01*
X12855000Y-14785476D01*
X12874048Y-14795000D01*
X12883571Y-14804524D01*
X12893095Y-14823571D01*
X12893095Y-14833095D01*
X12883571Y-14852143D01*
X12874048Y-14861667D01*
X12855000Y-14871190D01*
X12816905Y-14871190D01*
X12797857Y-14880714D01*
X12788333Y-14890238D01*
X12778809Y-14909286D01*
X12778809Y-14947381D01*
X12788333Y-14966428D01*
X12797857Y-14975952D01*
X12816905Y-14985476D01*
X12855000Y-14985476D01*
X12874048Y-14975952D01*
X12883571Y-14966428D01*
X12893095Y-14947381D01*
X12893095Y-14909286D01*
X12883571Y-14890238D01*
X12874048Y-14880714D01*
X12855000Y-14871190D01*
X13016905Y-14785476D02*
X13035952Y-14785476D01*
X13055000Y-14795000D01*
X13064524Y-14804524D01*
X13074048Y-14823571D01*
X13083571Y-14861667D01*
X13083571Y-14909286D01*
X13074048Y-14947381D01*
X13064524Y-14966428D01*
X13055000Y-14975952D01*
X13035952Y-14985476D01*
X13016905Y-14985476D01*
X12997857Y-14975952D01*
X12988333Y-14966428D01*
X12978809Y-14947381D01*
X12969286Y-14909286D01*
X12969286Y-14861667D01*
X12978809Y-14823571D01*
X12988333Y-14804524D01*
X12997857Y-14795000D01*
X13016905Y-14785476D01*
X13207381Y-14785476D02*
X13226428Y-14785476D01*
X13245476Y-14795000D01*
X13255000Y-14804524D01*
X13264524Y-14823571D01*
X13274048Y-14861667D01*
X13274048Y-14909286D01*
X13264524Y-14947381D01*
X13255000Y-14966428D01*
X13245476Y-14975952D01*
X13226428Y-14985476D01*
X13207381Y-14985476D01*
X13188333Y-14975952D01*
X13178809Y-14966428D01*
X13169286Y-14947381D01*
X13159762Y-14909286D01*
X13159762Y-14861667D01*
X13169286Y-14823571D01*
X13178809Y-14804524D01*
X13188333Y-14795000D01*
X13207381Y-14785476D01*
X13359762Y-14985476D02*
X13359762Y-14852143D01*
X13359762Y-14871190D02*
X13369286Y-14861667D01*
X13388333Y-14852143D01*
X13416905Y-14852143D01*
X13435952Y-14861667D01*
X13445476Y-14880714D01*
X13445476Y-14985476D01*
X13445476Y-14880714D02*
X13455000Y-14861667D01*
X13474048Y-14852143D01*
X13502619Y-14852143D01*
X13521667Y-14861667D01*
X13531190Y-14880714D01*
X13531190Y-14985476D01*
X13626428Y-14985476D02*
X13626428Y-14852143D01*
X13626428Y-14871190D02*
X13635952Y-14861667D01*
X13655000Y-14852143D01*
X13683571Y-14852143D01*
X13702619Y-14861667D01*
X13712143Y-14880714D01*
X13712143Y-14985476D01*
X13712143Y-14880714D02*
X13721667Y-14861667D01*
X13740714Y-14852143D01*
X13769286Y-14852143D01*
X13788333Y-14861667D01*
X13797857Y-14880714D01*
X13797857Y-14985476D01*
X14188333Y-14775952D02*
X14016905Y-15033095D01*
X14445476Y-14785476D02*
X14464524Y-14785476D01*
X14483571Y-14795000D01*
X14493095Y-14804524D01*
X14502619Y-14823571D01*
X14512143Y-14861667D01*
X14512143Y-14909286D01*
X14502619Y-14947381D01*
X14493095Y-14966428D01*
X14483571Y-14975952D01*
X14464524Y-14985476D01*
X14445476Y-14985476D01*
X14426428Y-14975952D01*
X14416905Y-14966428D01*
X14407381Y-14947381D01*
X14397857Y-14909286D01*
X14397857Y-14861667D01*
X14407381Y-14823571D01*
X14416905Y-14804524D01*
X14426428Y-14795000D01*
X14445476Y-14785476D01*
X14597857Y-14966428D02*
X14607381Y-14975952D01*
X14597857Y-14985476D01*
X14588333Y-14975952D01*
X14597857Y-14966428D01*
X14597857Y-14985476D01*
X14731190Y-14785476D02*
X14750238Y-14785476D01*
X14769286Y-14795000D01*
X14778809Y-14804524D01*
X14788333Y-14823571D01*
X14797857Y-14861667D01*
X14797857Y-14909286D01*
X14788333Y-14947381D01*
X14778809Y-14966428D01*
X14769286Y-14975952D01*
X14750238Y-14985476D01*
X14731190Y-14985476D01*
X14712143Y-14975952D01*
X14702619Y-14966428D01*
X14693095Y-14947381D01*
X14683571Y-14909286D01*
X14683571Y-14861667D01*
X14693095Y-14823571D01*
X14702619Y-14804524D01*
X14712143Y-14795000D01*
X14731190Y-14785476D01*
X14864524Y-14785476D02*
X14988333Y-14785476D01*
X14921667Y-14861667D01*
X14950238Y-14861667D01*
X14969286Y-14871190D01*
X14978809Y-14880714D01*
X14988333Y-14899762D01*
X14988333Y-14947381D01*
X14978809Y-14966428D01*
X14969286Y-14975952D01*
X14950238Y-14985476D01*
X14893095Y-14985476D01*
X14874048Y-14975952D01*
X14864524Y-14966428D01*
X15178809Y-14985476D02*
X15064524Y-14985476D01*
X15121667Y-14985476D02*
X15121667Y-14785476D01*
X15102619Y-14814048D01*
X15083571Y-14833095D01*
X15064524Y-14842619D01*
X15359762Y-14785476D02*
X15264524Y-14785476D01*
X15255000Y-14880714D01*
X15264524Y-14871190D01*
X15283571Y-14861667D01*
X15331190Y-14861667D01*
X15350238Y-14871190D01*
X15359762Y-14880714D01*
X15369286Y-14899762D01*
X15369286Y-14947381D01*
X15359762Y-14966428D01*
X15350238Y-14975952D01*
X15331190Y-14985476D01*
X15283571Y-14985476D01*
X15264524Y-14975952D01*
X15255000Y-14966428D01*
X15445476Y-14785476D02*
X15445476Y-14823571D01*
X15521667Y-14785476D02*
X15521667Y-14823571D01*
X15816905Y-15061667D02*
X15807381Y-15052143D01*
X15788333Y-15023571D01*
X15778809Y-15004524D01*
X15769286Y-14975952D01*
X15759762Y-14928333D01*
X15759762Y-14890238D01*
X15769286Y-14842619D01*
X15778809Y-14814048D01*
X15788333Y-14795000D01*
X15807381Y-14766428D01*
X15816905Y-14756905D01*
X15978809Y-14852143D02*
X15978809Y-14985476D01*
X15931190Y-14775952D02*
X15883571Y-14918809D01*
X16007381Y-14918809D01*
X16235952Y-14985476D02*
X16235952Y-14785476D01*
X16321667Y-14985476D02*
X16321667Y-14880714D01*
X16312143Y-14861667D01*
X16293095Y-14852143D01*
X16264524Y-14852143D01*
X16245476Y-14861667D01*
X16235952Y-14871190D01*
X16445476Y-14985476D02*
X16426428Y-14975952D01*
X16416905Y-14966428D01*
X16407381Y-14947381D01*
X16407381Y-14890238D01*
X16416905Y-14871190D01*
X16426428Y-14861667D01*
X16445476Y-14852143D01*
X16474048Y-14852143D01*
X16493095Y-14861667D01*
X16502619Y-14871190D01*
X16512143Y-14890238D01*
X16512143Y-14947381D01*
X16502619Y-14966428D01*
X16493095Y-14975952D01*
X16474048Y-14985476D01*
X16445476Y-14985476D01*
X16626428Y-14985476D02*
X16607381Y-14975952D01*
X16597857Y-14956905D01*
X16597857Y-14785476D01*
X16778810Y-14975952D02*
X16759762Y-14985476D01*
X16721667Y-14985476D01*
X16702619Y-14975952D01*
X16693095Y-14956905D01*
X16693095Y-14880714D01*
X16702619Y-14861667D01*
X16721667Y-14852143D01*
X16759762Y-14852143D01*
X16778810Y-14861667D01*
X16788333Y-14880714D01*
X16788333Y-14899762D01*
X16693095Y-14918809D01*
X16864524Y-14975952D02*
X16883571Y-14985476D01*
X16921667Y-14985476D01*
X16940714Y-14975952D01*
X16950238Y-14956905D01*
X16950238Y-14947381D01*
X16940714Y-14928333D01*
X16921667Y-14918809D01*
X16893095Y-14918809D01*
X16874048Y-14909286D01*
X16864524Y-14890238D01*
X16864524Y-14880714D01*
X16874048Y-14861667D01*
X16893095Y-14852143D01*
X16921667Y-14852143D01*
X16940714Y-14861667D01*
X17016905Y-15061667D02*
X17026429Y-15052143D01*
X17045476Y-15023571D01*
X17055000Y-15004524D01*
X17064524Y-14975952D01*
X17074048Y-14928333D01*
X17074048Y-14890238D01*
X17064524Y-14842619D01*
X17055000Y-14814048D01*
X17045476Y-14795000D01*
X17026429Y-14766428D01*
X17016905Y-14756905D01*
D13*
X12245000Y-15159000D02*
G75*
G03*
X12245000Y-15159000I-45000J0D01*
G01*
D11*
X12540714Y-15049476D02*
X12559762Y-15049476D01*
X12578809Y-15059000D01*
X12588333Y-15068524D01*
X12597857Y-15087571D01*
X12607381Y-15125667D01*
X12607381Y-15173286D01*
X12597857Y-15211381D01*
X12588333Y-15230428D01*
X12578809Y-15239952D01*
X12559762Y-15249476D01*
X12540714Y-15249476D01*
X12521667Y-15239952D01*
X12512143Y-15230428D01*
X12502619Y-15211381D01*
X12493095Y-15173286D01*
X12493095Y-15125667D01*
X12502619Y-15087571D01*
X12512143Y-15068524D01*
X12521667Y-15059000D01*
X12540714Y-15049476D01*
X12693095Y-15230428D02*
X12702619Y-15239952D01*
X12693095Y-15249476D01*
X12683571Y-15239952D01*
X12693095Y-15230428D01*
X12693095Y-15249476D01*
X12797857Y-15249476D02*
X12835952Y-15249476D01*
X12855000Y-15239952D01*
X12864524Y-15230428D01*
X12883571Y-15201857D01*
X12893095Y-15163762D01*
X12893095Y-15087571D01*
X12883571Y-15068524D01*
X12874048Y-15059000D01*
X12855000Y-15049476D01*
X12816905Y-15049476D01*
X12797857Y-15059000D01*
X12788333Y-15068524D01*
X12778809Y-15087571D01*
X12778809Y-15135190D01*
X12788333Y-15154238D01*
X12797857Y-15163762D01*
X12816905Y-15173286D01*
X12855000Y-15173286D01*
X12874048Y-15163762D01*
X12883571Y-15154238D01*
X12893095Y-15135190D01*
X13016905Y-15049476D02*
X13035952Y-15049476D01*
X13055000Y-15059000D01*
X13064524Y-15068524D01*
X13074048Y-15087571D01*
X13083571Y-15125667D01*
X13083571Y-15173286D01*
X13074048Y-15211381D01*
X13064524Y-15230428D01*
X13055000Y-15239952D01*
X13035952Y-15249476D01*
X13016905Y-15249476D01*
X12997857Y-15239952D01*
X12988333Y-15230428D01*
X12978809Y-15211381D01*
X12969286Y-15173286D01*
X12969286Y-15125667D01*
X12978809Y-15087571D01*
X12988333Y-15068524D01*
X12997857Y-15059000D01*
X13016905Y-15049476D01*
X13207381Y-15049476D02*
X13226428Y-15049476D01*
X13245476Y-15059000D01*
X13255000Y-15068524D01*
X13264524Y-15087571D01*
X13274048Y-15125667D01*
X13274048Y-15173286D01*
X13264524Y-15211381D01*
X13255000Y-15230428D01*
X13245476Y-15239952D01*
X13226428Y-15249476D01*
X13207381Y-15249476D01*
X13188333Y-15239952D01*
X13178809Y-15230428D01*
X13169286Y-15211381D01*
X13159762Y-15173286D01*
X13159762Y-15125667D01*
X13169286Y-15087571D01*
X13178809Y-15068524D01*
X13188333Y-15059000D01*
X13207381Y-15049476D01*
X13359762Y-15249476D02*
X13359762Y-15116143D01*
X13359762Y-15135190D02*
X13369286Y-15125667D01*
X13388333Y-15116143D01*
X13416905Y-15116143D01*
X13435952Y-15125667D01*
X13445476Y-15144714D01*
X13445476Y-15249476D01*
X13445476Y-15144714D02*
X13455000Y-15125667D01*
X13474048Y-15116143D01*
X13502619Y-15116143D01*
X13521667Y-15125667D01*
X13531190Y-15144714D01*
X13531190Y-15249476D01*
X13626428Y-15249476D02*
X13626428Y-15116143D01*
X13626428Y-15135190D02*
X13635952Y-15125667D01*
X13655000Y-15116143D01*
X13683571Y-15116143D01*
X13702619Y-15125667D01*
X13712143Y-15144714D01*
X13712143Y-15249476D01*
X13712143Y-15144714D02*
X13721667Y-15125667D01*
X13740714Y-15116143D01*
X13769286Y-15116143D01*
X13788333Y-15125667D01*
X13797857Y-15144714D01*
X13797857Y-15249476D01*
X14188333Y-15039952D02*
X14016905Y-15297095D01*
X14445476Y-15049476D02*
X14464524Y-15049476D01*
X14483571Y-15059000D01*
X14493095Y-15068524D01*
X14502619Y-15087571D01*
X14512143Y-15125667D01*
X14512143Y-15173286D01*
X14502619Y-15211381D01*
X14493095Y-15230428D01*
X14483571Y-15239952D01*
X14464524Y-15249476D01*
X14445476Y-15249476D01*
X14426428Y-15239952D01*
X14416905Y-15230428D01*
X14407381Y-15211381D01*
X14397857Y-15173286D01*
X14397857Y-15125667D01*
X14407381Y-15087571D01*
X14416905Y-15068524D01*
X14426428Y-15059000D01*
X14445476Y-15049476D01*
X14597857Y-15230428D02*
X14607381Y-15239952D01*
X14597857Y-15249476D01*
X14588333Y-15239952D01*
X14597857Y-15230428D01*
X14597857Y-15249476D01*
X14731190Y-15049476D02*
X14750238Y-15049476D01*
X14769286Y-15059000D01*
X14778809Y-15068524D01*
X14788333Y-15087571D01*
X14797857Y-15125667D01*
X14797857Y-15173286D01*
X14788333Y-15211381D01*
X14778809Y-15230428D01*
X14769286Y-15239952D01*
X14750238Y-15249476D01*
X14731190Y-15249476D01*
X14712143Y-15239952D01*
X14702619Y-15230428D01*
X14693095Y-15211381D01*
X14683571Y-15173286D01*
X14683571Y-15125667D01*
X14693095Y-15087571D01*
X14702619Y-15068524D01*
X14712143Y-15059000D01*
X14731190Y-15049476D01*
X14864524Y-15049476D02*
X14988333Y-15049476D01*
X14921667Y-15125667D01*
X14950238Y-15125667D01*
X14969286Y-15135190D01*
X14978809Y-15144714D01*
X14988333Y-15163762D01*
X14988333Y-15211381D01*
X14978809Y-15230428D01*
X14969286Y-15239952D01*
X14950238Y-15249476D01*
X14893095Y-15249476D01*
X14874048Y-15239952D01*
X14864524Y-15230428D01*
X15169286Y-15049476D02*
X15074048Y-15049476D01*
X15064524Y-15144714D01*
X15074048Y-15135190D01*
X15093095Y-15125667D01*
X15140714Y-15125667D01*
X15159762Y-15135190D01*
X15169286Y-15144714D01*
X15178809Y-15163762D01*
X15178809Y-15211381D01*
X15169286Y-15230428D01*
X15159762Y-15239952D01*
X15140714Y-15249476D01*
X15093095Y-15249476D01*
X15074048Y-15239952D01*
X15064524Y-15230428D01*
X15350238Y-15116143D02*
X15350238Y-15249476D01*
X15302619Y-15039952D02*
X15255000Y-15182809D01*
X15378809Y-15182809D01*
X15445476Y-15049476D02*
X15445476Y-15087571D01*
X15521667Y-15049476D02*
X15521667Y-15087571D01*
X15816905Y-15325667D02*
X15807381Y-15316143D01*
X15788333Y-15287571D01*
X15778809Y-15268524D01*
X15769286Y-15239952D01*
X15759762Y-15192333D01*
X15759762Y-15154238D01*
X15769286Y-15106619D01*
X15778809Y-15078048D01*
X15788333Y-15059000D01*
X15807381Y-15030428D01*
X15816905Y-15020905D01*
X15978809Y-15116143D02*
X15978809Y-15249476D01*
X15931190Y-15039952D02*
X15883571Y-15182809D01*
X16007381Y-15182809D01*
X16235952Y-15249476D02*
X16235952Y-15049476D01*
X16321667Y-15249476D02*
X16321667Y-15144714D01*
X16312143Y-15125667D01*
X16293095Y-15116143D01*
X16264524Y-15116143D01*
X16245476Y-15125667D01*
X16235952Y-15135190D01*
X16445476Y-15249476D02*
X16426428Y-15239952D01*
X16416905Y-15230428D01*
X16407381Y-15211381D01*
X16407381Y-15154238D01*
X16416905Y-15135190D01*
X16426428Y-15125667D01*
X16445476Y-15116143D01*
X16474048Y-15116143D01*
X16493095Y-15125667D01*
X16502619Y-15135190D01*
X16512143Y-15154238D01*
X16512143Y-15211381D01*
X16502619Y-15230428D01*
X16493095Y-15239952D01*
X16474048Y-15249476D01*
X16445476Y-15249476D01*
X16626428Y-15249476D02*
X16607381Y-15239952D01*
X16597857Y-15220905D01*
X16597857Y-15049476D01*
X16778810Y-15239952D02*
X16759762Y-15249476D01*
X16721667Y-15249476D01*
X16702619Y-15239952D01*
X16693095Y-15220905D01*
X16693095Y-15144714D01*
X16702619Y-15125667D01*
X16721667Y-15116143D01*
X16759762Y-15116143D01*
X16778810Y-15125667D01*
X16788333Y-15144714D01*
X16788333Y-15163762D01*
X16693095Y-15182809D01*
X16864524Y-15239952D02*
X16883571Y-15249476D01*
X16921667Y-15249476D01*
X16940714Y-15239952D01*
X16950238Y-15220905D01*
X16950238Y-15211381D01*
X16940714Y-15192333D01*
X16921667Y-15182809D01*
X16893095Y-15182809D01*
X16874048Y-15173286D01*
X16864524Y-15154238D01*
X16864524Y-15144714D01*
X16874048Y-15125667D01*
X16893095Y-15116143D01*
X16921667Y-15116143D01*
X16940714Y-15125667D01*
X17016905Y-15325667D02*
X17026429Y-15316143D01*
X17045476Y-15287571D01*
X17055000Y-15268524D01*
X17064524Y-15239952D01*
X17074048Y-15192333D01*
X17074048Y-15154238D01*
X17064524Y-15106619D01*
X17055000Y-15078048D01*
X17045476Y-15059000D01*
X17026429Y-15030428D01*
X17016905Y-15020905D01*
D10*
X12195000Y-15373000D02*
X12195000Y-15473000D01*
X12145000Y-15423000D02*
X12245000Y-15423000D01*
D11*
X12607381Y-15513476D02*
X12493095Y-15513476D01*
X12550238Y-15513476D02*
X12550238Y-15313476D01*
X12531190Y-15342048D01*
X12512143Y-15361095D01*
X12493095Y-15370619D01*
X12693095Y-15494428D02*
X12702619Y-15503952D01*
X12693095Y-15513476D01*
X12683571Y-15503952D01*
X12693095Y-15494428D01*
X12693095Y-15513476D01*
X12826428Y-15313476D02*
X12845476Y-15313476D01*
X12864524Y-15323000D01*
X12874048Y-15332524D01*
X12883571Y-15351571D01*
X12893095Y-15389667D01*
X12893095Y-15437286D01*
X12883571Y-15475381D01*
X12874048Y-15494428D01*
X12864524Y-15503952D01*
X12845476Y-15513476D01*
X12826428Y-15513476D01*
X12807381Y-15503952D01*
X12797857Y-15494428D01*
X12788333Y-15475381D01*
X12778809Y-15437286D01*
X12778809Y-15389667D01*
X12788333Y-15351571D01*
X12797857Y-15332524D01*
X12807381Y-15323000D01*
X12826428Y-15313476D01*
X13016905Y-15313476D02*
X13035952Y-15313476D01*
X13055000Y-15323000D01*
X13064524Y-15332524D01*
X13074048Y-15351571D01*
X13083571Y-15389667D01*
X13083571Y-15437286D01*
X13074048Y-15475381D01*
X13064524Y-15494428D01*
X13055000Y-15503952D01*
X13035952Y-15513476D01*
X13016905Y-15513476D01*
X12997857Y-15503952D01*
X12988333Y-15494428D01*
X12978809Y-15475381D01*
X12969286Y-15437286D01*
X12969286Y-15389667D01*
X12978809Y-15351571D01*
X12988333Y-15332524D01*
X12997857Y-15323000D01*
X13016905Y-15313476D01*
X13207381Y-15313476D02*
X13226428Y-15313476D01*
X13245476Y-15323000D01*
X13255000Y-15332524D01*
X13264524Y-15351571D01*
X13274048Y-15389667D01*
X13274048Y-15437286D01*
X13264524Y-15475381D01*
X13255000Y-15494428D01*
X13245476Y-15503952D01*
X13226428Y-15513476D01*
X13207381Y-15513476D01*
X13188333Y-15503952D01*
X13178809Y-15494428D01*
X13169286Y-15475381D01*
X13159762Y-15437286D01*
X13159762Y-15389667D01*
X13169286Y-15351571D01*
X13178809Y-15332524D01*
X13188333Y-15323000D01*
X13207381Y-15313476D01*
X13359762Y-15513476D02*
X13359762Y-15380143D01*
X13359762Y-15399190D02*
X13369286Y-15389667D01*
X13388333Y-15380143D01*
X13416905Y-15380143D01*
X13435952Y-15389667D01*
X13445476Y-15408714D01*
X13445476Y-15513476D01*
X13445476Y-15408714D02*
X13455000Y-15389667D01*
X13474048Y-15380143D01*
X13502619Y-15380143D01*
X13521667Y-15389667D01*
X13531190Y-15408714D01*
X13531190Y-15513476D01*
X13626428Y-15513476D02*
X13626428Y-15380143D01*
X13626428Y-15399190D02*
X13635952Y-15389667D01*
X13655000Y-15380143D01*
X13683571Y-15380143D01*
X13702619Y-15389667D01*
X13712143Y-15408714D01*
X13712143Y-15513476D01*
X13712143Y-15408714D02*
X13721667Y-15389667D01*
X13740714Y-15380143D01*
X13769286Y-15380143D01*
X13788333Y-15389667D01*
X13797857Y-15408714D01*
X13797857Y-15513476D01*
X14188333Y-15303952D02*
X14016905Y-15561095D01*
X14445476Y-15313476D02*
X14464524Y-15313476D01*
X14483571Y-15323000D01*
X14493095Y-15332524D01*
X14502619Y-15351571D01*
X14512143Y-15389667D01*
X14512143Y-15437286D01*
X14502619Y-15475381D01*
X14493095Y-15494428D01*
X14483571Y-15503952D01*
X14464524Y-15513476D01*
X14445476Y-15513476D01*
X14426428Y-15503952D01*
X14416905Y-15494428D01*
X14407381Y-15475381D01*
X14397857Y-15437286D01*
X14397857Y-15389667D01*
X14407381Y-15351571D01*
X14416905Y-15332524D01*
X14426428Y-15323000D01*
X14445476Y-15313476D01*
X14597857Y-15494428D02*
X14607381Y-15503952D01*
X14597857Y-15513476D01*
X14588333Y-15503952D01*
X14597857Y-15494428D01*
X14597857Y-15513476D01*
X14731190Y-15313476D02*
X14750238Y-15313476D01*
X14769286Y-15323000D01*
X14778809Y-15332524D01*
X14788333Y-15351571D01*
X14797857Y-15389667D01*
X14797857Y-15437286D01*
X14788333Y-15475381D01*
X14778809Y-15494428D01*
X14769286Y-15503952D01*
X14750238Y-15513476D01*
X14731190Y-15513476D01*
X14712143Y-15503952D01*
X14702619Y-15494428D01*
X14693095Y-15475381D01*
X14683571Y-15437286D01*
X14683571Y-15389667D01*
X14693095Y-15351571D01*
X14702619Y-15332524D01*
X14712143Y-15323000D01*
X14731190Y-15313476D01*
X14864524Y-15313476D02*
X14988333Y-15313476D01*
X14921667Y-15389667D01*
X14950238Y-15389667D01*
X14969286Y-15399190D01*
X14978809Y-15408714D01*
X14988333Y-15427762D01*
X14988333Y-15475381D01*
X14978809Y-15494428D01*
X14969286Y-15503952D01*
X14950238Y-15513476D01*
X14893095Y-15513476D01*
X14874048Y-15503952D01*
X14864524Y-15494428D01*
X15083571Y-15513476D02*
X15121667Y-15513476D01*
X15140714Y-15503952D01*
X15150238Y-15494428D01*
X15169286Y-15465857D01*
X15178809Y-15427762D01*
X15178809Y-15351571D01*
X15169286Y-15332524D01*
X15159762Y-15323000D01*
X15140714Y-15313476D01*
X15102619Y-15313476D01*
X15083571Y-15323000D01*
X15074048Y-15332524D01*
X15064524Y-15351571D01*
X15064524Y-15399190D01*
X15074048Y-15418238D01*
X15083571Y-15427762D01*
X15102619Y-15437286D01*
X15140714Y-15437286D01*
X15159762Y-15427762D01*
X15169286Y-15418238D01*
X15178809Y-15399190D01*
X15350238Y-15380143D02*
X15350238Y-15513476D01*
X15302619Y-15303952D02*
X15255000Y-15446809D01*
X15378809Y-15446809D01*
X15445476Y-15313476D02*
X15445476Y-15351571D01*
X15521667Y-15313476D02*
X15521667Y-15351571D01*
X15816905Y-15589667D02*
X15807381Y-15580143D01*
X15788333Y-15551571D01*
X15778809Y-15532524D01*
X15769286Y-15503952D01*
X15759762Y-15456333D01*
X15759762Y-15418238D01*
X15769286Y-15370619D01*
X15778809Y-15342048D01*
X15788333Y-15323000D01*
X15807381Y-15294428D01*
X15816905Y-15284905D01*
X15988333Y-15313476D02*
X15893095Y-15313476D01*
X15883571Y-15408714D01*
X15893095Y-15399190D01*
X15912143Y-15389667D01*
X15959762Y-15389667D01*
X15978809Y-15399190D01*
X15988333Y-15408714D01*
X15997857Y-15427762D01*
X15997857Y-15475381D01*
X15988333Y-15494428D01*
X15978809Y-15503952D01*
X15959762Y-15513476D01*
X15912143Y-15513476D01*
X15893095Y-15503952D01*
X15883571Y-15494428D01*
X16178809Y-15313476D02*
X16083571Y-15313476D01*
X16074048Y-15408714D01*
X16083571Y-15399190D01*
X16102619Y-15389667D01*
X16150238Y-15389667D01*
X16169286Y-15399190D01*
X16178809Y-15408714D01*
X16188333Y-15427762D01*
X16188333Y-15475381D01*
X16178809Y-15494428D01*
X16169286Y-15503952D01*
X16150238Y-15513476D01*
X16102619Y-15513476D01*
X16083571Y-15503952D01*
X16074048Y-15494428D01*
X16426428Y-15513476D02*
X16426428Y-15313476D01*
X16512143Y-15513476D02*
X16512143Y-15408714D01*
X16502619Y-15389667D01*
X16483571Y-15380143D01*
X16455000Y-15380143D01*
X16435952Y-15389667D01*
X16426428Y-15399190D01*
X16635952Y-15513476D02*
X16616905Y-15503952D01*
X16607381Y-15494428D01*
X16597857Y-15475381D01*
X16597857Y-15418238D01*
X16607381Y-15399190D01*
X16616905Y-15389667D01*
X16635952Y-15380143D01*
X16664524Y-15380143D01*
X16683571Y-15389667D01*
X16693095Y-15399190D01*
X16702619Y-15418238D01*
X16702619Y-15475381D01*
X16693095Y-15494428D01*
X16683571Y-15503952D01*
X16664524Y-15513476D01*
X16635952Y-15513476D01*
X16816905Y-15513476D02*
X16797857Y-15503952D01*
X16788333Y-15484905D01*
X16788333Y-15313476D01*
X16969286Y-15503952D02*
X16950238Y-15513476D01*
X16912143Y-15513476D01*
X16893095Y-15503952D01*
X16883571Y-15484905D01*
X16883571Y-15408714D01*
X16893095Y-15389667D01*
X16912143Y-15380143D01*
X16950238Y-15380143D01*
X16969286Y-15389667D01*
X16978810Y-15408714D01*
X16978810Y-15427762D01*
X16883571Y-15446809D01*
X17055000Y-15503952D02*
X17074048Y-15513476D01*
X17112143Y-15513476D01*
X17131190Y-15503952D01*
X17140714Y-15484905D01*
X17140714Y-15475381D01*
X17131190Y-15456333D01*
X17112143Y-15446809D01*
X17083571Y-15446809D01*
X17064524Y-15437286D01*
X17055000Y-15418238D01*
X17055000Y-15408714D01*
X17064524Y-15389667D01*
X17083571Y-15380143D01*
X17112143Y-15380143D01*
X17131190Y-15389667D01*
X17207381Y-15589667D02*
X17216905Y-15580143D01*
X17235952Y-15551571D01*
X17245476Y-15532524D01*
X17255000Y-15503952D01*
X17264524Y-15456333D01*
X17264524Y-15418238D01*
X17255000Y-15370619D01*
X17245476Y-15342048D01*
X17235952Y-15323000D01*
X17216905Y-15294428D01*
X17207381Y-15284905D01*
D14*
X12225669Y-15733669D02*
X12225669Y-15640330D01*
X12132330Y-15640330D01*
X12132330Y-15733669D01*
X12225669Y-15733669D01*
D11*
X12607381Y-15777476D02*
X12493095Y-15777476D01*
X12550238Y-15777476D02*
X12550238Y-15577476D01*
X12531190Y-15606048D01*
X12512143Y-15625095D01*
X12493095Y-15634619D01*
X12693095Y-15758428D02*
X12702619Y-15767952D01*
X12693095Y-15777476D01*
X12683571Y-15767952D01*
X12693095Y-15758428D01*
X12693095Y-15777476D01*
X12769286Y-15577476D02*
X12893095Y-15577476D01*
X12826428Y-15653667D01*
X12855000Y-15653667D01*
X12874048Y-15663190D01*
X12883571Y-15672714D01*
X12893095Y-15691762D01*
X12893095Y-15739381D01*
X12883571Y-15758428D01*
X12874048Y-15767952D01*
X12855000Y-15777476D01*
X12797857Y-15777476D01*
X12778809Y-15767952D01*
X12769286Y-15758428D01*
X12969286Y-15596524D02*
X12978809Y-15587000D01*
X12997857Y-15577476D01*
X13045476Y-15577476D01*
X13064524Y-15587000D01*
X13074048Y-15596524D01*
X13083571Y-15615571D01*
X13083571Y-15634619D01*
X13074048Y-15663190D01*
X12959762Y-15777476D01*
X13083571Y-15777476D01*
X13207381Y-15577476D02*
X13226428Y-15577476D01*
X13245476Y-15587000D01*
X13255000Y-15596524D01*
X13264524Y-15615571D01*
X13274048Y-15653667D01*
X13274048Y-15701286D01*
X13264524Y-15739381D01*
X13255000Y-15758428D01*
X13245476Y-15767952D01*
X13226428Y-15777476D01*
X13207381Y-15777476D01*
X13188333Y-15767952D01*
X13178809Y-15758428D01*
X13169286Y-15739381D01*
X13159762Y-15701286D01*
X13159762Y-15653667D01*
X13169286Y-15615571D01*
X13178809Y-15596524D01*
X13188333Y-15587000D01*
X13207381Y-15577476D01*
X13359762Y-15777476D02*
X13359762Y-15644143D01*
X13359762Y-15663190D02*
X13369286Y-15653667D01*
X13388333Y-15644143D01*
X13416905Y-15644143D01*
X13435952Y-15653667D01*
X13445476Y-15672714D01*
X13445476Y-15777476D01*
X13445476Y-15672714D02*
X13455000Y-15653667D01*
X13474048Y-15644143D01*
X13502619Y-15644143D01*
X13521667Y-15653667D01*
X13531190Y-15672714D01*
X13531190Y-15777476D01*
X13626428Y-15777476D02*
X13626428Y-15644143D01*
X13626428Y-15663190D02*
X13635952Y-15653667D01*
X13655000Y-15644143D01*
X13683571Y-15644143D01*
X13702619Y-15653667D01*
X13712143Y-15672714D01*
X13712143Y-15777476D01*
X13712143Y-15672714D02*
X13721667Y-15653667D01*
X13740714Y-15644143D01*
X13769286Y-15644143D01*
X13788333Y-15653667D01*
X13797857Y-15672714D01*
X13797857Y-15777476D01*
X14188333Y-15567952D02*
X14016905Y-15825095D01*
X14445476Y-15577476D02*
X14464524Y-15577476D01*
X14483571Y-15587000D01*
X14493095Y-15596524D01*
X14502619Y-15615571D01*
X14512143Y-15653667D01*
X14512143Y-15701286D01*
X14502619Y-15739381D01*
X14493095Y-15758428D01*
X14483571Y-15767952D01*
X14464524Y-15777476D01*
X14445476Y-15777476D01*
X14426428Y-15767952D01*
X14416905Y-15758428D01*
X14407381Y-15739381D01*
X14397857Y-15701286D01*
X14397857Y-15653667D01*
X14407381Y-15615571D01*
X14416905Y-15596524D01*
X14426428Y-15587000D01*
X14445476Y-15577476D01*
X14597857Y-15758428D02*
X14607381Y-15767952D01*
X14597857Y-15777476D01*
X14588333Y-15767952D01*
X14597857Y-15758428D01*
X14597857Y-15777476D01*
X14731190Y-15577476D02*
X14750238Y-15577476D01*
X14769286Y-15587000D01*
X14778809Y-15596524D01*
X14788333Y-15615571D01*
X14797857Y-15653667D01*
X14797857Y-15701286D01*
X14788333Y-15739381D01*
X14778809Y-15758428D01*
X14769286Y-15767952D01*
X14750238Y-15777476D01*
X14731190Y-15777476D01*
X14712143Y-15767952D01*
X14702619Y-15758428D01*
X14693095Y-15739381D01*
X14683571Y-15701286D01*
X14683571Y-15653667D01*
X14693095Y-15615571D01*
X14702619Y-15596524D01*
X14712143Y-15587000D01*
X14731190Y-15577476D01*
X14978809Y-15577476D02*
X14883571Y-15577476D01*
X14874048Y-15672714D01*
X14883571Y-15663190D01*
X14902619Y-15653667D01*
X14950238Y-15653667D01*
X14969286Y-15663190D01*
X14978809Y-15672714D01*
X14988333Y-15691762D01*
X14988333Y-15739381D01*
X14978809Y-15758428D01*
X14969286Y-15767952D01*
X14950238Y-15777476D01*
X14902619Y-15777476D01*
X14883571Y-15767952D01*
X14874048Y-15758428D01*
X15064524Y-15596524D02*
X15074048Y-15587000D01*
X15093095Y-15577476D01*
X15140714Y-15577476D01*
X15159762Y-15587000D01*
X15169286Y-15596524D01*
X15178809Y-15615571D01*
X15178809Y-15634619D01*
X15169286Y-15663190D01*
X15055000Y-15777476D01*
X15178809Y-15777476D01*
X15302619Y-15577476D02*
X15321667Y-15577476D01*
X15340714Y-15587000D01*
X15350238Y-15596524D01*
X15359762Y-15615571D01*
X15369286Y-15653667D01*
X15369286Y-15701286D01*
X15359762Y-15739381D01*
X15350238Y-15758428D01*
X15340714Y-15767952D01*
X15321667Y-15777476D01*
X15302619Y-15777476D01*
X15283571Y-15767952D01*
X15274048Y-15758428D01*
X15264524Y-15739381D01*
X15255000Y-15701286D01*
X15255000Y-15653667D01*
X15264524Y-15615571D01*
X15274048Y-15596524D01*
X15283571Y-15587000D01*
X15302619Y-15577476D01*
X15445476Y-15577476D02*
X15445476Y-15615571D01*
X15521667Y-15577476D02*
X15521667Y-15615571D01*
X15816905Y-15853667D02*
X15807381Y-15844143D01*
X15788333Y-15815571D01*
X15778809Y-15796524D01*
X15769286Y-15767952D01*
X15759762Y-15720333D01*
X15759762Y-15682238D01*
X15769286Y-15634619D01*
X15778809Y-15606048D01*
X15788333Y-15587000D01*
X15807381Y-15558428D01*
X15816905Y-15548905D01*
X15988333Y-15577476D02*
X15893095Y-15577476D01*
X15883571Y-15672714D01*
X15893095Y-15663190D01*
X15912143Y-15653667D01*
X15959762Y-15653667D01*
X15978809Y-15663190D01*
X15988333Y-15672714D01*
X15997857Y-15691762D01*
X15997857Y-15739381D01*
X15988333Y-15758428D01*
X15978809Y-15767952D01*
X15959762Y-15777476D01*
X15912143Y-15777476D01*
X15893095Y-15767952D01*
X15883571Y-15758428D01*
X16235952Y-15777476D02*
X16235952Y-15577476D01*
X16321667Y-15777476D02*
X16321667Y-15672714D01*
X16312143Y-15653667D01*
X16293095Y-15644143D01*
X16264524Y-15644143D01*
X16245476Y-15653667D01*
X16235952Y-15663190D01*
X16445476Y-15777476D02*
X16426428Y-15767952D01*
X16416905Y-15758428D01*
X16407381Y-15739381D01*
X16407381Y-15682238D01*
X16416905Y-15663190D01*
X16426428Y-15653667D01*
X16445476Y-15644143D01*
X16474048Y-15644143D01*
X16493095Y-15653667D01*
X16502619Y-15663190D01*
X16512143Y-15682238D01*
X16512143Y-15739381D01*
X16502619Y-15758428D01*
X16493095Y-15767952D01*
X16474048Y-15777476D01*
X16445476Y-15777476D01*
X16626428Y-15777476D02*
X16607381Y-15767952D01*
X16597857Y-15748905D01*
X16597857Y-15577476D01*
X16778810Y-15767952D02*
X16759762Y-15777476D01*
X16721667Y-15777476D01*
X16702619Y-15767952D01*
X16693095Y-15748905D01*
X16693095Y-15672714D01*
X16702619Y-15653667D01*
X16721667Y-15644143D01*
X16759762Y-15644143D01*
X16778810Y-15653667D01*
X16788333Y-15672714D01*
X16788333Y-15691762D01*
X16693095Y-15710809D01*
X16864524Y-15767952D02*
X16883571Y-15777476D01*
X16921667Y-15777476D01*
X16940714Y-15767952D01*
X16950238Y-15748905D01*
X16950238Y-15739381D01*
X16940714Y-15720333D01*
X16921667Y-15710809D01*
X16893095Y-15710809D01*
X16874048Y-15701286D01*
X16864524Y-15682238D01*
X16864524Y-15672714D01*
X16874048Y-15653667D01*
X16893095Y-15644143D01*
X16921667Y-15644143D01*
X16940714Y-15653667D01*
X17016905Y-15853667D02*
X17026429Y-15844143D01*
X17045476Y-15815571D01*
X17055000Y-15796524D01*
X17064524Y-15767952D01*
X17074048Y-15720333D01*
X17074048Y-15682238D01*
X17064524Y-15634619D01*
X17055000Y-15606048D01*
X17045476Y-15587000D01*
X17026429Y-15558428D01*
X17016905Y-15548905D01*
D15*
X12169600Y-16026400D02*
X12245000Y-15951000D01*
X12169600Y-15875600D01*
X12094200Y-15951000D01*
X12169600Y-16026400D01*
D11*
X12607381Y-16041476D02*
X12493095Y-16041476D01*
X12550238Y-16041476D02*
X12550238Y-15841476D01*
X12531190Y-15870048D01*
X12512143Y-15889095D01*
X12493095Y-15898619D01*
X12693095Y-16022428D02*
X12702619Y-16031952D01*
X12693095Y-16041476D01*
X12683571Y-16031952D01*
X12693095Y-16022428D01*
X12693095Y-16041476D01*
X12883571Y-15841476D02*
X12788333Y-15841476D01*
X12778809Y-15936714D01*
X12788333Y-15927190D01*
X12807381Y-15917667D01*
X12855000Y-15917667D01*
X12874048Y-15927190D01*
X12883571Y-15936714D01*
X12893095Y-15955762D01*
X12893095Y-16003381D01*
X12883571Y-16022428D01*
X12874048Y-16031952D01*
X12855000Y-16041476D01*
X12807381Y-16041476D01*
X12788333Y-16031952D01*
X12778809Y-16022428D01*
X13016905Y-15841476D02*
X13035952Y-15841476D01*
X13055000Y-15851000D01*
X13064524Y-15860524D01*
X13074048Y-15879571D01*
X13083571Y-15917667D01*
X13083571Y-15965286D01*
X13074048Y-16003381D01*
X13064524Y-16022428D01*
X13055000Y-16031952D01*
X13035952Y-16041476D01*
X13016905Y-16041476D01*
X12997857Y-16031952D01*
X12988333Y-16022428D01*
X12978809Y-16003381D01*
X12969286Y-15965286D01*
X12969286Y-15917667D01*
X12978809Y-15879571D01*
X12988333Y-15860524D01*
X12997857Y-15851000D01*
X13016905Y-15841476D01*
X13197857Y-15927190D02*
X13178809Y-15917667D01*
X13169286Y-15908143D01*
X13159762Y-15889095D01*
X13159762Y-15879571D01*
X13169286Y-15860524D01*
X13178809Y-15851000D01*
X13197857Y-15841476D01*
X13235952Y-15841476D01*
X13255000Y-15851000D01*
X13264524Y-15860524D01*
X13274048Y-15879571D01*
X13274048Y-15889095D01*
X13264524Y-15908143D01*
X13255000Y-15917667D01*
X13235952Y-15927190D01*
X13197857Y-15927190D01*
X13178809Y-15936714D01*
X13169286Y-15946238D01*
X13159762Y-15965286D01*
X13159762Y-16003381D01*
X13169286Y-16022428D01*
X13178809Y-16031952D01*
X13197857Y-16041476D01*
X13235952Y-16041476D01*
X13255000Y-16031952D01*
X13264524Y-16022428D01*
X13274048Y-16003381D01*
X13274048Y-15965286D01*
X13264524Y-15946238D01*
X13255000Y-15936714D01*
X13235952Y-15927190D01*
X13359762Y-16041476D02*
X13359762Y-15908143D01*
X13359762Y-15927190D02*
X13369286Y-15917667D01*
X13388333Y-15908143D01*
X13416905Y-15908143D01*
X13435952Y-15917667D01*
X13445476Y-15936714D01*
X13445476Y-16041476D01*
X13445476Y-15936714D02*
X13455000Y-15917667D01*
X13474048Y-15908143D01*
X13502619Y-15908143D01*
X13521667Y-15917667D01*
X13531190Y-15936714D01*
X13531190Y-16041476D01*
X13626428Y-16041476D02*
X13626428Y-15908143D01*
X13626428Y-15927190D02*
X13635952Y-15917667D01*
X13655000Y-15908143D01*
X13683571Y-15908143D01*
X13702619Y-15917667D01*
X13712143Y-15936714D01*
X13712143Y-16041476D01*
X13712143Y-15936714D02*
X13721667Y-15917667D01*
X13740714Y-15908143D01*
X13769286Y-15908143D01*
X13788333Y-15917667D01*
X13797857Y-15936714D01*
X13797857Y-16041476D01*
X14188333Y-15831952D02*
X14016905Y-16089095D01*
X14445476Y-15841476D02*
X14464524Y-15841476D01*
X14483571Y-15851000D01*
X14493095Y-15860524D01*
X14502619Y-15879571D01*
X14512143Y-15917667D01*
X14512143Y-15965286D01*
X14502619Y-16003381D01*
X14493095Y-16022428D01*
X14483571Y-16031952D01*
X14464524Y-16041476D01*
X14445476Y-16041476D01*
X14426428Y-16031952D01*
X14416905Y-16022428D01*
X14407381Y-16003381D01*
X14397857Y-15965286D01*
X14397857Y-15917667D01*
X14407381Y-15879571D01*
X14416905Y-15860524D01*
X14426428Y-15851000D01*
X14445476Y-15841476D01*
X14597857Y-16022428D02*
X14607381Y-16031952D01*
X14597857Y-16041476D01*
X14588333Y-16031952D01*
X14597857Y-16022428D01*
X14597857Y-16041476D01*
X14731190Y-15841476D02*
X14750238Y-15841476D01*
X14769286Y-15851000D01*
X14778809Y-15860524D01*
X14788333Y-15879571D01*
X14797857Y-15917667D01*
X14797857Y-15965286D01*
X14788333Y-16003381D01*
X14778809Y-16022428D01*
X14769286Y-16031952D01*
X14750238Y-16041476D01*
X14731190Y-16041476D01*
X14712143Y-16031952D01*
X14702619Y-16022428D01*
X14693095Y-16003381D01*
X14683571Y-15965286D01*
X14683571Y-15917667D01*
X14693095Y-15879571D01*
X14702619Y-15860524D01*
X14712143Y-15851000D01*
X14731190Y-15841476D01*
X14978809Y-15841476D02*
X14883571Y-15841476D01*
X14874048Y-15936714D01*
X14883571Y-15927190D01*
X14902619Y-15917667D01*
X14950238Y-15917667D01*
X14969286Y-15927190D01*
X14978809Y-15936714D01*
X14988333Y-15955762D01*
X14988333Y-16003381D01*
X14978809Y-16022428D01*
X14969286Y-16031952D01*
X14950238Y-16041476D01*
X14902619Y-16041476D01*
X14883571Y-16031952D01*
X14874048Y-16022428D01*
X15083571Y-16041476D02*
X15121667Y-16041476D01*
X15140714Y-16031952D01*
X15150238Y-16022428D01*
X15169286Y-15993857D01*
X15178809Y-15955762D01*
X15178809Y-15879571D01*
X15169286Y-15860524D01*
X15159762Y-15851000D01*
X15140714Y-15841476D01*
X15102619Y-15841476D01*
X15083571Y-15851000D01*
X15074048Y-15860524D01*
X15064524Y-15879571D01*
X15064524Y-15927190D01*
X15074048Y-15946238D01*
X15083571Y-15955762D01*
X15102619Y-15965286D01*
X15140714Y-15965286D01*
X15159762Y-15955762D01*
X15169286Y-15946238D01*
X15178809Y-15927190D01*
X15350238Y-15908143D02*
X15350238Y-16041476D01*
X15302619Y-15831952D02*
X15255000Y-15974809D01*
X15378809Y-15974809D01*
X15445476Y-15841476D02*
X15445476Y-15879571D01*
X15521667Y-15841476D02*
X15521667Y-15879571D01*
X15816905Y-16117667D02*
X15807381Y-16108143D01*
X15788333Y-16079571D01*
X15778809Y-16060524D01*
X15769286Y-16031952D01*
X15759762Y-15984333D01*
X15759762Y-15946238D01*
X15769286Y-15898619D01*
X15778809Y-15870048D01*
X15788333Y-15851000D01*
X15807381Y-15822428D01*
X15816905Y-15812905D01*
X15978809Y-15908143D02*
X15978809Y-16041476D01*
X15931190Y-15831952D02*
X15883571Y-15974809D01*
X16007381Y-15974809D01*
X16235952Y-16041476D02*
X16235952Y-15841476D01*
X16321667Y-16041476D02*
X16321667Y-15936714D01*
X16312143Y-15917667D01*
X16293095Y-15908143D01*
X16264524Y-15908143D01*
X16245476Y-15917667D01*
X16235952Y-15927190D01*
X16445476Y-16041476D02*
X16426428Y-16031952D01*
X16416905Y-16022428D01*
X16407381Y-16003381D01*
X16407381Y-15946238D01*
X16416905Y-15927190D01*
X16426428Y-15917667D01*
X16445476Y-15908143D01*
X16474048Y-15908143D01*
X16493095Y-15917667D01*
X16502619Y-15927190D01*
X16512143Y-15946238D01*
X16512143Y-16003381D01*
X16502619Y-16022428D01*
X16493095Y-16031952D01*
X16474048Y-16041476D01*
X16445476Y-16041476D01*
X16626428Y-16041476D02*
X16607381Y-16031952D01*
X16597857Y-16012905D01*
X16597857Y-15841476D01*
X16778810Y-16031952D02*
X16759762Y-16041476D01*
X16721667Y-16041476D01*
X16702619Y-16031952D01*
X16693095Y-16012905D01*
X16693095Y-15936714D01*
X16702619Y-15917667D01*
X16721667Y-15908143D01*
X16759762Y-15908143D01*
X16778810Y-15917667D01*
X16788333Y-15936714D01*
X16788333Y-15955762D01*
X16693095Y-15974809D01*
X16864524Y-16031952D02*
X16883571Y-16041476D01*
X16921667Y-16041476D01*
X16940714Y-16031952D01*
X16950238Y-16012905D01*
X16950238Y-16003381D01*
X16940714Y-15984333D01*
X16921667Y-15974809D01*
X16893095Y-15974809D01*
X16874048Y-15965286D01*
X16864524Y-15946238D01*
X16864524Y-15936714D01*
X16874048Y-15917667D01*
X16893095Y-15908143D01*
X16921667Y-15908143D01*
X16940714Y-15917667D01*
X17016905Y-16117667D02*
X17026429Y-16108143D01*
X17045476Y-16079571D01*
X17055000Y-16060524D01*
X17064524Y-16031952D01*
X17074048Y-15984333D01*
X17074048Y-15946238D01*
X17064524Y-15898619D01*
X17055000Y-15870048D01*
X17045476Y-15851000D01*
X17026429Y-15822428D01*
X17016905Y-15812905D01*
X12045000Y-16121800D02*
X12245000Y-16321800D01*
X12245000Y-16121800D02*
X12045000Y-16321800D01*
X12245000Y-16221800D02*
G75*
G03*
X12245000Y-16221800I-100000J0D01*
G01*
X12483571Y-16112276D02*
X12607381Y-16112276D01*
X12540714Y-16188467D01*
X12569286Y-16188467D01*
X12588333Y-16197990D01*
X12597857Y-16207514D01*
X12607381Y-16226562D01*
X12607381Y-16274181D01*
X12597857Y-16293228D01*
X12588333Y-16302752D01*
X12569286Y-16312276D01*
X12512143Y-16312276D01*
X12493095Y-16302752D01*
X12483571Y-16293228D01*
X12693095Y-16293228D02*
X12702619Y-16302752D01*
X12693095Y-16312276D01*
X12683571Y-16302752D01*
X12693095Y-16293228D01*
X12693095Y-16312276D01*
X12826428Y-16112276D02*
X12845476Y-16112276D01*
X12864524Y-16121800D01*
X12874048Y-16131324D01*
X12883571Y-16150371D01*
X12893095Y-16188467D01*
X12893095Y-16236086D01*
X12883571Y-16274181D01*
X12874048Y-16293228D01*
X12864524Y-16302752D01*
X12845476Y-16312276D01*
X12826428Y-16312276D01*
X12807381Y-16302752D01*
X12797857Y-16293228D01*
X12788333Y-16274181D01*
X12778809Y-16236086D01*
X12778809Y-16188467D01*
X12788333Y-16150371D01*
X12797857Y-16131324D01*
X12807381Y-16121800D01*
X12826428Y-16112276D01*
X13016905Y-16112276D02*
X13035952Y-16112276D01*
X13055000Y-16121800D01*
X13064524Y-16131324D01*
X13074048Y-16150371D01*
X13083571Y-16188467D01*
X13083571Y-16236086D01*
X13074048Y-16274181D01*
X13064524Y-16293228D01*
X13055000Y-16302752D01*
X13035952Y-16312276D01*
X13016905Y-16312276D01*
X12997857Y-16302752D01*
X12988333Y-16293228D01*
X12978809Y-16274181D01*
X12969286Y-16236086D01*
X12969286Y-16188467D01*
X12978809Y-16150371D01*
X12988333Y-16131324D01*
X12997857Y-16121800D01*
X13016905Y-16112276D01*
X13207381Y-16112276D02*
X13226428Y-16112276D01*
X13245476Y-16121800D01*
X13255000Y-16131324D01*
X13264524Y-16150371D01*
X13274048Y-16188467D01*
X13274048Y-16236086D01*
X13264524Y-16274181D01*
X13255000Y-16293228D01*
X13245476Y-16302752D01*
X13226428Y-16312276D01*
X13207381Y-16312276D01*
X13188333Y-16302752D01*
X13178809Y-16293228D01*
X13169286Y-16274181D01*
X13159762Y-16236086D01*
X13159762Y-16188467D01*
X13169286Y-16150371D01*
X13178809Y-16131324D01*
X13188333Y-16121800D01*
X13207381Y-16112276D01*
X13359762Y-16312276D02*
X13359762Y-16178943D01*
X13359762Y-16197990D02*
X13369286Y-16188467D01*
X13388333Y-16178943D01*
X13416905Y-16178943D01*
X13435952Y-16188467D01*
X13445476Y-16207514D01*
X13445476Y-16312276D01*
X13445476Y-16207514D02*
X13455000Y-16188467D01*
X13474048Y-16178943D01*
X13502619Y-16178943D01*
X13521667Y-16188467D01*
X13531190Y-16207514D01*
X13531190Y-16312276D01*
X13626428Y-16312276D02*
X13626428Y-16178943D01*
X13626428Y-16197990D02*
X13635952Y-16188467D01*
X13655000Y-16178943D01*
X13683571Y-16178943D01*
X13702619Y-16188467D01*
X13712143Y-16207514D01*
X13712143Y-16312276D01*
X13712143Y-16207514D02*
X13721667Y-16188467D01*
X13740714Y-16178943D01*
X13769286Y-16178943D01*
X13788333Y-16188467D01*
X13797857Y-16207514D01*
X13797857Y-16312276D01*
X14188333Y-16102752D02*
X14016905Y-16359895D01*
X14445476Y-16112276D02*
X14464524Y-16112276D01*
X14483571Y-16121800D01*
X14493095Y-16131324D01*
X14502619Y-16150371D01*
X14512143Y-16188467D01*
X14512143Y-16236086D01*
X14502619Y-16274181D01*
X14493095Y-16293228D01*
X14483571Y-16302752D01*
X14464524Y-16312276D01*
X14445476Y-16312276D01*
X14426428Y-16302752D01*
X14416905Y-16293228D01*
X14407381Y-16274181D01*
X14397857Y-16236086D01*
X14397857Y-16188467D01*
X14407381Y-16150371D01*
X14416905Y-16131324D01*
X14426428Y-16121800D01*
X14445476Y-16112276D01*
X14597857Y-16293228D02*
X14607381Y-16302752D01*
X14597857Y-16312276D01*
X14588333Y-16302752D01*
X14597857Y-16293228D01*
X14597857Y-16312276D01*
X14797857Y-16312276D02*
X14683571Y-16312276D01*
X14740714Y-16312276D02*
X14740714Y-16112276D01*
X14721667Y-16140848D01*
X14702619Y-16159895D01*
X14683571Y-16169419D01*
X14988333Y-16312276D02*
X14874048Y-16312276D01*
X14931190Y-16312276D02*
X14931190Y-16112276D01*
X14912143Y-16140848D01*
X14893095Y-16159895D01*
X14874048Y-16169419D01*
X15102619Y-16197990D02*
X15083571Y-16188467D01*
X15074048Y-16178943D01*
X15064524Y-16159895D01*
X15064524Y-16150371D01*
X15074048Y-16131324D01*
X15083571Y-16121800D01*
X15102619Y-16112276D01*
X15140714Y-16112276D01*
X15159762Y-16121800D01*
X15169286Y-16131324D01*
X15178809Y-16150371D01*
X15178809Y-16159895D01*
X15169286Y-16178943D01*
X15159762Y-16188467D01*
X15140714Y-16197990D01*
X15102619Y-16197990D01*
X15083571Y-16207514D01*
X15074048Y-16217038D01*
X15064524Y-16236086D01*
X15064524Y-16274181D01*
X15074048Y-16293228D01*
X15083571Y-16302752D01*
X15102619Y-16312276D01*
X15140714Y-16312276D01*
X15159762Y-16302752D01*
X15169286Y-16293228D01*
X15178809Y-16274181D01*
X15178809Y-16236086D01*
X15169286Y-16217038D01*
X15159762Y-16207514D01*
X15140714Y-16197990D01*
X15369286Y-16312276D02*
X15255000Y-16312276D01*
X15312143Y-16312276D02*
X15312143Y-16112276D01*
X15293095Y-16140848D01*
X15274048Y-16159895D01*
X15255000Y-16169419D01*
X15445476Y-16112276D02*
X15445476Y-16150371D01*
X15521667Y-16112276D02*
X15521667Y-16150371D01*
X15816905Y-16388467D02*
X15807381Y-16378943D01*
X15788333Y-16350371D01*
X15778809Y-16331324D01*
X15769286Y-16302752D01*
X15759762Y-16255133D01*
X15759762Y-16217038D01*
X15769286Y-16169419D01*
X15778809Y-16140848D01*
X15788333Y-16121800D01*
X15807381Y-16093228D01*
X15816905Y-16083705D01*
X15978809Y-16178943D02*
X15978809Y-16312276D01*
X15931190Y-16102752D02*
X15883571Y-16245609D01*
X16007381Y-16245609D01*
X16235952Y-16312276D02*
X16235952Y-16112276D01*
X16321667Y-16312276D02*
X16321667Y-16207514D01*
X16312143Y-16188467D01*
X16293095Y-16178943D01*
X16264524Y-16178943D01*
X16245476Y-16188467D01*
X16235952Y-16197990D01*
X16445476Y-16312276D02*
X16426428Y-16302752D01*
X16416905Y-16293228D01*
X16407381Y-16274181D01*
X16407381Y-16217038D01*
X16416905Y-16197990D01*
X16426428Y-16188467D01*
X16445476Y-16178943D01*
X16474048Y-16178943D01*
X16493095Y-16188467D01*
X16502619Y-16197990D01*
X16512143Y-16217038D01*
X16512143Y-16274181D01*
X16502619Y-16293228D01*
X16493095Y-16302752D01*
X16474048Y-16312276D01*
X16445476Y-16312276D01*
X16626428Y-16312276D02*
X16607381Y-16302752D01*
X16597857Y-16283705D01*
X16597857Y-16112276D01*
X16778810Y-16302752D02*
X16759762Y-16312276D01*
X16721667Y-16312276D01*
X16702619Y-16302752D01*
X16693095Y-16283705D01*
X16693095Y-16207514D01*
X16702619Y-16188467D01*
X16721667Y-16178943D01*
X16759762Y-16178943D01*
X16778810Y-16188467D01*
X16788333Y-16207514D01*
X16788333Y-16226562D01*
X16693095Y-16245609D01*
X16864524Y-16302752D02*
X16883571Y-16312276D01*
X16921667Y-16312276D01*
X16940714Y-16302752D01*
X16950238Y-16283705D01*
X16950238Y-16274181D01*
X16940714Y-16255133D01*
X16921667Y-16245609D01*
X16893095Y-16245609D01*
X16874048Y-16236086D01*
X16864524Y-16217038D01*
X16864524Y-16207514D01*
X16874048Y-16188467D01*
X16893095Y-16178943D01*
X16921667Y-16178943D01*
X16940714Y-16188467D01*
X17016905Y-16388467D02*
X17026429Y-16378943D01*
X17045476Y-16350371D01*
X17055000Y-16331324D01*
X17064524Y-16302752D01*
X17074048Y-16255133D01*
X17074048Y-16217038D01*
X17064524Y-16169419D01*
X17055000Y-16140848D01*
X17045476Y-16121800D01*
X17026429Y-16093228D01*
X17016905Y-16083705D01*
M02*
