G04 #@! TF.GenerationSoftware,KiCad,Pcbnew,(6.0.8-1)-1*
G04 #@! TF.CreationDate,2023-01-21T16:38:13+01:00*
G04 #@! TF.ProjectId,hog-f1-stupdown-psu,686f672d-6631-42d7-9374-7570646f776e,rev?*
G04 #@! TF.SameCoordinates,Original*
G04 #@! TF.FileFunction,Soldermask,Bot*
G04 #@! TF.FilePolarity,Negative*
%FSLAX46Y46*%
G04 Gerber Fmt 4.6, Leading zero omitted, Abs format (unit mm)*
G04 Created by KiCad (PCBNEW (6.0.8-1)-1) date 2023-01-21 16:38:13*
%MOMM*%
%LPD*%
G01*
G04 APERTURE LIST*
G04 Aperture macros list*
%AMRoundRect*
0 Rectangle with rounded corners*
0 $1 Rounding radius*
0 $2 $3 $4 $5 $6 $7 $8 $9 X,Y pos of 4 corners*
0 Add a 4 corners polygon primitive as box body*
4,1,4,$2,$3,$4,$5,$6,$7,$8,$9,$2,$3,0*
0 Add four circle primitives for the rounded corners*
1,1,$1+$1,$2,$3*
1,1,$1+$1,$4,$5*
1,1,$1+$1,$6,$7*
1,1,$1+$1,$8,$9*
0 Add four rect primitives between the rounded corners*
20,1,$1+$1,$2,$3,$4,$5,0*
20,1,$1+$1,$4,$5,$6,$7,0*
20,1,$1+$1,$6,$7,$8,$9,0*
20,1,$1+$1,$8,$9,$2,$3,0*%
G04 Aperture macros list end*
%ADD10RoundRect,0.250000X0.600000X-0.600000X0.600000X0.600000X-0.600000X0.600000X-0.600000X-0.600000X0*%
%ADD11C,1.700000*%
%ADD12R,1.980000X3.960000*%
%ADD13O,1.980000X3.960000*%
%ADD14R,2.000000X2.000000*%
%ADD15C,2.000000*%
%ADD16R,4.000000X4.000000*%
%ADD17C,1.600000*%
%ADD18O,1.600000X1.600000*%
%ADD19C,6.000000*%
%ADD20R,1.800000X1.800000*%
%ADD21C,1.800000*%
G04 APERTURE END LIST*
D10*
X155820219Y-84104586D03*
D11*
X155820219Y-81564586D03*
X158360219Y-84104586D03*
X158360219Y-81564586D03*
X160900219Y-84104586D03*
X160900219Y-81564586D03*
X163440219Y-84104586D03*
X163440219Y-81564586D03*
X165980219Y-84104586D03*
X165980219Y-81564586D03*
D10*
X129594000Y-97566586D03*
D11*
X129594000Y-95026586D03*
X132134000Y-97566586D03*
X132134000Y-95026586D03*
X134674000Y-97566586D03*
X134674000Y-95026586D03*
X137214000Y-97566586D03*
X137214000Y-95026586D03*
X139754000Y-97566586D03*
X139754000Y-95026586D03*
D12*
X152708000Y-70266000D03*
D13*
X147708000Y-70266000D03*
X142708000Y-70266000D03*
D14*
X156772000Y-139608000D03*
D12*
X143818000Y-135290000D03*
D13*
X148818000Y-135290000D03*
D14*
X156772000Y-131988000D03*
D15*
X135436000Y-131988000D03*
X132896000Y-131988000D03*
D16*
X128044800Y-124864086D03*
X139017600Y-124864086D03*
X128044800Y-106864086D03*
X139017600Y-106864086D03*
D14*
X145596000Y-118404086D03*
X145596000Y-120944086D03*
X145596000Y-123484086D03*
X145596000Y-126024086D03*
D10*
X155756000Y-97566586D03*
D11*
X155756000Y-95026586D03*
X158296000Y-97566586D03*
X158296000Y-95026586D03*
X160836000Y-97566586D03*
X160836000Y-95026586D03*
X163376000Y-97566586D03*
X163376000Y-95026586D03*
X165916000Y-97566586D03*
X165916000Y-95026586D03*
D14*
X127308000Y-131988000D03*
D17*
X128324000Y-74838000D03*
D18*
X135944000Y-74838000D03*
D19*
X126800000Y-66837000D03*
X168202000Y-66837000D03*
D20*
X159888000Y-69504000D03*
D21*
X162428000Y-69504000D03*
D14*
X145596000Y-105958086D03*
X145596000Y-108498086D03*
X145596000Y-111038086D03*
X145596000Y-113578086D03*
D19*
X168202000Y-138211000D03*
D20*
X135001000Y-69504000D03*
D21*
X132461000Y-69504000D03*
D10*
X129594000Y-84104586D03*
D11*
X129594000Y-81564586D03*
X132134000Y-84104586D03*
X132134000Y-81564586D03*
X134674000Y-84104586D03*
X134674000Y-81564586D03*
X137214000Y-84104586D03*
X137214000Y-81564586D03*
X139754000Y-84104586D03*
X139754000Y-81564586D03*
D14*
X156772000Y-135798000D03*
D17*
X159004000Y-74803000D03*
D18*
X166624000Y-74803000D03*
D19*
X126800000Y-138211000D03*
D14*
X133858000Y-138176000D03*
M02*
