M48
; DRILL file {KiCad (6.0.8-1)-1} date 2023 January 21, Saturday 16:38:27
; FORMAT={-:-/ absolute / metric / decimal}
; #@! TF.CreationDate,2023-01-21T16:38:27+01:00
; #@! TF.GenerationSoftware,Kicad,Pcbnew,(6.0.8-1)-1
; #@! TF.FileFunction,Plated,1,2,PTH
FMAT,2
METRIC
; #@! TA.AperFunction,Plated,PTH,ComponentDrill
T1C0.800
; #@! TA.AperFunction,Plated,PTH,ComponentDrill
T2C0.900
; #@! TA.AperFunction,Plated,PTH,ComponentDrill
T3C1.000
; #@! TA.AperFunction,Plated,PTH,ComponentDrill
T4C1.320
; #@! TA.AperFunction,Plated,PTH,ComponentDrill
T5C1.508
; #@! TA.AperFunction,Plated,PTH,ComponentDrill
T6C3.000
%
G90
G05
T1
X128.324Y-74.838
X135.944Y-74.838
X159.004Y-74.803
X166.624Y-74.803
T2
X132.461Y-69.504
X135.001Y-69.504
X159.888Y-69.504
X162.428Y-69.504
T3
X127.308Y-131.988
X129.594Y-81.565
X129.594Y-84.105
X129.594Y-95.027
X129.594Y-97.567
X132.134Y-81.565
X132.134Y-84.105
X132.134Y-95.027
X132.134Y-97.567
X132.896Y-131.988
X133.858Y-138.176
X134.674Y-81.565
X134.674Y-84.105
X134.674Y-95.027
X134.674Y-97.567
X135.436Y-131.988
X137.214Y-81.565
X137.214Y-84.105
X137.214Y-95.027
X137.214Y-97.567
X139.754Y-81.565
X139.754Y-84.105
X139.754Y-95.027
X139.754Y-97.567
X145.596Y-105.958
X145.596Y-108.498
X145.596Y-111.038
X145.596Y-113.578
X145.596Y-118.404
X145.596Y-120.944
X145.596Y-123.484
X145.596Y-126.024
X155.756Y-95.027
X155.756Y-97.567
X155.82Y-81.565
X155.82Y-84.105
X156.772Y-131.988
X156.772Y-135.798
X156.772Y-139.608
X158.296Y-95.027
X158.296Y-97.567
X158.36Y-81.565
X158.36Y-84.105
X160.836Y-95.027
X160.836Y-97.567
X160.9Y-81.565
X160.9Y-84.105
X163.376Y-95.027
X163.376Y-97.567
X163.44Y-81.565
X163.44Y-84.105
X165.916Y-95.027
X165.916Y-97.567
X165.98Y-81.565
X165.98Y-84.105
T4
X142.708Y-70.266
X143.818Y-135.29
X147.708Y-70.266
X148.818Y-135.29
X152.708Y-70.266
T5
X128.045Y-106.864
X128.045Y-124.864
X139.018Y-106.864
X139.018Y-124.864
T6
X126.8Y-66.837
X126.8Y-138.211
X168.202Y-66.837
X168.202Y-138.211
T0
M30
