G04 #@! TF.GenerationSoftware,KiCad,Pcbnew,(6.0.8-1)-1*
G04 #@! TF.CreationDate,2023-01-21T16:38:13+01:00*
G04 #@! TF.ProjectId,hog-f1-stupdown-psu,686f672d-6631-42d7-9374-7570646f776e,rev?*
G04 #@! TF.SameCoordinates,Original*
G04 #@! TF.FileFunction,Copper,L1,Top*
G04 #@! TF.FilePolarity,Positive*
%FSLAX46Y46*%
G04 Gerber Fmt 4.6, Leading zero omitted, Abs format (unit mm)*
G04 Created by KiCad (PCBNEW (6.0.8-1)-1) date 2023-01-21 16:38:13*
%MOMM*%
%LPD*%
G01*
G04 APERTURE LIST*
G04 Aperture macros list*
%AMRoundRect*
0 Rectangle with rounded corners*
0 $1 Rounding radius*
0 $2 $3 $4 $5 $6 $7 $8 $9 X,Y pos of 4 corners*
0 Add a 4 corners polygon primitive as box body*
4,1,4,$2,$3,$4,$5,$6,$7,$8,$9,$2,$3,0*
0 Add four circle primitives for the rounded corners*
1,1,$1+$1,$2,$3*
1,1,$1+$1,$4,$5*
1,1,$1+$1,$6,$7*
1,1,$1+$1,$8,$9*
0 Add four rect primitives between the rounded corners*
20,1,$1+$1,$2,$3,$4,$5,0*
20,1,$1+$1,$4,$5,$6,$7,0*
20,1,$1+$1,$6,$7,$8,$9,0*
20,1,$1+$1,$8,$9,$2,$3,0*%
G04 Aperture macros list end*
G04 #@! TA.AperFunction,ComponentPad*
%ADD10RoundRect,0.250000X0.600000X-0.600000X0.600000X0.600000X-0.600000X0.600000X-0.600000X-0.600000X0*%
G04 #@! TD*
G04 #@! TA.AperFunction,ComponentPad*
%ADD11C,1.700000*%
G04 #@! TD*
G04 #@! TA.AperFunction,ComponentPad*
%ADD12R,1.980000X3.960000*%
G04 #@! TD*
G04 #@! TA.AperFunction,ComponentPad*
%ADD13O,1.980000X3.960000*%
G04 #@! TD*
G04 #@! TA.AperFunction,ComponentPad*
%ADD14R,2.000000X2.000000*%
G04 #@! TD*
G04 #@! TA.AperFunction,ComponentPad*
%ADD15C,2.000000*%
G04 #@! TD*
G04 #@! TA.AperFunction,ComponentPad*
%ADD16R,4.000000X4.000000*%
G04 #@! TD*
G04 #@! TA.AperFunction,ComponentPad*
%ADD17C,1.600000*%
G04 #@! TD*
G04 #@! TA.AperFunction,ComponentPad*
%ADD18O,1.600000X1.600000*%
G04 #@! TD*
G04 #@! TA.AperFunction,ComponentPad*
%ADD19C,6.000000*%
G04 #@! TD*
G04 #@! TA.AperFunction,ComponentPad*
%ADD20R,1.800000X1.800000*%
G04 #@! TD*
G04 #@! TA.AperFunction,ComponentPad*
%ADD21C,1.800000*%
G04 #@! TD*
G04 #@! TA.AperFunction,Conductor*
%ADD22C,0.508000*%
G04 #@! TD*
G04 #@! TA.AperFunction,Conductor*
%ADD23C,1.270000*%
G04 #@! TD*
G04 APERTURE END LIST*
D10*
X155820219Y-84104586D03*
D11*
X155820219Y-81564586D03*
X158360219Y-84104586D03*
X158360219Y-81564586D03*
X160900219Y-84104586D03*
X160900219Y-81564586D03*
X163440219Y-84104586D03*
X163440219Y-81564586D03*
X165980219Y-84104586D03*
X165980219Y-81564586D03*
D10*
X129594000Y-97566586D03*
D11*
X129594000Y-95026586D03*
X132134000Y-97566586D03*
X132134000Y-95026586D03*
X134674000Y-97566586D03*
X134674000Y-95026586D03*
X137214000Y-97566586D03*
X137214000Y-95026586D03*
X139754000Y-97566586D03*
X139754000Y-95026586D03*
D12*
X152708000Y-70266000D03*
D13*
X147708000Y-70266000D03*
X142708000Y-70266000D03*
D14*
X156772000Y-139608000D03*
D12*
X143818000Y-135290000D03*
D13*
X148818000Y-135290000D03*
D14*
X156772000Y-131988000D03*
D15*
X135436000Y-131988000D03*
X132896000Y-131988000D03*
D16*
X128044800Y-124864086D03*
X139017600Y-124864086D03*
X128044800Y-106864086D03*
X139017600Y-106864086D03*
D14*
X145596000Y-118404086D03*
X145596000Y-120944086D03*
X145596000Y-123484086D03*
X145596000Y-126024086D03*
D10*
X155756000Y-97566586D03*
D11*
X155756000Y-95026586D03*
X158296000Y-97566586D03*
X158296000Y-95026586D03*
X160836000Y-97566586D03*
X160836000Y-95026586D03*
X163376000Y-97566586D03*
X163376000Y-95026586D03*
X165916000Y-97566586D03*
X165916000Y-95026586D03*
D14*
X127308000Y-131988000D03*
D17*
X128324000Y-74838000D03*
D18*
X135944000Y-74838000D03*
D19*
X126800000Y-66837000D03*
X168202000Y-66837000D03*
D20*
X159888000Y-69504000D03*
D21*
X162428000Y-69504000D03*
D14*
X145596000Y-105958086D03*
X145596000Y-108498086D03*
X145596000Y-111038086D03*
X145596000Y-113578086D03*
D19*
X168202000Y-138211000D03*
D20*
X135001000Y-69504000D03*
D21*
X132461000Y-69504000D03*
D10*
X129594000Y-84104586D03*
D11*
X129594000Y-81564586D03*
X132134000Y-84104586D03*
X132134000Y-81564586D03*
X134674000Y-84104586D03*
X134674000Y-81564586D03*
X137214000Y-84104586D03*
X137214000Y-81564586D03*
X139754000Y-84104586D03*
X139754000Y-81564586D03*
D14*
X156772000Y-135798000D03*
D17*
X159004000Y-74803000D03*
D18*
X166624000Y-74803000D03*
D19*
X126800000Y-138211000D03*
D14*
X133858000Y-138176000D03*
D22*
X162468000Y-69504000D02*
X162428000Y-69504000D01*
X128324000Y-73641000D02*
X132461000Y-69504000D01*
X128324000Y-74838000D02*
X128324000Y-73641000D01*
X159888000Y-71242000D02*
X159888000Y-69504000D01*
X166624000Y-74803000D02*
X163449000Y-74803000D01*
X163449000Y-74803000D02*
X159888000Y-71242000D01*
D23*
X129594000Y-89824000D02*
X129594000Y-84104586D01*
X155756000Y-95026586D02*
X155756000Y-89824000D01*
X159096000Y-135798000D02*
X161290000Y-133604000D01*
X129594000Y-77289000D02*
X129594000Y-81564586D01*
D22*
X159004000Y-74803000D02*
X153035000Y-74803000D01*
D23*
X151384000Y-65405000D02*
X140589000Y-65405000D01*
X145596000Y-123484086D02*
X160822086Y-123484086D01*
X129594000Y-97566586D02*
X129594000Y-95026586D01*
X161290000Y-133604000D02*
X161290000Y-123952000D01*
X155820219Y-81564586D02*
X155820219Y-80368305D01*
X155756000Y-100784000D02*
X155756000Y-97566586D01*
X155756000Y-84168805D02*
X155820219Y-84104586D01*
X129594000Y-95026586D02*
X129594000Y-89824000D01*
X134874000Y-72009000D02*
X129594000Y-77289000D01*
X138176000Y-72009000D02*
X134874000Y-72009000D01*
X155756000Y-89824000D02*
X155756000Y-84168805D01*
X160822086Y-123484086D02*
X161290000Y-123952000D01*
X161290000Y-106318000D02*
X155756000Y-100784000D01*
X152708000Y-77256086D02*
X152708000Y-75854000D01*
X155820219Y-84104586D02*
X155820219Y-81564586D01*
X138684000Y-71501000D02*
X138176000Y-72009000D01*
X155820219Y-80368305D02*
X152708000Y-77256086D01*
X155756000Y-97566586D02*
X155756000Y-95026586D01*
X152708000Y-75854000D02*
X152708000Y-70266000D01*
X152708000Y-66729000D02*
X151384000Y-65405000D01*
X140589000Y-65405000D02*
X138684000Y-67310000D01*
X138684000Y-67310000D02*
X138684000Y-71501000D01*
X129594000Y-81564586D02*
X129594000Y-84104586D01*
X161290000Y-123952000D02*
X161290000Y-106318000D01*
X156772000Y-135798000D02*
X159096000Y-135798000D01*
X152708000Y-70266000D02*
X152708000Y-66729000D01*
X160112000Y-139608000D02*
X156772000Y-139608000D01*
D22*
X135944000Y-74838000D02*
X142633000Y-74838000D01*
D23*
X146612000Y-113578086D02*
X149152000Y-111038086D01*
X165916000Y-95026586D02*
X165916000Y-84168805D01*
X139754000Y-97566586D02*
X139754000Y-95026586D01*
X144194586Y-97566586D02*
X139754000Y-97566586D01*
X152908000Y-137922000D02*
X154594000Y-139608000D01*
D22*
X142633000Y-74838000D02*
X142708000Y-74763000D01*
D23*
X139754000Y-100530000D02*
X138430000Y-101854000D01*
X139754000Y-81564586D02*
X139754000Y-80050086D01*
X142708000Y-74763000D02*
X142708000Y-70266000D01*
X139754000Y-97566586D02*
X139754000Y-100530000D01*
X165916000Y-84168805D02*
X165980219Y-84104586D01*
X165916000Y-97566586D02*
X165916000Y-95026586D01*
X138430000Y-129540000D02*
X140462000Y-131572000D01*
X138430000Y-101854000D02*
X125984000Y-101854000D01*
X151384000Y-131572000D02*
X152908000Y-133096000D01*
X133604000Y-127508000D02*
X135636000Y-129540000D01*
X140462000Y-131572000D02*
X151384000Y-131572000D01*
X133604000Y-122174000D02*
X133604000Y-127508000D01*
X125984000Y-101854000D02*
X124206000Y-103632000D01*
X142708000Y-77049000D02*
X142708000Y-74763000D01*
X145596000Y-113578086D02*
X146612000Y-113578086D01*
X149152000Y-102524000D02*
X144194586Y-97566586D01*
X135636000Y-129540000D02*
X138430000Y-129540000D01*
X124206000Y-112776000D02*
X133604000Y-122174000D01*
X165980219Y-84104586D02*
X165980219Y-81564586D01*
X165916000Y-97566586D02*
X165916000Y-133804000D01*
X124206000Y-103632000D02*
X124206000Y-112776000D01*
X154594000Y-139608000D02*
X156772000Y-139608000D01*
X165916000Y-133804000D02*
X160112000Y-139608000D01*
X142748000Y-77089000D02*
X142708000Y-77049000D01*
X139754000Y-80050086D02*
X142708000Y-77096086D01*
X139754000Y-84104586D02*
X139754000Y-81564586D01*
X152908000Y-133096000D02*
X152908000Y-137922000D01*
X149152000Y-111038086D02*
X149152000Y-102524000D01*
X139754000Y-95026586D02*
X139754000Y-84104586D01*
X138738000Y-135290000D02*
X143818000Y-135290000D01*
X135436000Y-131988000D02*
X138738000Y-135290000D01*
X133858000Y-135128000D02*
X133858000Y-138176000D01*
X132896000Y-134166000D02*
X133858000Y-135128000D01*
X132896000Y-131104086D02*
X127816000Y-126024086D01*
X132896000Y-131988000D02*
X132896000Y-131104086D01*
X132896000Y-131988000D02*
X132896000Y-134166000D01*
X143002000Y-114808000D02*
X143002000Y-121158000D01*
X128044800Y-106864086D02*
X128044800Y-112296800D01*
X143215914Y-120944086D02*
X143002000Y-121158000D01*
X145596000Y-108498086D02*
X143850914Y-108498086D01*
X145596000Y-120944086D02*
X143215914Y-120944086D01*
X128044800Y-112296800D02*
X130810000Y-115062000D01*
X144272000Y-129286000D02*
X154070000Y-129286000D01*
X143002000Y-109347000D02*
X143002000Y-114808000D01*
X143002000Y-128016000D02*
X144272000Y-129286000D01*
X143850914Y-108498086D02*
X143002000Y-109347000D01*
X143002000Y-121158000D02*
X143002000Y-128016000D01*
X142748000Y-115062000D02*
X143002000Y-114808000D01*
X130810000Y-115062000D02*
X142748000Y-115062000D01*
X154070000Y-129286000D02*
X156772000Y-131988000D01*
M02*
