G04 #@! TF.GenerationSoftware,KiCad,Pcbnew,(6.0.8-1)-1*
G04 #@! TF.CreationDate,2023-01-21T16:38:13+01:00*
G04 #@! TF.ProjectId,hog-f1-stupdown-psu,686f672d-6631-42d7-9374-7570646f776e,rev?*
G04 #@! TF.SameCoordinates,Original*
G04 #@! TF.FileFunction,Legend,Top*
G04 #@! TF.FilePolarity,Positive*
%FSLAX46Y46*%
G04 Gerber Fmt 4.6, Leading zero omitted, Abs format (unit mm)*
G04 Created by KiCad (PCBNEW (6.0.8-1)-1) date 2023-01-21 16:38:13*
%MOMM*%
%LPD*%
G01*
G04 APERTURE LIST*
G04 Aperture macros list*
%AMRoundRect*
0 Rectangle with rounded corners*
0 $1 Rounding radius*
0 $2 $3 $4 $5 $6 $7 $8 $9 X,Y pos of 4 corners*
0 Add a 4 corners polygon primitive as box body*
4,1,4,$2,$3,$4,$5,$6,$7,$8,$9,$2,$3,0*
0 Add four circle primitives for the rounded corners*
1,1,$1+$1,$2,$3*
1,1,$1+$1,$4,$5*
1,1,$1+$1,$6,$7*
1,1,$1+$1,$8,$9*
0 Add four rect primitives between the rounded corners*
20,1,$1+$1,$2,$3,$4,$5,0*
20,1,$1+$1,$4,$5,$6,$7,0*
20,1,$1+$1,$6,$7,$8,$9,0*
20,1,$1+$1,$8,$9,$2,$3,0*%
G04 Aperture macros list end*
%ADD10C,0.150000*%
%ADD11C,0.350000*%
%ADD12C,0.250000*%
%ADD13C,0.200000*%
%ADD14C,0.300000*%
%ADD15C,0.120000*%
%ADD16C,0.010000*%
%ADD17RoundRect,0.250000X0.600000X-0.600000X0.600000X0.600000X-0.600000X0.600000X-0.600000X-0.600000X0*%
%ADD18C,1.700000*%
%ADD19R,1.980000X3.960000*%
%ADD20O,1.980000X3.960000*%
%ADD21R,2.000000X2.000000*%
%ADD22C,2.000000*%
%ADD23R,4.000000X4.000000*%
%ADD24C,1.600000*%
%ADD25O,1.600000X1.600000*%
%ADD26C,6.000000*%
%ADD27R,1.800000X1.800000*%
%ADD28C,1.800000*%
G04 APERTURE END LIST*
D10*
X124333000Y-110490000D02*
X124333000Y-111760000D01*
X162106000Y-129956000D02*
X162106000Y-127924000D01*
X166424000Y-102651000D02*
X170488000Y-102651000D01*
X170488000Y-102651000D02*
X170488000Y-105953000D01*
X170488000Y-105953000D02*
X166424000Y-105953000D01*
X166424000Y-105953000D02*
X166424000Y-102651000D01*
X124333000Y-111760000D02*
X125095000Y-111760000D01*
D11*
X136652000Y-138557000D02*
X136017000Y-139319000D01*
X147891500Y-78232000D02*
X148526500Y-78994000D01*
D10*
X166170000Y-129194000D02*
X170488000Y-129194000D01*
X170488000Y-129194000D02*
X170488000Y-133004000D01*
X170488000Y-133004000D02*
X166170000Y-133004000D01*
X166170000Y-133004000D02*
X166170000Y-129194000D01*
D11*
X147891500Y-78232000D02*
X147256500Y-78994000D01*
X147891500Y-80772000D02*
X147891500Y-78232000D01*
X136652000Y-141097000D02*
X136652000Y-138557000D01*
X136652000Y-138557000D02*
X137287000Y-139319000D01*
D10*
X165662000Y-129956000D02*
X162106000Y-129956000D01*
X123117000Y-104406000D02*
X124768000Y-104406000D01*
X124768000Y-104406000D02*
X124768000Y-109994000D01*
X124768000Y-109994000D02*
X123117000Y-109994000D01*
X123117000Y-109994000D02*
X123117000Y-104406000D01*
X162360000Y-103413000D02*
X162360000Y-104048000D01*
X165916000Y-103413000D02*
X162360000Y-103413000D01*
D12*
X131074071Y-89339666D02*
X131245500Y-89406333D01*
X131531214Y-89406333D01*
X131645500Y-89339666D01*
X131702642Y-89273000D01*
X131759785Y-89139666D01*
X131759785Y-89006333D01*
X131702642Y-88873000D01*
X131645500Y-88806333D01*
X131531214Y-88739666D01*
X131302642Y-88673000D01*
X131188357Y-88606333D01*
X131131214Y-88539666D01*
X131074071Y-88406333D01*
X131074071Y-88273000D01*
X131131214Y-88139666D01*
X131188357Y-88073000D01*
X131302642Y-88006333D01*
X131588357Y-88006333D01*
X131759785Y-88073000D01*
X132274071Y-89406333D02*
X132274071Y-88006333D01*
X132274071Y-88673000D02*
X132959785Y-88673000D01*
X132959785Y-89406333D02*
X132959785Y-88006333D01*
X133531214Y-89406333D02*
X133531214Y-88006333D01*
X133931214Y-89006333D01*
X134331214Y-88006333D01*
X134331214Y-89406333D01*
X135702642Y-88006333D02*
X134788357Y-89406333D01*
X135131214Y-89406333D02*
X135016928Y-89339666D01*
X134902642Y-89206333D01*
X134845500Y-88939666D01*
X134845500Y-88473000D01*
X134902642Y-88206333D01*
X135016928Y-88073000D01*
X135131214Y-88006333D01*
X135359785Y-88006333D01*
X135474071Y-88073000D01*
X135588357Y-88206333D01*
X135645500Y-88473000D01*
X135645500Y-88939666D01*
X135588357Y-89206333D01*
X135474071Y-89339666D01*
X135359785Y-89406333D01*
X135131214Y-89406333D01*
X136159785Y-88673000D02*
X136559785Y-88673000D01*
X136731214Y-89406333D02*
X136159785Y-89406333D01*
X136159785Y-88006333D01*
X136731214Y-88006333D01*
X137931214Y-89406333D02*
X137531214Y-88739666D01*
X137245500Y-89406333D02*
X137245500Y-88006333D01*
X137702642Y-88006333D01*
X137816928Y-88073000D01*
X137874071Y-88139666D01*
X137931214Y-88273000D01*
X137931214Y-88473000D01*
X137874071Y-88606333D01*
X137816928Y-88673000D01*
X137702642Y-88739666D01*
X137245500Y-88739666D01*
X139074071Y-88073000D02*
X138959785Y-88006333D01*
X138788357Y-88006333D01*
X138616928Y-88073000D01*
X138502642Y-88206333D01*
X138445500Y-88339666D01*
X138388357Y-88606333D01*
X138388357Y-88806333D01*
X138445500Y-89073000D01*
X138502642Y-89206333D01*
X138616928Y-89339666D01*
X138788357Y-89406333D01*
X138902642Y-89406333D01*
X139074071Y-89339666D01*
X139131214Y-89273000D01*
X139131214Y-88806333D01*
X138902642Y-88806333D01*
X139645500Y-89406333D02*
X139645500Y-88006333D01*
X139645500Y-88673000D02*
X140331214Y-88673000D01*
X140331214Y-89406333D02*
X140331214Y-88006333D01*
D10*
X166312380Y-126673976D02*
X166312380Y-127131119D01*
X166312380Y-126902547D02*
X165312380Y-126902547D01*
X165455238Y-126978738D01*
X165550476Y-127054928D01*
X165598095Y-127131119D01*
X166217142Y-126331119D02*
X166264761Y-126293023D01*
X166312380Y-126331119D01*
X166264761Y-126369214D01*
X166217142Y-126331119D01*
X166312380Y-126331119D01*
X165312380Y-125454928D02*
X165312380Y-124997785D01*
X166312380Y-125226357D02*
X165312380Y-125226357D01*
X165645714Y-124388261D02*
X166312380Y-124388261D01*
X165645714Y-124731119D02*
X166169523Y-124731119D01*
X166264761Y-124693023D01*
X166312380Y-124616833D01*
X166312380Y-124502547D01*
X166264761Y-124426357D01*
X166217142Y-124388261D01*
X166312380Y-124007309D02*
X165645714Y-124007309D01*
X165836190Y-124007309D02*
X165740952Y-123969214D01*
X165693333Y-123931119D01*
X165645714Y-123854928D01*
X165645714Y-123778738D01*
X165645714Y-123512071D02*
X166312380Y-123512071D01*
X165740952Y-123512071D02*
X165693333Y-123473976D01*
X165645714Y-123397785D01*
X165645714Y-123283500D01*
X165693333Y-123207309D01*
X165788571Y-123169214D01*
X166312380Y-123169214D01*
X165312380Y-122178738D02*
X166121904Y-122178738D01*
X166217142Y-122140642D01*
X166264761Y-122102547D01*
X166312380Y-122026357D01*
X166312380Y-121873976D01*
X166264761Y-121797785D01*
X166217142Y-121759690D01*
X166121904Y-121721595D01*
X165312380Y-121721595D01*
X166312380Y-120921595D02*
X166312380Y-121378738D01*
X166312380Y-121150166D02*
X165312380Y-121150166D01*
X165455238Y-121226357D01*
X165550476Y-121302547D01*
X165598095Y-121378738D01*
X165645714Y-119969214D02*
X166645714Y-119969214D01*
X165693333Y-119969214D02*
X165645714Y-119893023D01*
X165645714Y-119740642D01*
X165693333Y-119664452D01*
X165740952Y-119626357D01*
X165836190Y-119588261D01*
X166121904Y-119588261D01*
X166217142Y-119626357D01*
X166264761Y-119664452D01*
X166312380Y-119740642D01*
X166312380Y-119893023D01*
X166264761Y-119969214D01*
X166312380Y-119131119D02*
X166264761Y-119207309D01*
X166217142Y-119245404D01*
X166121904Y-119283500D01*
X165836190Y-119283500D01*
X165740952Y-119245404D01*
X165693333Y-119207309D01*
X165645714Y-119131119D01*
X165645714Y-119016833D01*
X165693333Y-118940642D01*
X165740952Y-118902547D01*
X165836190Y-118864452D01*
X166121904Y-118864452D01*
X166217142Y-118902547D01*
X166264761Y-118940642D01*
X166312380Y-119016833D01*
X166312380Y-119131119D01*
X165645714Y-118635880D02*
X165645714Y-118331119D01*
X165312380Y-118521595D02*
X166169523Y-118521595D01*
X166264761Y-118483500D01*
X166312380Y-118407309D01*
X166312380Y-118331119D01*
X166312380Y-117112071D02*
X165788571Y-117112071D01*
X165693333Y-117150166D01*
X165645714Y-117226357D01*
X165645714Y-117378738D01*
X165693333Y-117454928D01*
X166264761Y-117112071D02*
X166312380Y-117188261D01*
X166312380Y-117378738D01*
X166264761Y-117454928D01*
X166169523Y-117493023D01*
X166074285Y-117493023D01*
X165979047Y-117454928D01*
X165931428Y-117378738D01*
X165931428Y-117188261D01*
X165883809Y-117112071D01*
X166312380Y-116616833D02*
X166264761Y-116693023D01*
X166169523Y-116731119D01*
X165312380Y-116731119D01*
X166312380Y-116197785D02*
X166264761Y-116273976D01*
X166169523Y-116312071D01*
X165312380Y-116312071D01*
X165645714Y-115397785D02*
X165645714Y-115093023D01*
X165312380Y-115283500D02*
X166169523Y-115283500D01*
X166264761Y-115245404D01*
X166312380Y-115169214D01*
X166312380Y-115093023D01*
X166312380Y-114826357D02*
X165312380Y-114826357D01*
X166312380Y-114483500D02*
X165788571Y-114483500D01*
X165693333Y-114521595D01*
X165645714Y-114597785D01*
X165645714Y-114712071D01*
X165693333Y-114788261D01*
X165740952Y-114826357D01*
X166264761Y-113797785D02*
X166312380Y-113873976D01*
X166312380Y-114026357D01*
X166264761Y-114102547D01*
X166169523Y-114140642D01*
X165788571Y-114140642D01*
X165693333Y-114102547D01*
X165645714Y-114026357D01*
X165645714Y-113873976D01*
X165693333Y-113797785D01*
X165788571Y-113759690D01*
X165883809Y-113759690D01*
X165979047Y-114140642D01*
X165645714Y-112883500D02*
X166312380Y-112731119D01*
X165836190Y-112578738D01*
X166312380Y-112426357D01*
X165645714Y-112273976D01*
X166312380Y-111626357D02*
X165788571Y-111626357D01*
X165693333Y-111664452D01*
X165645714Y-111740642D01*
X165645714Y-111893023D01*
X165693333Y-111969214D01*
X166264761Y-111626357D02*
X166312380Y-111702547D01*
X166312380Y-111893023D01*
X166264761Y-111969214D01*
X166169523Y-112007309D01*
X166074285Y-112007309D01*
X165979047Y-111969214D01*
X165931428Y-111893023D01*
X165931428Y-111702547D01*
X165883809Y-111626357D01*
X165645714Y-111321595D02*
X166312380Y-111131119D01*
X165645714Y-110940642D02*
X166312380Y-111131119D01*
X166550476Y-111207309D01*
X166598095Y-111245404D01*
X166645714Y-111321595D01*
X166217142Y-109569214D02*
X166264761Y-109607309D01*
X166312380Y-109721595D01*
X166312380Y-109797785D01*
X166264761Y-109912071D01*
X166169523Y-109988261D01*
X166074285Y-110026357D01*
X165883809Y-110064452D01*
X165740952Y-110064452D01*
X165550476Y-110026357D01*
X165455238Y-109988261D01*
X165360000Y-109912071D01*
X165312380Y-109797785D01*
X165312380Y-109721595D01*
X165360000Y-109607309D01*
X165407619Y-109569214D01*
X166217142Y-108769214D02*
X166264761Y-108807309D01*
X166312380Y-108921595D01*
X166312380Y-108997785D01*
X166264761Y-109112071D01*
X166169523Y-109188261D01*
X166074285Y-109226357D01*
X165883809Y-109264452D01*
X165740952Y-109264452D01*
X165550476Y-109226357D01*
X165455238Y-109188261D01*
X165360000Y-109112071D01*
X165312380Y-108997785D01*
X165312380Y-108921595D01*
X165360000Y-108807309D01*
X165407619Y-108769214D01*
X165312380Y-108502547D02*
X166312380Y-108312071D01*
X165598095Y-108159690D01*
X166312380Y-108007309D01*
X165312380Y-107816833D01*
X167017619Y-127131119D02*
X166970000Y-127093023D01*
X166922380Y-127016833D01*
X166922380Y-126826357D01*
X166970000Y-126750166D01*
X167017619Y-126712071D01*
X167112857Y-126673976D01*
X167208095Y-126673976D01*
X167350952Y-126712071D01*
X167922380Y-127169214D01*
X167922380Y-126673976D01*
X167827142Y-126331119D02*
X167874761Y-126293023D01*
X167922380Y-126331119D01*
X167874761Y-126369214D01*
X167827142Y-126331119D01*
X167922380Y-126331119D01*
X167874761Y-125378738D02*
X167922380Y-125264452D01*
X167922380Y-125073976D01*
X167874761Y-124997785D01*
X167827142Y-124959690D01*
X167731904Y-124921595D01*
X167636666Y-124921595D01*
X167541428Y-124959690D01*
X167493809Y-124997785D01*
X167446190Y-125073976D01*
X167398571Y-125226357D01*
X167350952Y-125302547D01*
X167303333Y-125340642D01*
X167208095Y-125378738D01*
X167112857Y-125378738D01*
X167017619Y-125340642D01*
X166970000Y-125302547D01*
X166922380Y-125226357D01*
X166922380Y-125035880D01*
X166970000Y-124921595D01*
X167874761Y-124273976D02*
X167922380Y-124350166D01*
X167922380Y-124502547D01*
X167874761Y-124578738D01*
X167779523Y-124616833D01*
X167398571Y-124616833D01*
X167303333Y-124578738D01*
X167255714Y-124502547D01*
X167255714Y-124350166D01*
X167303333Y-124273976D01*
X167398571Y-124235880D01*
X167493809Y-124235880D01*
X167589047Y-124616833D01*
X167255714Y-124007309D02*
X167255714Y-123702547D01*
X166922380Y-123893023D02*
X167779523Y-123893023D01*
X167874761Y-123854928D01*
X167922380Y-123778738D01*
X167922380Y-123702547D01*
X167922380Y-122407309D02*
X167922380Y-122864452D01*
X167922380Y-122635880D02*
X166922380Y-122635880D01*
X167065238Y-122712071D01*
X167160476Y-122788261D01*
X167208095Y-122864452D01*
X166922380Y-121683500D02*
X166922380Y-122064452D01*
X167398571Y-122102547D01*
X167350952Y-122064452D01*
X167303333Y-121988261D01*
X167303333Y-121797785D01*
X167350952Y-121721595D01*
X167398571Y-121683500D01*
X167493809Y-121645404D01*
X167731904Y-121645404D01*
X167827142Y-121683500D01*
X167874761Y-121721595D01*
X167922380Y-121797785D01*
X167922380Y-121988261D01*
X167874761Y-122064452D01*
X167827142Y-122102547D01*
X166922380Y-121416833D02*
X167922380Y-121150166D01*
X166922380Y-120883500D01*
X167922380Y-119893023D02*
X167874761Y-119969214D01*
X167827142Y-120007309D01*
X167731904Y-120045404D01*
X167446190Y-120045404D01*
X167350952Y-120007309D01*
X167303333Y-119969214D01*
X167255714Y-119893023D01*
X167255714Y-119778738D01*
X167303333Y-119702547D01*
X167350952Y-119664452D01*
X167446190Y-119626357D01*
X167731904Y-119626357D01*
X167827142Y-119664452D01*
X167874761Y-119702547D01*
X167922380Y-119778738D01*
X167922380Y-119893023D01*
X167255714Y-119283500D02*
X167922380Y-119283500D01*
X167350952Y-119283500D02*
X167303333Y-119245404D01*
X167255714Y-119169214D01*
X167255714Y-119054928D01*
X167303333Y-118978738D01*
X167398571Y-118940642D01*
X167922380Y-118940642D01*
X166922380Y-118064452D02*
X166922380Y-117607309D01*
X167922380Y-117835880D02*
X166922380Y-117835880D01*
X167922380Y-117340642D02*
X166922380Y-117340642D01*
X166922380Y-117035880D01*
X166970000Y-116959690D01*
X167017619Y-116921595D01*
X167112857Y-116883500D01*
X167255714Y-116883500D01*
X167350952Y-116921595D01*
X167398571Y-116959690D01*
X167446190Y-117035880D01*
X167446190Y-117340642D01*
X167827142Y-116540642D02*
X167874761Y-116502547D01*
X167922380Y-116540642D01*
X167874761Y-116578738D01*
X167827142Y-116540642D01*
X167922380Y-116540642D01*
X167303333Y-116540642D02*
X167350952Y-116502547D01*
X167398571Y-116540642D01*
X167350952Y-116578738D01*
X167303333Y-116540642D01*
X167398571Y-116540642D01*
X167922380Y-115740642D02*
X167922380Y-116197785D01*
X167922380Y-115969214D02*
X166922380Y-115969214D01*
X167065238Y-116045404D01*
X167160476Y-116121595D01*
X167208095Y-116197785D01*
X166922380Y-115016833D02*
X166922380Y-115397785D01*
X167398571Y-115435880D01*
X167350952Y-115397785D01*
X167303333Y-115321595D01*
X167303333Y-115131119D01*
X167350952Y-115054928D01*
X167398571Y-115016833D01*
X167493809Y-114978738D01*
X167731904Y-114978738D01*
X167827142Y-115016833D01*
X167874761Y-115054928D01*
X167922380Y-115131119D01*
X167922380Y-115321595D01*
X167874761Y-115397785D01*
X167827142Y-115435880D01*
X166922380Y-114750166D02*
X167922380Y-114483500D01*
X166922380Y-114216833D01*
X167255714Y-113416833D02*
X167922380Y-113264452D01*
X167446190Y-113112071D01*
X167922380Y-112959690D01*
X167255714Y-112807309D01*
X167922380Y-112502547D02*
X167255714Y-112502547D01*
X166922380Y-112502547D02*
X166970000Y-112540642D01*
X167017619Y-112502547D01*
X166970000Y-112464452D01*
X166922380Y-112502547D01*
X167017619Y-112502547D01*
X167255714Y-112235880D02*
X167255714Y-111931119D01*
X166922380Y-112121595D02*
X167779523Y-112121595D01*
X167874761Y-112083500D01*
X167922380Y-112007309D01*
X167922380Y-111931119D01*
X167922380Y-111664452D02*
X166922380Y-111664452D01*
X167922380Y-111321595D02*
X167398571Y-111321595D01*
X167303333Y-111359690D01*
X167255714Y-111435880D01*
X167255714Y-111550166D01*
X167303333Y-111626357D01*
X167350952Y-111664452D01*
X166922380Y-110331119D02*
X167731904Y-110331119D01*
X167827142Y-110293023D01*
X167874761Y-110254928D01*
X167922380Y-110178738D01*
X167922380Y-110026357D01*
X167874761Y-109950166D01*
X167827142Y-109912071D01*
X167731904Y-109873976D01*
X166922380Y-109873976D01*
X167922380Y-109073976D02*
X167922380Y-109531119D01*
X167922380Y-109302547D02*
X166922380Y-109302547D01*
X167065238Y-109378738D01*
X167160476Y-109454928D01*
X167208095Y-109531119D01*
X168532380Y-127169214D02*
X168532380Y-126673976D01*
X168913333Y-126940642D01*
X168913333Y-126826357D01*
X168960952Y-126750166D01*
X169008571Y-126712071D01*
X169103809Y-126673976D01*
X169341904Y-126673976D01*
X169437142Y-126712071D01*
X169484761Y-126750166D01*
X169532380Y-126826357D01*
X169532380Y-127054928D01*
X169484761Y-127131119D01*
X169437142Y-127169214D01*
X169437142Y-126331119D02*
X169484761Y-126293023D01*
X169532380Y-126331119D01*
X169484761Y-126369214D01*
X169437142Y-126331119D01*
X169532380Y-126331119D01*
X169484761Y-125378738D02*
X169532380Y-125264452D01*
X169532380Y-125073976D01*
X169484761Y-124997785D01*
X169437142Y-124959690D01*
X169341904Y-124921595D01*
X169246666Y-124921595D01*
X169151428Y-124959690D01*
X169103809Y-124997785D01*
X169056190Y-125073976D01*
X169008571Y-125226357D01*
X168960952Y-125302547D01*
X168913333Y-125340642D01*
X168818095Y-125378738D01*
X168722857Y-125378738D01*
X168627619Y-125340642D01*
X168580000Y-125302547D01*
X168532380Y-125226357D01*
X168532380Y-125035880D01*
X168580000Y-124921595D01*
X169484761Y-124273976D02*
X169532380Y-124350166D01*
X169532380Y-124502547D01*
X169484761Y-124578738D01*
X169389523Y-124616833D01*
X169008571Y-124616833D01*
X168913333Y-124578738D01*
X168865714Y-124502547D01*
X168865714Y-124350166D01*
X168913333Y-124273976D01*
X169008571Y-124235880D01*
X169103809Y-124235880D01*
X169199047Y-124616833D01*
X168865714Y-124007309D02*
X168865714Y-123702547D01*
X168532380Y-123893023D02*
X169389523Y-123893023D01*
X169484761Y-123854928D01*
X169532380Y-123778738D01*
X169532380Y-123702547D01*
X169532380Y-122407309D02*
X169532380Y-122864452D01*
X169532380Y-122635880D02*
X168532380Y-122635880D01*
X168675238Y-122712071D01*
X168770476Y-122788261D01*
X168818095Y-122864452D01*
X168627619Y-122102547D02*
X168580000Y-122064452D01*
X168532380Y-121988261D01*
X168532380Y-121797785D01*
X168580000Y-121721595D01*
X168627619Y-121683500D01*
X168722857Y-121645404D01*
X168818095Y-121645404D01*
X168960952Y-121683500D01*
X169532380Y-122140642D01*
X169532380Y-121645404D01*
X168532380Y-121416833D02*
X169532380Y-121150166D01*
X168532380Y-120883500D01*
X169532380Y-119893023D02*
X169484761Y-119969214D01*
X169437142Y-120007309D01*
X169341904Y-120045404D01*
X169056190Y-120045404D01*
X168960952Y-120007309D01*
X168913333Y-119969214D01*
X168865714Y-119893023D01*
X168865714Y-119778738D01*
X168913333Y-119702547D01*
X168960952Y-119664452D01*
X169056190Y-119626357D01*
X169341904Y-119626357D01*
X169437142Y-119664452D01*
X169484761Y-119702547D01*
X169532380Y-119778738D01*
X169532380Y-119893023D01*
X168865714Y-119283500D02*
X169532380Y-119283500D01*
X168960952Y-119283500D02*
X168913333Y-119245404D01*
X168865714Y-119169214D01*
X168865714Y-119054928D01*
X168913333Y-118978738D01*
X169008571Y-118940642D01*
X169532380Y-118940642D01*
X168532380Y-118064452D02*
X168532380Y-117607309D01*
X169532380Y-117835880D02*
X168532380Y-117835880D01*
X169532380Y-117340642D02*
X168532380Y-117340642D01*
X168532380Y-117035880D01*
X168580000Y-116959690D01*
X168627619Y-116921595D01*
X168722857Y-116883500D01*
X168865714Y-116883500D01*
X168960952Y-116921595D01*
X169008571Y-116959690D01*
X169056190Y-117035880D01*
X169056190Y-117340642D01*
X169437142Y-116540642D02*
X169484761Y-116502547D01*
X169532380Y-116540642D01*
X169484761Y-116578738D01*
X169437142Y-116540642D01*
X169532380Y-116540642D01*
X168913333Y-116540642D02*
X168960952Y-116502547D01*
X169008571Y-116540642D01*
X168960952Y-116578738D01*
X168913333Y-116540642D01*
X169008571Y-116540642D01*
X169532380Y-115740642D02*
X169532380Y-116197785D01*
X169532380Y-115969214D02*
X168532380Y-115969214D01*
X168675238Y-116045404D01*
X168770476Y-116121595D01*
X168818095Y-116197785D01*
X168627619Y-115435880D02*
X168580000Y-115397785D01*
X168532380Y-115321595D01*
X168532380Y-115131119D01*
X168580000Y-115054928D01*
X168627619Y-115016833D01*
X168722857Y-114978738D01*
X168818095Y-114978738D01*
X168960952Y-115016833D01*
X169532380Y-115473976D01*
X169532380Y-114978738D01*
X168532380Y-114750166D02*
X169532380Y-114483500D01*
X168532380Y-114216833D01*
X168865714Y-113416833D02*
X169532380Y-113264452D01*
X169056190Y-113112071D01*
X169532380Y-112959690D01*
X168865714Y-112807309D01*
X169532380Y-112502547D02*
X168865714Y-112502547D01*
X168532380Y-112502547D02*
X168580000Y-112540642D01*
X168627619Y-112502547D01*
X168580000Y-112464452D01*
X168532380Y-112502547D01*
X168627619Y-112502547D01*
X168865714Y-112235880D02*
X168865714Y-111931119D01*
X168532380Y-112121595D02*
X169389523Y-112121595D01*
X169484761Y-112083500D01*
X169532380Y-112007309D01*
X169532380Y-111931119D01*
X169532380Y-111664452D02*
X168532380Y-111664452D01*
X169532380Y-111321595D02*
X169008571Y-111321595D01*
X168913333Y-111359690D01*
X168865714Y-111435880D01*
X168865714Y-111550166D01*
X168913333Y-111626357D01*
X168960952Y-111664452D01*
X168532380Y-110331119D02*
X169341904Y-110331119D01*
X169437142Y-110293023D01*
X169484761Y-110254928D01*
X169532380Y-110178738D01*
X169532380Y-110026357D01*
X169484761Y-109950166D01*
X169437142Y-109912071D01*
X169341904Y-109873976D01*
X168532380Y-109873976D01*
X168627619Y-109531119D02*
X168580000Y-109493023D01*
X168532380Y-109416833D01*
X168532380Y-109226357D01*
X168580000Y-109150166D01*
X168627619Y-109112071D01*
X168722857Y-109073976D01*
X168818095Y-109073976D01*
X168960952Y-109112071D01*
X169532380Y-109569214D01*
X169532380Y-109073976D01*
X170475714Y-126750166D02*
X171142380Y-126750166D01*
X170094761Y-126940642D02*
X170809047Y-127131119D01*
X170809047Y-126635880D01*
X171047142Y-126331119D02*
X171094761Y-126293023D01*
X171142380Y-126331119D01*
X171094761Y-126369214D01*
X171047142Y-126331119D01*
X171142380Y-126331119D01*
X171094761Y-125378738D02*
X171142380Y-125264452D01*
X171142380Y-125073976D01*
X171094761Y-124997785D01*
X171047142Y-124959690D01*
X170951904Y-124921595D01*
X170856666Y-124921595D01*
X170761428Y-124959690D01*
X170713809Y-124997785D01*
X170666190Y-125073976D01*
X170618571Y-125226357D01*
X170570952Y-125302547D01*
X170523333Y-125340642D01*
X170428095Y-125378738D01*
X170332857Y-125378738D01*
X170237619Y-125340642D01*
X170190000Y-125302547D01*
X170142380Y-125226357D01*
X170142380Y-125035880D01*
X170190000Y-124921595D01*
X171094761Y-124273976D02*
X171142380Y-124350166D01*
X171142380Y-124502547D01*
X171094761Y-124578738D01*
X170999523Y-124616833D01*
X170618571Y-124616833D01*
X170523333Y-124578738D01*
X170475714Y-124502547D01*
X170475714Y-124350166D01*
X170523333Y-124273976D01*
X170618571Y-124235880D01*
X170713809Y-124235880D01*
X170809047Y-124616833D01*
X170475714Y-124007309D02*
X170475714Y-123702547D01*
X170142380Y-123893023D02*
X170999523Y-123893023D01*
X171094761Y-123854928D01*
X171142380Y-123778738D01*
X171142380Y-123702547D01*
X170761428Y-122826357D02*
X170761428Y-122216833D01*
X171142380Y-121416833D02*
X171142380Y-121873976D01*
X171142380Y-121645404D02*
X170142380Y-121645404D01*
X170285238Y-121721595D01*
X170380476Y-121797785D01*
X170428095Y-121873976D01*
X170237619Y-121112071D02*
X170190000Y-121073976D01*
X170142380Y-120997785D01*
X170142380Y-120807309D01*
X170190000Y-120731119D01*
X170237619Y-120693023D01*
X170332857Y-120654928D01*
X170428095Y-120654928D01*
X170570952Y-120693023D01*
X171142380Y-121150166D01*
X171142380Y-120654928D01*
X170142380Y-120426357D02*
X171142380Y-120159690D01*
X170142380Y-119893023D01*
X171142380Y-118902547D02*
X171094761Y-118978738D01*
X171047142Y-119016833D01*
X170951904Y-119054928D01*
X170666190Y-119054928D01*
X170570952Y-119016833D01*
X170523333Y-118978738D01*
X170475714Y-118902547D01*
X170475714Y-118788261D01*
X170523333Y-118712071D01*
X170570952Y-118673976D01*
X170666190Y-118635880D01*
X170951904Y-118635880D01*
X171047142Y-118673976D01*
X171094761Y-118712071D01*
X171142380Y-118788261D01*
X171142380Y-118902547D01*
X170475714Y-118293023D02*
X171142380Y-118293023D01*
X170570952Y-118293023D02*
X170523333Y-118254928D01*
X170475714Y-118178738D01*
X170475714Y-118064452D01*
X170523333Y-117988261D01*
X170618571Y-117950166D01*
X171142380Y-117950166D01*
X170142380Y-117073976D02*
X170142380Y-116616833D01*
X171142380Y-116845404D02*
X170142380Y-116845404D01*
X171142380Y-116350166D02*
X170142380Y-116350166D01*
X170142380Y-116045404D01*
X170190000Y-115969214D01*
X170237619Y-115931119D01*
X170332857Y-115893023D01*
X170475714Y-115893023D01*
X170570952Y-115931119D01*
X170618571Y-115969214D01*
X170666190Y-116045404D01*
X170666190Y-116350166D01*
X171047142Y-115550166D02*
X171094761Y-115512071D01*
X171142380Y-115550166D01*
X171094761Y-115588261D01*
X171047142Y-115550166D01*
X171142380Y-115550166D01*
X170523333Y-115550166D02*
X170570952Y-115512071D01*
X170618571Y-115550166D01*
X170570952Y-115588261D01*
X170523333Y-115550166D01*
X170618571Y-115550166D01*
X170761428Y-115169214D02*
X170761428Y-114559690D01*
X171142380Y-113759690D02*
X171142380Y-114216833D01*
X171142380Y-113988261D02*
X170142380Y-113988261D01*
X170285238Y-114064452D01*
X170380476Y-114140642D01*
X170428095Y-114216833D01*
X170237619Y-113454928D02*
X170190000Y-113416833D01*
X170142380Y-113340642D01*
X170142380Y-113150166D01*
X170190000Y-113073976D01*
X170237619Y-113035880D01*
X170332857Y-112997785D01*
X170428095Y-112997785D01*
X170570952Y-113035880D01*
X171142380Y-113493023D01*
X171142380Y-112997785D01*
X170142380Y-112769214D02*
X171142380Y-112502547D01*
X170142380Y-112235880D01*
X170475714Y-111435880D02*
X171142380Y-111283500D01*
X170666190Y-111131119D01*
X171142380Y-110978738D01*
X170475714Y-110826357D01*
X171142380Y-110521595D02*
X170475714Y-110521595D01*
X170142380Y-110521595D02*
X170190000Y-110559690D01*
X170237619Y-110521595D01*
X170190000Y-110483500D01*
X170142380Y-110521595D01*
X170237619Y-110521595D01*
X170475714Y-110254928D02*
X170475714Y-109950166D01*
X170142380Y-110140642D02*
X170999523Y-110140642D01*
X171094761Y-110102547D01*
X171142380Y-110026357D01*
X171142380Y-109950166D01*
X171142380Y-109683500D02*
X170142380Y-109683500D01*
X171142380Y-109340642D02*
X170618571Y-109340642D01*
X170523333Y-109378738D01*
X170475714Y-109454928D01*
X170475714Y-109569214D01*
X170523333Y-109645404D01*
X170570952Y-109683500D01*
X170142380Y-108350166D02*
X170951904Y-108350166D01*
X171047142Y-108312071D01*
X171094761Y-108273976D01*
X171142380Y-108197785D01*
X171142380Y-108045404D01*
X171094761Y-107969214D01*
X171047142Y-107931119D01*
X170951904Y-107893023D01*
X170142380Y-107893023D01*
X170142380Y-107588261D02*
X170142380Y-107093023D01*
X170523333Y-107359690D01*
X170523333Y-107245404D01*
X170570952Y-107169214D01*
X170618571Y-107131119D01*
X170713809Y-107093023D01*
X170951904Y-107093023D01*
X171047142Y-107131119D01*
X171094761Y-107169214D01*
X171142380Y-107245404D01*
X171142380Y-107473976D01*
X171094761Y-107550166D01*
X171047142Y-107588261D01*
X169275142Y-132255642D02*
X169275142Y-131798500D01*
X169579904Y-131198500D02*
X169579904Y-131541357D01*
X169579904Y-131369928D02*
X168779904Y-131369928D01*
X168894190Y-131427071D01*
X168970380Y-131484214D01*
X169008476Y-131541357D01*
X168856095Y-130969928D02*
X168818000Y-130941357D01*
X168779904Y-130884214D01*
X168779904Y-130741357D01*
X168818000Y-130684214D01*
X168856095Y-130655642D01*
X168932285Y-130627071D01*
X169008476Y-130627071D01*
X169122761Y-130655642D01*
X169579904Y-130998500D01*
X169579904Y-130627071D01*
X168779904Y-130455642D02*
X169579904Y-130255642D01*
X168779904Y-130055642D01*
X123966380Y-133772095D02*
X123966380Y-133314952D01*
X124966380Y-133543523D02*
X123966380Y-133543523D01*
X124966380Y-133048285D02*
X123966380Y-133048285D01*
X123966380Y-132743523D01*
X124014000Y-132667333D01*
X124061619Y-132629238D01*
X124156857Y-132591142D01*
X124299714Y-132591142D01*
X124394952Y-132629238D01*
X124442571Y-132667333D01*
X124490190Y-132743523D01*
X124490190Y-133048285D01*
X124871142Y-132248285D02*
X124918761Y-132210190D01*
X124966380Y-132248285D01*
X124918761Y-132286380D01*
X124871142Y-132248285D01*
X124966380Y-132248285D01*
X124347333Y-132248285D02*
X124394952Y-132210190D01*
X124442571Y-132248285D01*
X124394952Y-132286380D01*
X124347333Y-132248285D01*
X124442571Y-132248285D01*
X124014000Y-131448285D02*
X123966380Y-131524476D01*
X123966380Y-131638761D01*
X124014000Y-131753047D01*
X124109238Y-131829238D01*
X124204476Y-131867333D01*
X124394952Y-131905428D01*
X124537809Y-131905428D01*
X124728285Y-131867333D01*
X124823523Y-131829238D01*
X124918761Y-131753047D01*
X124966380Y-131638761D01*
X124966380Y-131562571D01*
X124918761Y-131448285D01*
X124871142Y-131410190D01*
X124537809Y-131410190D01*
X124537809Y-131562571D01*
X124966380Y-131067333D02*
X123966380Y-131067333D01*
X124966380Y-130610190D01*
X123966380Y-130610190D01*
X124966380Y-130229238D02*
X123966380Y-130229238D01*
X123966380Y-130038761D01*
X124014000Y-129924476D01*
X124109238Y-129848285D01*
X124204476Y-129810190D01*
X124394952Y-129772095D01*
X124537809Y-129772095D01*
X124728285Y-129810190D01*
X124823523Y-129848285D01*
X124918761Y-129924476D01*
X124966380Y-130038761D01*
X124966380Y-130229238D01*
X159764380Y-132296976D02*
X159764380Y-132754119D01*
X159764380Y-132525547D02*
X158764380Y-132525547D01*
X158907238Y-132601738D01*
X159002476Y-132677928D01*
X159050095Y-132754119D01*
X158764380Y-131573166D02*
X158764380Y-131954119D01*
X159240571Y-131992214D01*
X159192952Y-131954119D01*
X159145333Y-131877928D01*
X159145333Y-131687452D01*
X159192952Y-131611261D01*
X159240571Y-131573166D01*
X159335809Y-131535071D01*
X159573904Y-131535071D01*
X159669142Y-131573166D01*
X159716761Y-131611261D01*
X159764380Y-131687452D01*
X159764380Y-131877928D01*
X159716761Y-131954119D01*
X159669142Y-131992214D01*
X158764380Y-131306500D02*
X159764380Y-131039833D01*
X158764380Y-130773166D01*
X159383428Y-137542023D02*
X159383428Y-136932500D01*
X159764380Y-136132500D02*
X159764380Y-136589642D01*
X159764380Y-136361071D02*
X158764380Y-136361071D01*
X158907238Y-136437261D01*
X159002476Y-136513452D01*
X159050095Y-136589642D01*
X158859619Y-135827738D02*
X158812000Y-135789642D01*
X158764380Y-135713452D01*
X158764380Y-135522976D01*
X158812000Y-135446785D01*
X158859619Y-135408690D01*
X158954857Y-135370595D01*
X159050095Y-135370595D01*
X159192952Y-135408690D01*
X159764380Y-135865833D01*
X159764380Y-135370595D01*
X158764380Y-135142023D02*
X159764380Y-134875357D01*
X158764380Y-134608690D01*
D13*
X124784095Y-88879428D02*
X125546000Y-88879428D01*
X126546000Y-89260380D02*
X125974571Y-89260380D01*
X126260285Y-89260380D02*
X126260285Y-88260380D01*
X126165047Y-88403238D01*
X126069809Y-88498476D01*
X125974571Y-88546095D01*
X126926952Y-88355619D02*
X126974571Y-88308000D01*
X127069809Y-88260380D01*
X127307904Y-88260380D01*
X127403142Y-88308000D01*
X127450761Y-88355619D01*
X127498380Y-88450857D01*
X127498380Y-88546095D01*
X127450761Y-88688952D01*
X126879333Y-89260380D01*
X127498380Y-89260380D01*
X127784095Y-88260380D02*
X128117428Y-89260380D01*
X128450761Y-88260380D01*
X124784095Y-102087428D02*
X125546000Y-102087428D01*
X126546000Y-102468380D02*
X125974571Y-102468380D01*
X126260285Y-102468380D02*
X126260285Y-101468380D01*
X126165047Y-101611238D01*
X126069809Y-101706476D01*
X125974571Y-101754095D01*
X126926952Y-101563619D02*
X126974571Y-101516000D01*
X127069809Y-101468380D01*
X127307904Y-101468380D01*
X127403142Y-101516000D01*
X127450761Y-101563619D01*
X127498380Y-101658857D01*
X127498380Y-101754095D01*
X127450761Y-101896952D01*
X126879333Y-102468380D01*
X127498380Y-102468380D01*
X127784095Y-101468380D02*
X128117428Y-102468380D01*
X128450761Y-101468380D01*
D10*
X169579904Y-104763357D02*
X169579904Y-105106214D01*
X169579904Y-104934785D02*
X168779904Y-104934785D01*
X168894190Y-104991928D01*
X168970380Y-105049071D01*
X169008476Y-105106214D01*
X168856095Y-104534785D02*
X168818000Y-104506214D01*
X168779904Y-104449071D01*
X168779904Y-104306214D01*
X168818000Y-104249071D01*
X168856095Y-104220500D01*
X168932285Y-104191928D01*
X169008476Y-104191928D01*
X169122761Y-104220500D01*
X169579904Y-104563357D01*
X169579904Y-104191928D01*
X168779904Y-104020500D02*
X169579904Y-103820500D01*
X168779904Y-103620500D01*
D11*
X140006285Y-140985142D02*
X138206285Y-140985142D01*
X140006285Y-140270857D02*
X138206285Y-140270857D01*
X140006285Y-139413714D01*
X138206285Y-139413714D01*
X139834857Y-138699428D02*
X139920571Y-138628000D01*
X140006285Y-138699428D01*
X139920571Y-138770857D01*
X139834857Y-138699428D01*
X140006285Y-138699428D01*
X138892000Y-138699428D02*
X138977714Y-138628000D01*
X139063428Y-138699428D01*
X138977714Y-138770857D01*
X138892000Y-138699428D01*
X139063428Y-138699428D01*
X140006285Y-136056571D02*
X140006285Y-136913714D01*
X140006285Y-136485142D02*
X138206285Y-136485142D01*
X138463428Y-136628000D01*
X138634857Y-136770857D01*
X138720571Y-136913714D01*
X138377714Y-135485142D02*
X138292000Y-135413714D01*
X138206285Y-135270857D01*
X138206285Y-134913714D01*
X138292000Y-134770857D01*
X138377714Y-134699428D01*
X138549142Y-134628000D01*
X138720571Y-134628000D01*
X138977714Y-134699428D01*
X140006285Y-135556571D01*
X140006285Y-134628000D01*
X138206285Y-134199428D02*
X140006285Y-133699428D01*
X138206285Y-133199428D01*
X140006285Y-131556571D02*
X138206285Y-131556571D01*
X138206285Y-131199428D01*
X138292000Y-130985142D01*
X138463428Y-130842285D01*
X138634857Y-130770857D01*
X138977714Y-130699428D01*
X139234857Y-130699428D01*
X139577714Y-130770857D01*
X139749142Y-130842285D01*
X139920571Y-130985142D01*
X140006285Y-131199428D01*
X140006285Y-131556571D01*
X139834857Y-129199428D02*
X139920571Y-129270857D01*
X140006285Y-129485142D01*
X140006285Y-129628000D01*
X139920571Y-129842285D01*
X139749142Y-129985142D01*
X139577714Y-130056571D01*
X139234857Y-130128000D01*
X138977714Y-130128000D01*
X138634857Y-130056571D01*
X138463428Y-129985142D01*
X138292000Y-129842285D01*
X138206285Y-129628000D01*
X138206285Y-129485142D01*
X138292000Y-129270857D01*
X138377714Y-129199428D01*
D10*
X153684380Y-136386309D02*
X153684380Y-135929166D01*
X154684380Y-136157738D02*
X153684380Y-136157738D01*
X154684380Y-135662500D02*
X153684380Y-135662500D01*
X153684380Y-135357738D01*
X153732000Y-135281547D01*
X153779619Y-135243452D01*
X153874857Y-135205357D01*
X154017714Y-135205357D01*
X154112952Y-135243452D01*
X154160571Y-135281547D01*
X154208190Y-135357738D01*
X154208190Y-135662500D01*
X154589142Y-134862500D02*
X154636761Y-134824404D01*
X154684380Y-134862500D01*
X154636761Y-134900595D01*
X154589142Y-134862500D01*
X154684380Y-134862500D01*
X154065333Y-134862500D02*
X154112952Y-134824404D01*
X154160571Y-134862500D01*
X154112952Y-134900595D01*
X154065333Y-134862500D01*
X154160571Y-134862500D01*
D14*
X132661333Y-65138285D02*
X133728000Y-65138285D01*
X133194666Y-65747809D02*
X133194666Y-64528761D01*
X135128000Y-65747809D02*
X134328000Y-65747809D01*
X134728000Y-65747809D02*
X134728000Y-64147809D01*
X134594666Y-64376380D01*
X134461333Y-64528761D01*
X134328000Y-64604952D01*
X135661333Y-64300190D02*
X135728000Y-64224000D01*
X135861333Y-64147809D01*
X136194666Y-64147809D01*
X136328000Y-64224000D01*
X136394666Y-64300190D01*
X136461333Y-64452571D01*
X136461333Y-64604952D01*
X136394666Y-64833523D01*
X135594666Y-65747809D01*
X136461333Y-65747809D01*
X136861333Y-64147809D02*
X137328000Y-65747809D01*
X137794666Y-64147809D01*
D11*
X146969285Y-85066000D02*
X146969285Y-84780285D01*
X147055000Y-84637428D01*
X147226428Y-84494571D01*
X147569285Y-84423142D01*
X148169285Y-84423142D01*
X148512142Y-84494571D01*
X148683571Y-84637428D01*
X148769285Y-84780285D01*
X148769285Y-85066000D01*
X148683571Y-85208857D01*
X148512142Y-85351714D01*
X148169285Y-85423142D01*
X147569285Y-85423142D01*
X147226428Y-85351714D01*
X147055000Y-85208857D01*
X146969285Y-85066000D01*
X146969285Y-83780285D02*
X148426428Y-83780285D01*
X148597857Y-83708857D01*
X148683571Y-83637428D01*
X148769285Y-83494571D01*
X148769285Y-83208857D01*
X148683571Y-83066000D01*
X148597857Y-82994571D01*
X148426428Y-82923142D01*
X146969285Y-82923142D01*
X146969285Y-82423142D02*
X146969285Y-81566000D01*
X148769285Y-81994571D02*
X146969285Y-81994571D01*
D13*
X139512476Y-91003380D02*
X139512476Y-90003380D01*
X139702952Y-90003380D01*
X139817238Y-90051000D01*
X139893428Y-90146238D01*
X139931523Y-90241476D01*
X139969619Y-90431952D01*
X139969619Y-90574809D01*
X139931523Y-90765285D01*
X139893428Y-90860523D01*
X139817238Y-90955761D01*
X139702952Y-91003380D01*
X139512476Y-91003380D01*
X140655333Y-90336714D02*
X140655333Y-91003380D01*
X140312476Y-90336714D02*
X140312476Y-90860523D01*
X140350571Y-90955761D01*
X140426761Y-91003380D01*
X140541047Y-91003380D01*
X140617238Y-90955761D01*
X140655333Y-90908142D01*
X141379142Y-91003380D02*
X141379142Y-90479571D01*
X141341047Y-90384333D01*
X141264857Y-90336714D01*
X141112476Y-90336714D01*
X141036285Y-90384333D01*
X141379142Y-90955761D02*
X141302952Y-91003380D01*
X141112476Y-91003380D01*
X141036285Y-90955761D01*
X140998190Y-90860523D01*
X140998190Y-90765285D01*
X141036285Y-90670047D01*
X141112476Y-90622428D01*
X141302952Y-90622428D01*
X141379142Y-90574809D01*
X141874380Y-91003380D02*
X141798190Y-90955761D01*
X141760095Y-90860523D01*
X141760095Y-90003380D01*
X142788666Y-91003380D02*
X142788666Y-90003380D01*
X143093428Y-90003380D01*
X143169619Y-90051000D01*
X143207714Y-90098619D01*
X143245809Y-90193857D01*
X143245809Y-90336714D01*
X143207714Y-90431952D01*
X143169619Y-90479571D01*
X143093428Y-90527190D01*
X142788666Y-90527190D01*
X143550571Y-90955761D02*
X143664857Y-91003380D01*
X143855333Y-91003380D01*
X143931523Y-90955761D01*
X143969619Y-90908142D01*
X144007714Y-90812904D01*
X144007714Y-90717666D01*
X143969619Y-90622428D01*
X143931523Y-90574809D01*
X143855333Y-90527190D01*
X143702952Y-90479571D01*
X143626761Y-90431952D01*
X143588666Y-90384333D01*
X143550571Y-90289095D01*
X143550571Y-90193857D01*
X143588666Y-90098619D01*
X143626761Y-90051000D01*
X143702952Y-90003380D01*
X143893428Y-90003380D01*
X144007714Y-90051000D01*
X144350571Y-90003380D02*
X144350571Y-90812904D01*
X144388666Y-90908142D01*
X144426761Y-90955761D01*
X144502952Y-91003380D01*
X144655333Y-91003380D01*
X144731523Y-90955761D01*
X144769619Y-90908142D01*
X144807714Y-90812904D01*
X144807714Y-90003380D01*
X150946095Y-102087428D02*
X151708000Y-102087428D01*
X152708000Y-102468380D02*
X152136571Y-102468380D01*
X152422285Y-102468380D02*
X152422285Y-101468380D01*
X152327047Y-101611238D01*
X152231809Y-101706476D01*
X152136571Y-101754095D01*
X153088952Y-101563619D02*
X153136571Y-101516000D01*
X153231809Y-101468380D01*
X153469904Y-101468380D01*
X153565142Y-101516000D01*
X153612761Y-101563619D01*
X153660380Y-101658857D01*
X153660380Y-101754095D01*
X153612761Y-101896952D01*
X153041333Y-102468380D01*
X153660380Y-102468380D01*
X153946095Y-101468380D02*
X154279428Y-102468380D01*
X154612761Y-101468380D01*
D10*
X124313904Y-106125357D02*
X124313904Y-106468214D01*
X124313904Y-106296785D02*
X123513904Y-106296785D01*
X123628190Y-106353928D01*
X123704380Y-106411071D01*
X123742476Y-106468214D01*
X123513904Y-105582500D02*
X123513904Y-105868214D01*
X123894857Y-105896785D01*
X123856761Y-105868214D01*
X123818666Y-105811071D01*
X123818666Y-105668214D01*
X123856761Y-105611071D01*
X123894857Y-105582500D01*
X123971047Y-105553928D01*
X124161523Y-105553928D01*
X124237714Y-105582500D01*
X124275809Y-105611071D01*
X124313904Y-105668214D01*
X124313904Y-105811071D01*
X124275809Y-105868214D01*
X124237714Y-105896785D01*
X123513904Y-105382500D02*
X124313904Y-105182500D01*
X123513904Y-104982500D01*
X153684380Y-132576309D02*
X153684380Y-132119166D01*
X154684380Y-132347738D02*
X153684380Y-132347738D01*
X154684380Y-131852500D02*
X153684380Y-131852500D01*
X153684380Y-131547738D01*
X153732000Y-131471547D01*
X153779619Y-131433452D01*
X153874857Y-131395357D01*
X154017714Y-131395357D01*
X154112952Y-131433452D01*
X154160571Y-131471547D01*
X154208190Y-131547738D01*
X154208190Y-131852500D01*
X154589142Y-131052500D02*
X154636761Y-131014404D01*
X154684380Y-131052500D01*
X154636761Y-131090595D01*
X154589142Y-131052500D01*
X154684380Y-131052500D01*
X154065333Y-131052500D02*
X154112952Y-131014404D01*
X154160571Y-131052500D01*
X154112952Y-131090595D01*
X154065333Y-131052500D01*
X154160571Y-131052500D01*
D13*
X150946095Y-88879428D02*
X151708000Y-88879428D01*
X152708000Y-89260380D02*
X152136571Y-89260380D01*
X152422285Y-89260380D02*
X152422285Y-88260380D01*
X152327047Y-88403238D01*
X152231809Y-88498476D01*
X152136571Y-88546095D01*
X153088952Y-88355619D02*
X153136571Y-88308000D01*
X153231809Y-88260380D01*
X153469904Y-88260380D01*
X153565142Y-88308000D01*
X153612761Y-88355619D01*
X153660380Y-88450857D01*
X153660380Y-88546095D01*
X153612761Y-88688952D01*
X153041333Y-89260380D01*
X153660380Y-89260380D01*
X153946095Y-88260380D02*
X154279428Y-89260380D01*
X154612761Y-88260380D01*
D14*
X156791333Y-65138285D02*
X157858000Y-65138285D01*
X159258000Y-65747809D02*
X158458000Y-65747809D01*
X158858000Y-65747809D02*
X158858000Y-64147809D01*
X158724666Y-64376380D01*
X158591333Y-64528761D01*
X158458000Y-64604952D01*
X159791333Y-64300190D02*
X159858000Y-64224000D01*
X159991333Y-64147809D01*
X160324666Y-64147809D01*
X160458000Y-64224000D01*
X160524666Y-64300190D01*
X160591333Y-64452571D01*
X160591333Y-64604952D01*
X160524666Y-64833523D01*
X159724666Y-65747809D01*
X160591333Y-65747809D01*
X160991333Y-64147809D02*
X161458000Y-65747809D01*
X161924666Y-64147809D01*
D10*
X153684380Y-140450309D02*
X153684380Y-139993166D01*
X154684380Y-140221738D02*
X153684380Y-140221738D01*
X154684380Y-139726500D02*
X153684380Y-139726500D01*
X153684380Y-139421738D01*
X153732000Y-139345547D01*
X153779619Y-139307452D01*
X153874857Y-139269357D01*
X154017714Y-139269357D01*
X154112952Y-139307452D01*
X154160571Y-139345547D01*
X154208190Y-139421738D01*
X154208190Y-139726500D01*
X154589142Y-138926500D02*
X154636761Y-138888404D01*
X154684380Y-138926500D01*
X154636761Y-138964595D01*
X154589142Y-138926500D01*
X154684380Y-138926500D01*
X154065333Y-138926500D02*
X154112952Y-138888404D01*
X154160571Y-138926500D01*
X154112952Y-138964595D01*
X154065333Y-138926500D01*
X154160571Y-138926500D01*
X159764380Y-140170976D02*
X159764380Y-140628119D01*
X159764380Y-140399547D02*
X158764380Y-140399547D01*
X158907238Y-140475738D01*
X159002476Y-140551928D01*
X159050095Y-140628119D01*
X158859619Y-139866214D02*
X158812000Y-139828119D01*
X158764380Y-139751928D01*
X158764380Y-139561452D01*
X158812000Y-139485261D01*
X158859619Y-139447166D01*
X158954857Y-139409071D01*
X159050095Y-139409071D01*
X159192952Y-139447166D01*
X159764380Y-139904309D01*
X159764380Y-139409071D01*
X158764380Y-139180500D02*
X159764380Y-138913833D01*
X158764380Y-138647166D01*
X131024380Y-140796309D02*
X131024380Y-140339166D01*
X132024380Y-140567738D02*
X131024380Y-140567738D01*
X132024380Y-140072500D02*
X131024380Y-140072500D01*
X131024380Y-139767738D01*
X131072000Y-139691547D01*
X131119619Y-139653452D01*
X131214857Y-139615357D01*
X131357714Y-139615357D01*
X131452952Y-139653452D01*
X131500571Y-139691547D01*
X131548190Y-139767738D01*
X131548190Y-140072500D01*
X131929142Y-139272500D02*
X131976761Y-139234404D01*
X132024380Y-139272500D01*
X131976761Y-139310595D01*
X131929142Y-139272500D01*
X132024380Y-139272500D01*
X131405333Y-139272500D02*
X131452952Y-139234404D01*
X131500571Y-139272500D01*
X131452952Y-139310595D01*
X131405333Y-139272500D01*
X131500571Y-139272500D01*
X132024380Y-138891547D02*
X131024380Y-138891547D01*
X132024380Y-138510595D02*
X131024380Y-138510595D01*
X132024380Y-138053452D01*
X131024380Y-138053452D01*
X132024380Y-137672500D02*
X131024380Y-137672500D01*
X131024380Y-137367738D01*
X131072000Y-137291547D01*
X131119619Y-137253452D01*
X131214857Y-137215357D01*
X131357714Y-137215357D01*
X131452952Y-137253452D01*
X131500571Y-137291547D01*
X131548190Y-137367738D01*
X131548190Y-137672500D01*
X131024380Y-136872500D02*
X131833904Y-136872500D01*
X131929142Y-136834404D01*
X131976761Y-136796309D01*
X132024380Y-136720119D01*
X132024380Y-136567738D01*
X131976761Y-136491547D01*
X131929142Y-136453452D01*
X131833904Y-136415357D01*
X131024380Y-136415357D01*
X131024380Y-136148690D02*
X131024380Y-135691547D01*
X132024380Y-135920119D02*
X131024380Y-135920119D01*
X129530952Y-128836761D02*
X129645238Y-128884380D01*
X129835714Y-128884380D01*
X129911904Y-128836761D01*
X129950000Y-128789142D01*
X129988095Y-128693904D01*
X129988095Y-128598666D01*
X129950000Y-128503428D01*
X129911904Y-128455809D01*
X129835714Y-128408190D01*
X129683333Y-128360571D01*
X129607142Y-128312952D01*
X129569047Y-128265333D01*
X129530952Y-128170095D01*
X129530952Y-128074857D01*
X129569047Y-127979619D01*
X129607142Y-127932000D01*
X129683333Y-127884380D01*
X129873809Y-127884380D01*
X129988095Y-127932000D01*
X130254761Y-127884380D02*
X130445238Y-128884380D01*
X130597619Y-128170095D01*
X130750000Y-128884380D01*
X130940476Y-127884380D01*
X131054761Y-128979619D02*
X131664285Y-128979619D01*
X132007142Y-127884380D02*
X132159523Y-127884380D01*
X132235714Y-127932000D01*
X132311904Y-128027238D01*
X132350000Y-128217714D01*
X132350000Y-128551047D01*
X132311904Y-128741523D01*
X132235714Y-128836761D01*
X132159523Y-128884380D01*
X132007142Y-128884380D01*
X131930952Y-128836761D01*
X131854761Y-128741523D01*
X131816666Y-128551047D01*
X131816666Y-128217714D01*
X131854761Y-128027238D01*
X131930952Y-127932000D01*
X132007142Y-127884380D01*
X132692857Y-128884380D02*
X132692857Y-127884380D01*
X133150000Y-128884380D01*
X133150000Y-127884380D01*
X133340476Y-128979619D02*
X133950000Y-128979619D01*
X134292857Y-127884380D02*
X134445238Y-127884380D01*
X134521428Y-127932000D01*
X134597619Y-128027238D01*
X134635714Y-128217714D01*
X134635714Y-128551047D01*
X134597619Y-128741523D01*
X134521428Y-128836761D01*
X134445238Y-128884380D01*
X134292857Y-128884380D01*
X134216666Y-128836761D01*
X134140476Y-128741523D01*
X134102380Y-128551047D01*
X134102380Y-128217714D01*
X134140476Y-128027238D01*
X134216666Y-127932000D01*
X134292857Y-127884380D01*
X135245238Y-128360571D02*
X134978571Y-128360571D01*
X134978571Y-128884380D02*
X134978571Y-127884380D01*
X135359523Y-127884380D01*
X135930952Y-128360571D02*
X135664285Y-128360571D01*
X135664285Y-128884380D02*
X135664285Y-127884380D01*
X136045238Y-127884380D01*
X136769047Y-128884380D02*
X136311904Y-128884380D01*
X136540476Y-128884380D02*
X136540476Y-127884380D01*
X136464285Y-128027238D01*
X136388095Y-128122476D01*
X136311904Y-128170095D01*
X123531380Y-109473904D02*
X124340904Y-109473904D01*
X124436142Y-109426285D01*
X124483761Y-109378666D01*
X124531380Y-109283428D01*
X124531380Y-109092952D01*
X124483761Y-108997714D01*
X124436142Y-108950095D01*
X124340904Y-108902476D01*
X123531380Y-108902476D01*
X124531380Y-107902476D02*
X124531380Y-108473904D01*
X124531380Y-108188190D02*
X123531380Y-108188190D01*
X123674238Y-108283428D01*
X123769476Y-108378666D01*
X123817095Y-108473904D01*
X132357761Y-126191309D02*
X132405380Y-126048452D01*
X132405380Y-125810357D01*
X132357761Y-125715119D01*
X132310142Y-125667500D01*
X132214904Y-125619880D01*
X132119666Y-125619880D01*
X132024428Y-125667500D01*
X131976809Y-125715119D01*
X131929190Y-125810357D01*
X131881571Y-126000833D01*
X131833952Y-126096071D01*
X131786333Y-126143690D01*
X131691095Y-126191309D01*
X131595857Y-126191309D01*
X131500619Y-126143690D01*
X131453000Y-126096071D01*
X131405380Y-126000833D01*
X131405380Y-125762738D01*
X131453000Y-125619880D01*
X131405380Y-125334166D02*
X131405380Y-124762738D01*
X132405380Y-125048452D02*
X131405380Y-125048452D01*
X131405380Y-124429404D02*
X132214904Y-124429404D01*
X132310142Y-124381785D01*
X132357761Y-124334166D01*
X132405380Y-124238928D01*
X132405380Y-124048452D01*
X132357761Y-123953214D01*
X132310142Y-123905595D01*
X132214904Y-123857976D01*
X131405380Y-123857976D01*
X132405380Y-123381785D02*
X131405380Y-123381785D01*
X131405380Y-123000833D01*
X131453000Y-122905595D01*
X131500619Y-122857976D01*
X131595857Y-122810357D01*
X131738714Y-122810357D01*
X131833952Y-122857976D01*
X131881571Y-122905595D01*
X131929190Y-123000833D01*
X131929190Y-123381785D01*
X132024428Y-122381785D02*
X132024428Y-121619880D01*
X132357761Y-121191309D02*
X132405380Y-121048452D01*
X132405380Y-120810357D01*
X132357761Y-120715119D01*
X132310142Y-120667500D01*
X132214904Y-120619880D01*
X132119666Y-120619880D01*
X132024428Y-120667500D01*
X131976809Y-120715119D01*
X131929190Y-120810357D01*
X131881571Y-121000833D01*
X131833952Y-121096071D01*
X131786333Y-121143690D01*
X131691095Y-121191309D01*
X131595857Y-121191309D01*
X131500619Y-121143690D01*
X131453000Y-121096071D01*
X131405380Y-121000833D01*
X131405380Y-120762738D01*
X131453000Y-120619880D01*
X131405380Y-120286547D02*
X132405380Y-119619880D01*
X131405380Y-119619880D02*
X132405380Y-120286547D01*
X132405380Y-118715119D02*
X132405380Y-119286547D01*
X132405380Y-119000833D02*
X131405380Y-119000833D01*
X131548238Y-119096071D01*
X131643476Y-119191309D01*
X131691095Y-119286547D01*
X131405380Y-118381785D02*
X131405380Y-117762738D01*
X131786333Y-118096071D01*
X131786333Y-117953214D01*
X131833952Y-117857976D01*
X131881571Y-117810357D01*
X131976809Y-117762738D01*
X132214904Y-117762738D01*
X132310142Y-117810357D01*
X132357761Y-117857976D01*
X132405380Y-117953214D01*
X132405380Y-118238928D01*
X132357761Y-118334166D01*
X132310142Y-118381785D01*
X131405380Y-117143690D02*
X131405380Y-117048452D01*
X131453000Y-116953214D01*
X131500619Y-116905595D01*
X131595857Y-116857976D01*
X131786333Y-116810357D01*
X132024428Y-116810357D01*
X132214904Y-116857976D01*
X132310142Y-116905595D01*
X132357761Y-116953214D01*
X132405380Y-117048452D01*
X132405380Y-117143690D01*
X132357761Y-117238928D01*
X132310142Y-117286547D01*
X132214904Y-117334166D01*
X132024428Y-117381785D01*
X131786333Y-117381785D01*
X131595857Y-117334166D01*
X131500619Y-117286547D01*
X131453000Y-117238928D01*
X131405380Y-117143690D01*
X131833952Y-116238928D02*
X131786333Y-116334166D01*
X131738714Y-116381785D01*
X131643476Y-116429404D01*
X131595857Y-116429404D01*
X131500619Y-116381785D01*
X131453000Y-116334166D01*
X131405380Y-116238928D01*
X131405380Y-116048452D01*
X131453000Y-115953214D01*
X131500619Y-115905595D01*
X131595857Y-115857976D01*
X131643476Y-115857976D01*
X131738714Y-115905595D01*
X131786333Y-115953214D01*
X131833952Y-116048452D01*
X131833952Y-116238928D01*
X131881571Y-116334166D01*
X131929190Y-116381785D01*
X132024428Y-116429404D01*
X132214904Y-116429404D01*
X132310142Y-116381785D01*
X132357761Y-116334166D01*
X132405380Y-116238928D01*
X132405380Y-116048452D01*
X132357761Y-115953214D01*
X132310142Y-115905595D01*
X132214904Y-115857976D01*
X132024428Y-115857976D01*
X131929190Y-115905595D01*
X131881571Y-115953214D01*
X131833952Y-116048452D01*
X139927180Y-116345005D02*
X138927180Y-116345005D01*
X139403371Y-116345005D02*
X139403371Y-115773576D01*
X139927180Y-115773576D02*
X138927180Y-115773576D01*
X138927180Y-115392624D02*
X139927180Y-115154528D01*
X139212895Y-114964052D01*
X139927180Y-114773576D01*
X138927180Y-114535481D01*
X139546228Y-114154528D02*
X139546228Y-113392624D01*
X138927180Y-112487862D02*
X138927180Y-112678338D01*
X138974800Y-112773576D01*
X139022419Y-112821195D01*
X139165276Y-112916433D01*
X139355752Y-112964052D01*
X139736704Y-112964052D01*
X139831942Y-112916433D01*
X139879561Y-112868814D01*
X139927180Y-112773576D01*
X139927180Y-112583100D01*
X139879561Y-112487862D01*
X139831942Y-112440243D01*
X139736704Y-112392624D01*
X139498609Y-112392624D01*
X139403371Y-112440243D01*
X139355752Y-112487862D01*
X139308133Y-112583100D01*
X139308133Y-112773576D01*
X139355752Y-112868814D01*
X139403371Y-112916433D01*
X139498609Y-112964052D01*
X138927180Y-111535481D02*
X138927180Y-111725957D01*
X138974800Y-111821195D01*
X139022419Y-111868814D01*
X139165276Y-111964052D01*
X139355752Y-112011671D01*
X139736704Y-112011671D01*
X139831942Y-111964052D01*
X139879561Y-111916433D01*
X139927180Y-111821195D01*
X139927180Y-111630719D01*
X139879561Y-111535481D01*
X139831942Y-111487862D01*
X139736704Y-111440243D01*
X139498609Y-111440243D01*
X139403371Y-111487862D01*
X139355752Y-111535481D01*
X139308133Y-111630719D01*
X139308133Y-111821195D01*
X139355752Y-111916433D01*
X139403371Y-111964052D01*
X139498609Y-112011671D01*
X139355752Y-110868814D02*
X139308133Y-110964052D01*
X139260514Y-111011671D01*
X139165276Y-111059290D01*
X139117657Y-111059290D01*
X139022419Y-111011671D01*
X138974800Y-110964052D01*
X138927180Y-110868814D01*
X138927180Y-110678338D01*
X138974800Y-110583100D01*
X139022419Y-110535481D01*
X139117657Y-110487862D01*
X139165276Y-110487862D01*
X139260514Y-110535481D01*
X139308133Y-110583100D01*
X139355752Y-110678338D01*
X139355752Y-110868814D01*
X139403371Y-110964052D01*
X139450990Y-111011671D01*
X139546228Y-111059290D01*
X139736704Y-111059290D01*
X139831942Y-111011671D01*
X139879561Y-110964052D01*
X139927180Y-110868814D01*
X139927180Y-110678338D01*
X139879561Y-110583100D01*
X139831942Y-110535481D01*
X139736704Y-110487862D01*
X139546228Y-110487862D01*
X139450990Y-110535481D01*
X139403371Y-110583100D01*
X139355752Y-110678338D01*
X167146380Y-131733904D02*
X167955904Y-131733904D01*
X168051142Y-131686285D01*
X168098761Y-131638666D01*
X168146380Y-131543428D01*
X168146380Y-131352952D01*
X168098761Y-131257714D01*
X168051142Y-131210095D01*
X167955904Y-131162476D01*
X167146380Y-131162476D01*
X167146380Y-130781523D02*
X167146380Y-130162476D01*
X167527333Y-130495809D01*
X167527333Y-130352952D01*
X167574952Y-130257714D01*
X167622571Y-130210095D01*
X167717809Y-130162476D01*
X167955904Y-130162476D01*
X168051142Y-130210095D01*
X168098761Y-130257714D01*
X168146380Y-130352952D01*
X168146380Y-130638666D01*
X168098761Y-130733904D01*
X168051142Y-130781523D01*
X150897547Y-119062847D02*
X151040404Y-119110466D01*
X151278500Y-119110466D01*
X151373738Y-119062847D01*
X151421357Y-119015228D01*
X151468976Y-118919990D01*
X151468976Y-118824752D01*
X151421357Y-118729514D01*
X151373738Y-118681895D01*
X151278500Y-118634276D01*
X151088023Y-118586657D01*
X150992785Y-118539038D01*
X150945166Y-118491419D01*
X150897547Y-118396181D01*
X150897547Y-118300943D01*
X150945166Y-118205705D01*
X150992785Y-118158086D01*
X151088023Y-118110466D01*
X151326119Y-118110466D01*
X151468976Y-118158086D01*
X151754690Y-118110466D02*
X152326119Y-118110466D01*
X152040404Y-119110466D02*
X152040404Y-118110466D01*
X152659452Y-119110466D02*
X152659452Y-118110466D01*
X152897547Y-118110466D01*
X153040404Y-118158086D01*
X153135642Y-118253324D01*
X153183261Y-118348562D01*
X153230880Y-118539038D01*
X153230880Y-118681895D01*
X153183261Y-118872371D01*
X153135642Y-118967609D01*
X153040404Y-119062847D01*
X152897547Y-119110466D01*
X152659452Y-119110466D01*
X153659452Y-119110466D02*
X153659452Y-118110466D01*
X154230880Y-119110466D01*
X154230880Y-118110466D01*
X154707071Y-118729514D02*
X155468976Y-118729514D01*
X155849928Y-118110466D02*
X156468976Y-118110466D01*
X156135642Y-118491419D01*
X156278500Y-118491419D01*
X156373738Y-118539038D01*
X156421357Y-118586657D01*
X156468976Y-118681895D01*
X156468976Y-118919990D01*
X156421357Y-119015228D01*
X156373738Y-119062847D01*
X156278500Y-119110466D01*
X155992785Y-119110466D01*
X155897547Y-119062847D01*
X155849928Y-119015228D01*
X156849928Y-118824752D02*
X157326119Y-118824752D01*
X156754690Y-119110466D02*
X157088023Y-118110466D01*
X157421357Y-119110466D01*
X157707071Y-118205705D02*
X157754690Y-118158086D01*
X157849928Y-118110466D01*
X158088023Y-118110466D01*
X158183261Y-118158086D01*
X158230880Y-118205705D01*
X158278500Y-118300943D01*
X158278500Y-118396181D01*
X158230880Y-118539038D01*
X157659452Y-119110466D01*
X158278500Y-119110466D01*
X159135642Y-118443800D02*
X159135642Y-119110466D01*
X158897547Y-118062847D02*
X158659452Y-118777133D01*
X159278500Y-118777133D01*
X159659452Y-118729514D02*
X160421357Y-118729514D01*
X160849928Y-118824752D02*
X161326119Y-118824752D01*
X160754690Y-119110466D02*
X161088023Y-118110466D01*
X161421357Y-119110466D01*
X161754690Y-119110466D02*
X161754690Y-118110466D01*
X161992785Y-118110466D01*
X162135642Y-118158086D01*
X162230880Y-118253324D01*
X162278500Y-118348562D01*
X162326119Y-118539038D01*
X162326119Y-118681895D01*
X162278500Y-118872371D01*
X162230880Y-118967609D01*
X162135642Y-119062847D01*
X161992785Y-119110466D01*
X161754690Y-119110466D01*
X163040404Y-118110466D02*
X163040404Y-118824752D01*
X162992785Y-118967609D01*
X162897547Y-119062847D01*
X162754690Y-119110466D01*
X162659452Y-119110466D01*
X150880880Y-126730466D02*
X150880880Y-125730466D01*
X150880880Y-126206657D02*
X151452309Y-126206657D01*
X151452309Y-126730466D02*
X151452309Y-125730466D01*
X151833261Y-125730466D02*
X152071357Y-126730466D01*
X152261833Y-126016181D01*
X152452309Y-126730466D01*
X152690404Y-125730466D01*
X153071357Y-126349514D02*
X153833261Y-126349514D01*
X154738023Y-125730466D02*
X154547547Y-125730466D01*
X154452309Y-125778086D01*
X154404690Y-125825705D01*
X154309452Y-125968562D01*
X154261833Y-126159038D01*
X154261833Y-126539990D01*
X154309452Y-126635228D01*
X154357071Y-126682847D01*
X154452309Y-126730466D01*
X154642785Y-126730466D01*
X154738023Y-126682847D01*
X154785642Y-126635228D01*
X154833261Y-126539990D01*
X154833261Y-126301895D01*
X154785642Y-126206657D01*
X154738023Y-126159038D01*
X154642785Y-126111419D01*
X154452309Y-126111419D01*
X154357071Y-126159038D01*
X154309452Y-126206657D01*
X154261833Y-126301895D01*
X155785642Y-126730466D02*
X155214214Y-126730466D01*
X155499928Y-126730466D02*
X155499928Y-125730466D01*
X155404690Y-125873324D01*
X155309452Y-125968562D01*
X155214214Y-126016181D01*
X156118976Y-125730466D02*
X156738023Y-125730466D01*
X156404690Y-126111419D01*
X156547547Y-126111419D01*
X156642785Y-126159038D01*
X156690404Y-126206657D01*
X156738023Y-126301895D01*
X156738023Y-126539990D01*
X156690404Y-126635228D01*
X156642785Y-126682847D01*
X156547547Y-126730466D01*
X156261833Y-126730466D01*
X156166595Y-126682847D01*
X156118976Y-126635228D01*
X129919119Y-74649904D02*
X129652452Y-74268952D01*
X129461976Y-74649904D02*
X129461976Y-73849904D01*
X129766738Y-73849904D01*
X129842928Y-73888000D01*
X129881023Y-73926095D01*
X129919119Y-74002285D01*
X129919119Y-74116571D01*
X129881023Y-74192761D01*
X129842928Y-74230857D01*
X129766738Y-74268952D01*
X129461976Y-74268952D01*
X130681023Y-74649904D02*
X130223880Y-74649904D01*
X130452452Y-74649904D02*
X130452452Y-73849904D01*
X130376261Y-73964190D01*
X130300071Y-74040380D01*
X130223880Y-74078476D01*
X167146380Y-105063904D02*
X167955904Y-105063904D01*
X168051142Y-105016285D01*
X168098761Y-104968666D01*
X168146380Y-104873428D01*
X168146380Y-104682952D01*
X168098761Y-104587714D01*
X168051142Y-104540095D01*
X167955904Y-104492476D01*
X167146380Y-104492476D01*
X167241619Y-104063904D02*
X167194000Y-104016285D01*
X167146380Y-103921047D01*
X167146380Y-103682952D01*
X167194000Y-103587714D01*
X167241619Y-103540095D01*
X167336857Y-103492476D01*
X167432095Y-103492476D01*
X167574952Y-103540095D01*
X168146380Y-104111523D01*
X168146380Y-103492476D01*
X150880880Y-114284466D02*
X150880880Y-113284466D01*
X150880880Y-113760657D02*
X151452309Y-113760657D01*
X151452309Y-114284466D02*
X151452309Y-113284466D01*
X151833261Y-113284466D02*
X152071357Y-114284466D01*
X152261833Y-113570181D01*
X152452309Y-114284466D01*
X152690404Y-113284466D01*
X153071357Y-113903514D02*
X153833261Y-113903514D01*
X154738023Y-113284466D02*
X154547547Y-113284466D01*
X154452309Y-113332086D01*
X154404690Y-113379705D01*
X154309452Y-113522562D01*
X154261833Y-113713038D01*
X154261833Y-114093990D01*
X154309452Y-114189228D01*
X154357071Y-114236847D01*
X154452309Y-114284466D01*
X154642785Y-114284466D01*
X154738023Y-114236847D01*
X154785642Y-114189228D01*
X154833261Y-114093990D01*
X154833261Y-113855895D01*
X154785642Y-113760657D01*
X154738023Y-113713038D01*
X154642785Y-113665419D01*
X154452309Y-113665419D01*
X154357071Y-113713038D01*
X154309452Y-113760657D01*
X154261833Y-113855895D01*
X155785642Y-114284466D02*
X155214214Y-114284466D01*
X155499928Y-114284466D02*
X155499928Y-113284466D01*
X155404690Y-113427324D01*
X155309452Y-113522562D01*
X155214214Y-113570181D01*
X156118976Y-113284466D02*
X156738023Y-113284466D01*
X156404690Y-113665419D01*
X156547547Y-113665419D01*
X156642785Y-113713038D01*
X156690404Y-113760657D01*
X156738023Y-113855895D01*
X156738023Y-114093990D01*
X156690404Y-114189228D01*
X156642785Y-114236847D01*
X156547547Y-114284466D01*
X156261833Y-114284466D01*
X156166595Y-114236847D01*
X156118976Y-114189228D01*
X150897547Y-108735761D02*
X151040404Y-108783380D01*
X151278500Y-108783380D01*
X151373738Y-108735761D01*
X151421357Y-108688142D01*
X151468976Y-108592904D01*
X151468976Y-108497666D01*
X151421357Y-108402428D01*
X151373738Y-108354809D01*
X151278500Y-108307190D01*
X151088023Y-108259571D01*
X150992785Y-108211952D01*
X150945166Y-108164333D01*
X150897547Y-108069095D01*
X150897547Y-107973857D01*
X150945166Y-107878619D01*
X150992785Y-107831000D01*
X151088023Y-107783380D01*
X151326119Y-107783380D01*
X151468976Y-107831000D01*
X151754690Y-107783380D02*
X152326119Y-107783380D01*
X152040404Y-108783380D02*
X152040404Y-107783380D01*
X152659452Y-108783380D02*
X152659452Y-107783380D01*
X152897547Y-107783380D01*
X153040404Y-107831000D01*
X153135642Y-107926238D01*
X153183261Y-108021476D01*
X153230880Y-108211952D01*
X153230880Y-108354809D01*
X153183261Y-108545285D01*
X153135642Y-108640523D01*
X153040404Y-108735761D01*
X152897547Y-108783380D01*
X152659452Y-108783380D01*
X153659452Y-108783380D02*
X153659452Y-107783380D01*
X154230880Y-108783380D01*
X154230880Y-107783380D01*
X154707071Y-108402428D02*
X155468976Y-108402428D01*
X155849928Y-107783380D02*
X156468976Y-107783380D01*
X156135642Y-108164333D01*
X156278500Y-108164333D01*
X156373738Y-108211952D01*
X156421357Y-108259571D01*
X156468976Y-108354809D01*
X156468976Y-108592904D01*
X156421357Y-108688142D01*
X156373738Y-108735761D01*
X156278500Y-108783380D01*
X155992785Y-108783380D01*
X155897547Y-108735761D01*
X155849928Y-108688142D01*
X156849928Y-108497666D02*
X157326119Y-108497666D01*
X156754690Y-108783380D02*
X157088023Y-107783380D01*
X157421357Y-108783380D01*
X157707071Y-107878619D02*
X157754690Y-107831000D01*
X157849928Y-107783380D01*
X158088023Y-107783380D01*
X158183261Y-107831000D01*
X158230880Y-107878619D01*
X158278500Y-107973857D01*
X158278500Y-108069095D01*
X158230880Y-108211952D01*
X157659452Y-108783380D01*
X158278500Y-108783380D01*
X159135642Y-108116714D02*
X159135642Y-108783380D01*
X158897547Y-107735761D02*
X158659452Y-108450047D01*
X159278500Y-108450047D01*
X159659452Y-108402428D02*
X160421357Y-108402428D01*
X160849928Y-108497666D02*
X161326119Y-108497666D01*
X160754690Y-108783380D02*
X161088023Y-107783380D01*
X161421357Y-108783380D01*
X161754690Y-108783380D02*
X161754690Y-107783380D01*
X161992785Y-107783380D01*
X162135642Y-107831000D01*
X162230880Y-107926238D01*
X162278500Y-108021476D01*
X162326119Y-108211952D01*
X162326119Y-108354809D01*
X162278500Y-108545285D01*
X162230880Y-108640523D01*
X162135642Y-108735761D01*
X161992785Y-108783380D01*
X161754690Y-108783380D01*
X163040404Y-107783380D02*
X163040404Y-108497666D01*
X162992785Y-108640523D01*
X162897547Y-108735761D01*
X162754690Y-108783380D01*
X162659452Y-108783380D01*
X160599119Y-74614904D02*
X160332452Y-74233952D01*
X160141976Y-74614904D02*
X160141976Y-73814904D01*
X160446738Y-73814904D01*
X160522928Y-73853000D01*
X160561023Y-73891095D01*
X160599119Y-73967285D01*
X160599119Y-74081571D01*
X160561023Y-74157761D01*
X160522928Y-74195857D01*
X160446738Y-74233952D01*
X160141976Y-74233952D01*
X160903880Y-73891095D02*
X160941976Y-73853000D01*
X161018166Y-73814904D01*
X161208642Y-73814904D01*
X161284833Y-73853000D01*
X161322928Y-73891095D01*
X161361023Y-73967285D01*
X161361023Y-74043476D01*
X161322928Y-74157761D01*
X160865785Y-74614904D01*
X161361023Y-74614904D01*
D15*
X162950219Y-86084586D02*
X162950219Y-87394586D01*
X169890219Y-79584586D02*
X169890219Y-86084586D01*
X151910219Y-86084586D02*
X151910219Y-79584586D01*
X155820219Y-87784586D02*
X155320219Y-88784586D01*
X162950219Y-86084586D02*
X162950219Y-86084586D01*
X169890219Y-86084586D02*
X162950219Y-86084586D01*
X155320219Y-88784586D02*
X156320219Y-88784586D01*
X150610219Y-87394586D02*
X150610219Y-78274586D01*
X156320219Y-88784586D02*
X155820219Y-87784586D01*
X171190219Y-78274586D02*
X171190219Y-87394586D01*
X171190219Y-87394586D02*
X150610219Y-87394586D01*
X158850219Y-87394586D02*
X158850219Y-86084586D01*
X150610219Y-78274586D02*
X171190219Y-78274586D01*
X158850219Y-86084586D02*
X151910219Y-86084586D01*
X151910219Y-79584586D02*
X169890219Y-79584586D01*
X136724000Y-99546586D02*
X136724000Y-100856586D01*
X132624000Y-100856586D02*
X132624000Y-99546586D01*
X124384000Y-100856586D02*
X124384000Y-91736586D01*
X144964000Y-100856586D02*
X124384000Y-100856586D01*
X136724000Y-99546586D02*
X136724000Y-99546586D01*
X144964000Y-91736586D02*
X144964000Y-100856586D01*
X143664000Y-93046586D02*
X143664000Y-99546586D01*
X132624000Y-99546586D02*
X125684000Y-99546586D01*
X129094000Y-102246586D02*
X130094000Y-102246586D01*
X124384000Y-91736586D02*
X144964000Y-91736586D01*
X143664000Y-99546586D02*
X136724000Y-99546586D01*
X125684000Y-93046586D02*
X143664000Y-93046586D01*
X129594000Y-101246586D02*
X129094000Y-102246586D01*
X125684000Y-99546586D02*
X125684000Y-93046586D01*
X130094000Y-102246586D02*
X129594000Y-101246586D01*
G36*
X136169400Y-114757200D02*
G01*
X135864600Y-114757200D01*
X135864600Y-114439700D01*
X136169400Y-114439700D01*
X136169400Y-114757200D01*
G37*
D16*
X136169400Y-114757200D02*
X135864600Y-114757200D01*
X135864600Y-114439700D01*
X136169400Y-114439700D01*
X136169400Y-114757200D01*
G36*
X133451600Y-108077000D02*
G01*
X133769100Y-108077000D01*
X133769100Y-108394500D01*
X134670800Y-108394500D01*
X134670800Y-107759500D01*
X135572500Y-107759500D01*
X135572500Y-108394500D01*
X135267700Y-108394500D01*
X135267700Y-109029500D01*
X134975600Y-109029500D01*
X134975600Y-109347000D01*
X135864600Y-109347000D01*
X135864600Y-109664500D01*
X136169400Y-109664500D01*
X136169400Y-110299500D01*
X136474200Y-110299500D01*
X136474200Y-113487200D01*
X136169400Y-113487200D01*
X136169400Y-114122200D01*
X135813800Y-114122200D01*
X135813800Y-114439700D01*
X135572500Y-114439700D01*
X135572500Y-114757200D01*
X135267700Y-114757200D01*
X135267700Y-115074700D01*
X135572500Y-115074700D01*
X135572500Y-115392200D01*
X136169400Y-115392200D01*
X136169400Y-115709700D01*
X135864600Y-115709700D01*
X135864600Y-116027200D01*
X135623300Y-116027200D01*
X135623300Y-115709700D01*
X135318500Y-115709700D01*
X135318500Y-115392200D01*
X134975600Y-115392200D01*
X134975600Y-115074700D01*
X132562600Y-115074700D01*
X132562600Y-114757200D01*
X131330700Y-114757200D01*
X131330700Y-114439700D01*
X131038600Y-114439700D01*
X131038600Y-114122200D01*
X130733800Y-114122200D01*
X130733800Y-113804700D01*
X131953000Y-113804700D01*
X131953000Y-113487200D01*
X132257800Y-113487200D01*
X132257800Y-112522000D01*
X131953000Y-112522000D01*
X131953000Y-111252000D01*
X131660900Y-111252000D01*
X131660900Y-110934500D01*
X131089400Y-110934500D01*
X131089400Y-110617000D01*
X130733800Y-110617000D01*
X130733800Y-110299500D01*
X132257800Y-110299500D01*
X132257800Y-109664500D01*
X133451600Y-109664500D01*
X133769100Y-109664500D01*
X133769100Y-109347000D01*
X133451600Y-109347000D01*
X133451600Y-109664500D01*
X132257800Y-109664500D01*
X132257800Y-109029500D01*
X133451600Y-109029500D01*
X133769100Y-109029500D01*
X133769100Y-108712000D01*
X133451600Y-108712000D01*
X133451600Y-109029500D01*
X132257800Y-109029500D01*
X132257800Y-108394500D01*
X132562600Y-108394500D01*
X132562600Y-107759500D01*
X133451600Y-107759500D01*
X133451600Y-108077000D01*
G37*
X133451600Y-108077000D02*
X133769100Y-108077000D01*
X133769100Y-108394500D01*
X134670800Y-108394500D01*
X134670800Y-107759500D01*
X135572500Y-107759500D01*
X135572500Y-108394500D01*
X135267700Y-108394500D01*
X135267700Y-109029500D01*
X134975600Y-109029500D01*
X134975600Y-109347000D01*
X135864600Y-109347000D01*
X135864600Y-109664500D01*
X136169400Y-109664500D01*
X136169400Y-110299500D01*
X136474200Y-110299500D01*
X136474200Y-113487200D01*
X136169400Y-113487200D01*
X136169400Y-114122200D01*
X135813800Y-114122200D01*
X135813800Y-114439700D01*
X135572500Y-114439700D01*
X135572500Y-114757200D01*
X135267700Y-114757200D01*
X135267700Y-115074700D01*
X135572500Y-115074700D01*
X135572500Y-115392200D01*
X136169400Y-115392200D01*
X136169400Y-115709700D01*
X135864600Y-115709700D01*
X135864600Y-116027200D01*
X135623300Y-116027200D01*
X135623300Y-115709700D01*
X135318500Y-115709700D01*
X135318500Y-115392200D01*
X134975600Y-115392200D01*
X134975600Y-115074700D01*
X132562600Y-115074700D01*
X132562600Y-114757200D01*
X131330700Y-114757200D01*
X131330700Y-114439700D01*
X131038600Y-114439700D01*
X131038600Y-114122200D01*
X130733800Y-114122200D01*
X130733800Y-113804700D01*
X131953000Y-113804700D01*
X131953000Y-113487200D01*
X132257800Y-113487200D01*
X132257800Y-112522000D01*
X131953000Y-112522000D01*
X131953000Y-111252000D01*
X131660900Y-111252000D01*
X131660900Y-110934500D01*
X131089400Y-110934500D01*
X131089400Y-110617000D01*
X130733800Y-110617000D01*
X130733800Y-110299500D01*
X132257800Y-110299500D01*
X132257800Y-109664500D01*
X133451600Y-109664500D01*
X133769100Y-109664500D01*
X133769100Y-109347000D01*
X133451600Y-109347000D01*
X133451600Y-109664500D01*
X132257800Y-109664500D01*
X132257800Y-109029500D01*
X133451600Y-109029500D01*
X133769100Y-109029500D01*
X133769100Y-108712000D01*
X133451600Y-108712000D01*
X133451600Y-109029500D01*
X132257800Y-109029500D01*
X132257800Y-108394500D01*
X132562600Y-108394500D01*
X132562600Y-107759500D01*
X133451600Y-107759500D01*
X133451600Y-108077000D01*
G36*
X131330700Y-109347000D02*
G01*
X131953000Y-109347000D01*
X131953000Y-109982000D01*
X131330700Y-109982000D01*
X131330700Y-109664500D01*
X130733800Y-109664500D01*
X130733800Y-109029500D01*
X131330700Y-109029500D01*
X131330700Y-109347000D01*
G37*
X131330700Y-109347000D02*
X131953000Y-109347000D01*
X131953000Y-109982000D01*
X131330700Y-109982000D01*
X131330700Y-109664500D01*
X130733800Y-109664500D01*
X130733800Y-109029500D01*
X131330700Y-109029500D01*
X131330700Y-109347000D01*
G36*
X136474200Y-115392200D02*
G01*
X136169400Y-115392200D01*
X136169400Y-114757200D01*
X136474200Y-114757200D01*
X136474200Y-115392200D01*
G37*
X136474200Y-115392200D02*
X136169400Y-115392200D01*
X136169400Y-114757200D01*
X136474200Y-114757200D01*
X136474200Y-115392200D01*
G36*
X131330700Y-112522000D02*
G01*
X131953000Y-112522000D01*
X131953000Y-113157000D01*
X131330700Y-113157000D01*
X131330700Y-112839500D01*
X131038600Y-112839500D01*
X131038600Y-112522000D01*
X130733800Y-112522000D01*
X130733800Y-112204500D01*
X131330700Y-112204500D01*
X131330700Y-112522000D01*
G37*
X131330700Y-112522000D02*
X131953000Y-112522000D01*
X131953000Y-113157000D01*
X131330700Y-113157000D01*
X131330700Y-112839500D01*
X131038600Y-112839500D01*
X131038600Y-112522000D01*
X130733800Y-112522000D01*
X130733800Y-112204500D01*
X131330700Y-112204500D01*
X131330700Y-112522000D01*
D15*
X139958000Y-71766000D02*
X139458000Y-71516000D01*
X139458000Y-64616000D02*
X139458000Y-66616000D01*
X139958000Y-66366000D02*
X139958000Y-71766000D01*
X139958000Y-64916000D02*
X139458000Y-64616000D01*
X139458000Y-66616000D02*
X139958000Y-66366000D01*
X155358000Y-76566000D02*
X155358000Y-63966000D01*
X139458000Y-71516000D02*
X139458000Y-76566000D01*
X155358000Y-63966000D02*
X139958000Y-63966000D01*
X139958000Y-63966000D02*
X139958000Y-64916000D01*
X139458000Y-76566000D02*
X155358000Y-76566000D01*
X157972000Y-138408000D02*
X157972000Y-140808000D01*
X155572000Y-138408000D02*
X157972000Y-138408000D01*
X155572000Y-140808000D02*
X155572000Y-138408000D01*
X157972000Y-140808000D02*
X155572000Y-140808000D01*
X152018000Y-138940000D02*
X151518000Y-139190000D01*
X151518000Y-140640000D02*
X152018000Y-140890000D01*
X141168000Y-128990000D02*
X141168000Y-141590000D01*
X151518000Y-139190000D02*
X151518000Y-133790000D01*
X152018000Y-128990000D02*
X141168000Y-128990000D01*
X151518000Y-141590000D02*
X151518000Y-140640000D01*
X152018000Y-140890000D02*
X152018000Y-138990000D01*
X152018000Y-134090000D02*
X152018000Y-128990000D01*
X141168000Y-141590000D02*
X151518000Y-141590000D01*
X151518000Y-133790000D02*
X152018000Y-134090000D01*
X152018000Y-138990000D02*
X152018000Y-138940000D01*
X157972000Y-130788000D02*
X157972000Y-133188000D01*
X155572000Y-130788000D02*
X157972000Y-130788000D01*
X157972000Y-133188000D02*
X155572000Y-133188000D01*
X155572000Y-133188000D02*
X155572000Y-130788000D01*
X136706000Y-134782000D02*
X131626000Y-134782000D01*
X131626000Y-129448000D02*
X136706000Y-129448000D01*
X136706000Y-129448000D02*
X136706000Y-134782000D01*
X131626000Y-134782000D02*
X131626000Y-129448000D01*
X128425800Y-112816086D02*
X128425800Y-111292086D01*
X125454000Y-127364086D02*
X141500000Y-127364086D01*
X141500000Y-127364086D02*
X141500000Y-104364086D01*
X141500000Y-104364086D02*
X125454000Y-104364086D01*
X125454000Y-104364086D02*
X125454000Y-127364086D01*
X126139800Y-121198086D02*
X129949800Y-121198086D01*
X129949800Y-121198086D02*
X129949800Y-110530086D01*
X129949800Y-110530086D02*
X126139800Y-110530086D01*
X126139800Y-110530086D02*
X126139800Y-121198086D01*
X129441800Y-112054086D02*
G75*
G03*
X129441800Y-112054086I-1016000J0D01*
G01*
X162614000Y-124754086D02*
X161598000Y-125770086D01*
X161598000Y-124754086D02*
X162614000Y-125770086D01*
X144199000Y-116753086D02*
X164265000Y-116753086D01*
X164265000Y-116753086D02*
X164265000Y-127675086D01*
X164265000Y-127675086D02*
X144199000Y-127675086D01*
X144199000Y-127675086D02*
X144199000Y-116753086D01*
X163732394Y-125262086D02*
G75*
G03*
X163732394Y-125262086I-1626394J0D01*
G01*
X171126000Y-91736586D02*
X171126000Y-100856586D01*
X158786000Y-99546586D02*
X151846000Y-99546586D01*
X158786000Y-100856586D02*
X158786000Y-99546586D01*
X151846000Y-93046586D02*
X169826000Y-93046586D01*
X169826000Y-93046586D02*
X169826000Y-99546586D01*
X155756000Y-101246586D02*
X155256000Y-102246586D01*
X150546000Y-100856586D02*
X150546000Y-91736586D01*
X150546000Y-91736586D02*
X171126000Y-91736586D01*
X155256000Y-102246586D02*
X156256000Y-102246586D01*
X162886000Y-99546586D02*
X162886000Y-99546586D01*
X169826000Y-99546586D02*
X162886000Y-99546586D01*
X171126000Y-100856586D02*
X150546000Y-100856586D01*
X156256000Y-102246586D02*
X155756000Y-101246586D01*
X151846000Y-99546586D02*
X151846000Y-93046586D01*
X162886000Y-99546586D02*
X162886000Y-100856586D01*
X128508000Y-130788000D02*
X128508000Y-133188000D01*
X126108000Y-130788000D02*
X128508000Y-130788000D01*
X126108000Y-133188000D02*
X126108000Y-130788000D01*
X128508000Y-133188000D02*
X126108000Y-133188000D01*
X128864000Y-76208000D02*
X135404000Y-76208000D01*
X128864000Y-73468000D02*
X135404000Y-73468000D01*
X128864000Y-73798000D02*
X128864000Y-73468000D01*
X135404000Y-73468000D02*
X135404000Y-73798000D01*
X135404000Y-76208000D02*
X135404000Y-75878000D01*
X128864000Y-75878000D02*
X128864000Y-76208000D01*
X158598000Y-67959000D02*
X158598000Y-71049000D01*
X164148000Y-69504462D02*
G75*
G03*
X158598000Y-67959170I-2990000J462D01*
G01*
X158598000Y-71048830D02*
G75*
G03*
X164148000Y-69503538I2560000J1544830D01*
G01*
X163658000Y-69504000D02*
G75*
G03*
X163658000Y-69504000I-2500000J0D01*
G01*
X162614000Y-112308086D02*
X161598000Y-113324086D01*
X161598000Y-112308086D02*
X162614000Y-113324086D01*
X144199000Y-104307086D02*
X164265000Y-104307086D01*
X164265000Y-104307086D02*
X164265000Y-115229086D01*
X164265000Y-115229086D02*
X144199000Y-115229086D01*
X144199000Y-115229086D02*
X144199000Y-104307086D01*
X163732394Y-112816086D02*
G75*
G03*
X163732394Y-112816086I-1626394J0D01*
G01*
X136291000Y-71049000D02*
X136291000Y-67959000D01*
X130741000Y-69503538D02*
G75*
G03*
X136291000Y-71048830I2990000J-462D01*
G01*
X136291000Y-67959170D02*
G75*
G03*
X130741000Y-69504462I-2560000J-1544830D01*
G01*
X136231000Y-69504000D02*
G75*
G03*
X136231000Y-69504000I-2500000J0D01*
G01*
X129594000Y-87784586D02*
X129094000Y-88784586D01*
X136724000Y-86084586D02*
X136724000Y-86084586D01*
X124384000Y-87394586D02*
X124384000Y-78274586D01*
X125684000Y-86084586D02*
X125684000Y-79584586D01*
X144964000Y-78274586D02*
X144964000Y-87394586D01*
X124384000Y-78274586D02*
X144964000Y-78274586D01*
X130094000Y-88784586D02*
X129594000Y-87784586D01*
X129094000Y-88784586D02*
X130094000Y-88784586D01*
X144964000Y-87394586D02*
X124384000Y-87394586D01*
X125684000Y-79584586D02*
X143664000Y-79584586D01*
X143664000Y-79584586D02*
X143664000Y-86084586D01*
X132624000Y-86084586D02*
X125684000Y-86084586D01*
X132624000Y-87394586D02*
X132624000Y-86084586D01*
X136724000Y-86084586D02*
X136724000Y-87394586D01*
X143664000Y-86084586D02*
X136724000Y-86084586D01*
X155572000Y-136998000D02*
X155572000Y-134598000D01*
X157972000Y-136998000D02*
X155572000Y-136998000D01*
X157972000Y-134598000D02*
X157972000Y-136998000D01*
X155572000Y-134598000D02*
X157972000Y-134598000D01*
X159544000Y-75843000D02*
X159544000Y-76173000D01*
X166084000Y-73433000D02*
X166084000Y-73763000D01*
X159544000Y-73433000D02*
X166084000Y-73433000D01*
X166084000Y-76173000D02*
X166084000Y-75843000D01*
X159544000Y-73763000D02*
X159544000Y-73433000D01*
X159544000Y-76173000D02*
X166084000Y-76173000D01*
X135058000Y-136976000D02*
X135058000Y-139376000D01*
X135058000Y-139376000D02*
X132658000Y-139376000D01*
X132658000Y-136976000D02*
X135058000Y-136976000D01*
X132658000Y-139376000D02*
X132658000Y-136976000D01*
%LPC*%
D17*
X155820219Y-84104586D03*
D18*
X155820219Y-81564586D03*
X158360219Y-84104586D03*
X158360219Y-81564586D03*
X160900219Y-84104586D03*
X160900219Y-81564586D03*
X163440219Y-84104586D03*
X163440219Y-81564586D03*
X165980219Y-84104586D03*
X165980219Y-81564586D03*
D17*
X129594000Y-97566586D03*
D18*
X129594000Y-95026586D03*
X132134000Y-97566586D03*
X132134000Y-95026586D03*
X134674000Y-97566586D03*
X134674000Y-95026586D03*
X137214000Y-97566586D03*
X137214000Y-95026586D03*
X139754000Y-97566586D03*
X139754000Y-95026586D03*
D19*
X152708000Y-70266000D03*
D20*
X147708000Y-70266000D03*
X142708000Y-70266000D03*
D21*
X156772000Y-139608000D03*
D19*
X143818000Y-135290000D03*
D20*
X148818000Y-135290000D03*
D21*
X156772000Y-131988000D03*
D22*
X135436000Y-131988000D03*
X132896000Y-131988000D03*
D23*
X128044800Y-124864086D03*
X139017600Y-124864086D03*
X128044800Y-106864086D03*
X139017600Y-106864086D03*
D21*
X145596000Y-118404086D03*
X145596000Y-120944086D03*
X145596000Y-123484086D03*
X145596000Y-126024086D03*
D17*
X155756000Y-97566586D03*
D18*
X155756000Y-95026586D03*
X158296000Y-97566586D03*
X158296000Y-95026586D03*
X160836000Y-97566586D03*
X160836000Y-95026586D03*
X163376000Y-97566586D03*
X163376000Y-95026586D03*
X165916000Y-97566586D03*
X165916000Y-95026586D03*
D21*
X127308000Y-131988000D03*
D24*
X128324000Y-74838000D03*
D25*
X135944000Y-74838000D03*
D26*
X126800000Y-66837000D03*
X168202000Y-66837000D03*
D27*
X159888000Y-69504000D03*
D28*
X162428000Y-69504000D03*
D21*
X145596000Y-105958086D03*
X145596000Y-108498086D03*
X145596000Y-111038086D03*
X145596000Y-113578086D03*
D26*
X168202000Y-138211000D03*
D27*
X135001000Y-69504000D03*
D28*
X132461000Y-69504000D03*
D17*
X129594000Y-84104586D03*
D18*
X129594000Y-81564586D03*
X132134000Y-84104586D03*
X132134000Y-81564586D03*
X134674000Y-84104586D03*
X134674000Y-81564586D03*
X137214000Y-84104586D03*
X137214000Y-81564586D03*
X139754000Y-84104586D03*
X139754000Y-81564586D03*
D21*
X156772000Y-135798000D03*
D24*
X159004000Y-74803000D03*
D25*
X166624000Y-74803000D03*
D26*
X126800000Y-138211000D03*
D21*
X133858000Y-138176000D03*
M02*
