%TF.GenerationSoftware,KiCad,Pcbnew,(6.0.8-1)-1*%
%TF.CreationDate,2023-01-21T16:38:30+01:00*%
%TF.ProjectId,hog-f1-stupdown-psu,686f672d-6631-42d7-9374-7570646f776e,rev?*%
%TF.SameCoordinates,Original*%
%TF.FileFunction,Drillmap*%
%TF.FilePolarity,Positive*%
%FSLAX45Y45*%
G04 Gerber Fmt 4.5, Leading zero omitted, Abs format (unit mm)*
G04 Created by KiCad (PCBNEW (6.0.8-1)-1) date 2023-01-21 16:38:30*
%MOMM*%
%LPD*%
G01*
G04 APERTURE LIST*
%ADD10C,0.100000*%
%ADD11C,0.200000*%
G04 APERTURE END LIST*
D10*
X12500000Y-14250000D02*
X17000000Y-14250000D01*
X12250000Y-6500000D02*
X12250000Y-14000000D01*
X12250000Y-14000000D02*
G75*
G03*
X12500000Y-14250000I250000J0D01*
G01*
X17000000Y-14250000D02*
G75*
G03*
X17250000Y-14000000I0J250000D01*
G01*
X17250000Y-6500000D02*
G75*
G03*
X17000000Y-6250000I-250000J0D01*
G01*
X12500000Y-6250000D02*
X17000000Y-6250000D01*
X17250000Y-14000000D02*
X17250000Y-6500000D01*
X12500000Y-6250000D02*
G75*
G03*
X12250000Y-6500000I0J-250000D01*
G01*
D11*
X12502619Y-14565476D02*
X12502619Y-14365476D01*
X12550238Y-14365476D01*
X12578809Y-14375000D01*
X12597857Y-14394048D01*
X12607381Y-14413095D01*
X12616905Y-14451190D01*
X12616905Y-14479762D01*
X12607381Y-14517857D01*
X12597857Y-14536905D01*
X12578809Y-14555952D01*
X12550238Y-14565476D01*
X12502619Y-14565476D01*
X12702619Y-14565476D02*
X12702619Y-14432143D01*
X12702619Y-14470238D02*
X12712143Y-14451190D01*
X12721667Y-14441667D01*
X12740714Y-14432143D01*
X12759762Y-14432143D01*
X12826428Y-14565476D02*
X12826428Y-14432143D01*
X12826428Y-14365476D02*
X12816905Y-14375000D01*
X12826428Y-14384524D01*
X12835952Y-14375000D01*
X12826428Y-14365476D01*
X12826428Y-14384524D01*
X12950238Y-14565476D02*
X12931190Y-14555952D01*
X12921667Y-14536905D01*
X12921667Y-14365476D01*
X13055000Y-14565476D02*
X13035952Y-14555952D01*
X13026428Y-14536905D01*
X13026428Y-14365476D01*
X13283571Y-14565476D02*
X13283571Y-14365476D01*
X13350238Y-14508333D01*
X13416905Y-14365476D01*
X13416905Y-14565476D01*
X13597857Y-14565476D02*
X13597857Y-14460714D01*
X13588333Y-14441667D01*
X13569286Y-14432143D01*
X13531190Y-14432143D01*
X13512143Y-14441667D01*
X13597857Y-14555952D02*
X13578809Y-14565476D01*
X13531190Y-14565476D01*
X13512143Y-14555952D01*
X13502619Y-14536905D01*
X13502619Y-14517857D01*
X13512143Y-14498809D01*
X13531190Y-14489286D01*
X13578809Y-14489286D01*
X13597857Y-14479762D01*
X13693095Y-14432143D02*
X13693095Y-14632143D01*
X13693095Y-14441667D02*
X13712143Y-14432143D01*
X13750238Y-14432143D01*
X13769286Y-14441667D01*
X13778809Y-14451190D01*
X13788333Y-14470238D01*
X13788333Y-14527381D01*
X13778809Y-14546428D01*
X13769286Y-14555952D01*
X13750238Y-14565476D01*
X13712143Y-14565476D01*
X13693095Y-14555952D01*
X13874048Y-14546428D02*
X13883571Y-14555952D01*
X13874048Y-14565476D01*
X13864524Y-14555952D01*
X13874048Y-14546428D01*
X13874048Y-14565476D01*
X13874048Y-14441667D02*
X13883571Y-14451190D01*
X13874048Y-14460714D01*
X13864524Y-14451190D01*
X13874048Y-14441667D01*
X13874048Y-14460714D01*
M02*
